<?xml version="1.0" encoding="UTF-8"?><svg id="Layer_1" xmlns="http://www.w3.org/2000/svg" viewBox="0 0 70 70.03"><path d="M65.49,17.9c-.57-1.03-2.21-3.8-3.01-4.49-.97-.84-2.46-.01-2.32,1.22.06.5,1.55,2.35,1.94,2.96,6.31,9.89,6.79,22.39,1.21,32.73-.18.34-2.51,4.23-2.73,4.06-1.5-6.28-5.65-12.32-11.09-15.8-1.06-.68-1.93-1.5-3.11-.57-.72.56-1.35,1.32-2.18,1.9-5.86,4.12-13.74,3.79-19.32-.63-.65-.51-1.6-1.71-2.41-1.73-.62-.01-2.7,1.46-3.29,1.9-3.89,2.9-7.18,7.2-8.89,11.75-.39,1.04-.63,2.15-1.06,3.18C1.61,44.43.65,30.53,6.67,19.53,14.22,5.72,30.71-.68,45.69,4.56c1.05.37,2.56,1.27,3.5,1.5,1.77.43,2.53-1.45,1.39-2.37-.57-.46-2.76-1.26-3.56-1.55C31.32-3.58,13.97,2.49,5.23,16.57c-7.73,12.46-6.82,28.61,2.28,40.08.39.49,1.15,1.54,1.56,1.91.62.57,1.86.59,2.26-.24.29-.6.43-2.37.62-3.18,1.37-5.93,5.2-11.23,10.35-14.43,5.3,4.65,12.54,6.12,19.22,3.68,2.33-.85,4.23-2.19,6.17-3.68,5.66,3.6,9.74,9.72,10.59,16.42-9.07,9.87-23.98,12.77-36.27,7.41-.79-.34-2.12-1.23-2.83-1.41-1.61-.42-2.52,1.46-1.3,2.39,1,.76,4.03,1.98,5.29,2.42,30.42,10.74,57.91-21.79,42.32-50.03Z" fill="#7c9af2"/><path d="M34.16,11.37c-10.82.65-16.69,13.22-9.97,21.86,5.97,7.68,17.85,6.85,22.62-1.61,5.27-9.35-1.97-20.89-12.65-20.25ZM44.48,30.17c-3.84,7-13.9,7.59-18.43.98-4.91-7.17,0-16.84,8.65-17.06,8.3-.21,13.78,8.79,9.78,16.08Z" fill="#7c9af2"/></svg>