<?xml version="1.0" encoding="UTF-8"?><svg id="Layer_1" xmlns="http://www.w3.org/2000/svg" viewBox="0 0 223.45 223.47"><path d="M73.09,178.75l-1.4,4.24h-1.8l4.58-13.48h2.1l4.6,13.48h-1.86l-1.44-4.24h-4.78ZM77.51,177.39l-1.32-3.88c-.3-.88-.5-1.68-.7-2.46h-.04c-.2.8-.42,1.62-.68,2.44l-1.32,3.9h4.06Z" fill="#fff"/><path d="M83.03,175.93c0-1-.02-1.82-.08-2.62h1.56l.1,1.6h.04c.48-.92,1.6-1.82,3.2-1.82,1.34,0,3.42.8,3.42,4.12v5.78h-1.76v-5.58c0-1.56-.58-2.86-2.24-2.86-1.16,0-2.06.82-2.36,1.8-.08.22-.12.52-.12.82v5.82h-1.76v-7.06Z" fill="#fff"/><path d="M94.51,173.31l2.12,5.72c.22.64.46,1.4.62,1.98h.04c.18-.58.38-1.32.62-2.02l1.92-5.68h1.86l-2.64,6.9c-1.26,3.32-2.12,5.02-3.32,6.06-.86.76-1.72,1.06-2.16,1.14l-.44-1.48c.44-.14,1.02-.42,1.54-.86.48-.38,1.08-1.06,1.48-1.96.08-.18.14-.32.14-.42s-.04-.24-.12-.46l-3.58-8.92h1.92Z" fill="#fff"/><path d="M104.23,173.31l1.28,4.92c.28,1.08.54,2.08.72,3.08h.06c.22-.98.54-2.02.86-3.06l1.58-4.94h1.48l1.5,4.84c.36,1.16.64,2.18.86,3.16h.06c.16-.98.42-2,.74-3.14l1.38-4.86h1.74l-3.12,9.68h-1.6l-1.48-4.62c-.34-1.08-.62-2.04-.86-3.18h-.04c-.24,1.16-.54,2.16-.88,3.2l-1.56,4.6h-1.6l-2.92-9.68h1.8Z" fill="#fff"/><path d="M118.25,168.79h1.76v6.04h.04c.28-.5.72-.94,1.26-1.24.52-.3,1.14-.5,1.8-.5,1.3,0,3.38.8,3.38,4.14v5.76h-1.76v-5.56c0-1.56-.58-2.88-2.24-2.88-1.14,0-2.04.8-2.36,1.76-.1.24-.12.5-.12.84v5.84h-1.76v-14.2Z" fill="#fff"/><path d="M130.33,178.47c.04,2.38,1.56,3.36,3.32,3.36,1.26,0,2.02-.22,2.68-.5l.3,1.26c-.62.28-1.68.6-3.22.6-2.98,0-4.76-1.96-4.76-4.88s1.72-5.22,4.54-5.22c3.16,0,4,2.78,4,4.56,0,.36-.04.64-.06.82h-6.8ZM135.49,177.21c.02-1.12-.46-2.86-2.44-2.86-1.78,0-2.56,1.64-2.7,2.86h5.14Z" fill="#fff"/><path d="M139.37,176.33c0-1.14-.02-2.12-.08-3.02h1.54l.06,1.9h.08c.44-1.3,1.5-2.12,2.68-2.12.2,0,.34.02.5.06v1.66c-.18-.04-.36-.06-.6-.06-1.24,0-2.12.94-2.36,2.26-.04.24-.08.52-.08.82v5.16h-1.74v-6.66Z" fill="#fff"/><path d="M146.69,178.47c.04,2.38,1.56,3.36,3.32,3.36,1.26,0,2.02-.22,2.68-.5l.3,1.26c-.62.28-1.68.6-3.22.6-2.98,0-4.76-1.96-4.76-4.88s1.72-5.22,4.54-5.22c3.16,0,4,2.78,4,4.56,0,.36-.04.64-.06.82h-6.8ZM151.85,177.21c.02-1.12-.46-2.86-2.44-2.86-1.78,0-2.56,1.64-2.7,2.86h5.14Z" fill="#fff"/><path d="M215.35,92.13L131.34,8.11c-10.82-10.81-28.41-10.81-39.23,0L8.09,92.13c-5.22,5.22-8.09,12.18-8.09,19.61s2.87,14.4,8.09,19.62l84.02,84.01c5.22,5.22,12.19,8.09,19.62,8.09s14.4-2.87,19.61-8.09l84.01-84.01c5.22-5.22,8.09-12.19,8.09-19.62s-2.87-14.4-8.09-19.61ZM213.94,129.95l-84.01,84.01c-4.84,4.84-11.3,7.51-18.2,7.51s-13.36-2.67-18.2-7.51L9.51,129.95c-4.84-4.84-7.51-11.31-7.51-18.2s2.67-13.36,7.51-18.2L93.52,9.52c5.02-5.02,11.61-7.53,18.2-7.53s13.18,2.51,18.2,7.53l84.01,84.02h0c4.84,4.84,7.51,11.3,7.51,18.2s-2.67,13.36-7.51,18.2Z" fill="#7c9af2"/><path d="M138.62,69.4l-24.99,9.22-29.85-9.71-29.05,6.87v75.27l28.7-8.5,30.25,12.03,25.21-9.95,29.84,8.86v-77.75l-30.1-6.34ZM164.44,127.44l-4.86.14c-.34,1.43-.9,2.8-1.55,4.06l3.34-.1-5.46,3.51c-1.57,2.15-3.04,3.56-3.16,3.68l-1.01.96-1.01-.96s-.11-.1-.22-.21l-1.53.98-1.71,2.9,3.97,1.18.71-1.21,12.5-8.02v13.4l-25.75-7.65-.36.14-6.15-.63,8.4-7.49,5.04-.14c-.66-1.23-1.23-2.57-1.61-3.97l-4.63.13-12.41,10.94-12.73-1.3-12.39-5.15c-.96,1.13-1.68,1.82-1.77,1.91l-1.01.96-1.01-.96c-.16-.15-2.32-2.22-4.23-5.24l-1.94-.8,1.42-.07c-.69-1.2-1.32-2.51-1.76-3.9l-8.19.34-15.16-10.2,14.6-4.73,14.09,3.25c1.2-.29,2.11-.3,2.19-.3.15,0,3.53.03,5.91,2.17l8.72,2.01,16.3-3.29-16.59,9.87-6.64.27c-.39,1.42-.97,2.77-1.65,4.01l8.93-.4,25.11-14.52,1.31-.88,23.97,6.56v8.79ZM128.16,143.19l2.11.22-4.24,1.67,2.13-1.89ZM59.01,106.79l10.56-2.89c-.78-1.03-1.59-2.22-2.34-3.52l-8.22,2.25v-23.45l5.46-1.29,15.74,3.14,16.95,16.71-14.53-1.04c-.56,1.49-1.27,2.9-2.04,4.19l.64-.17,32.52,1.61,25.72-11.81,2.97,1.59-3.84.77-21.03,19.29-3.83.77-31.15-7.17-8.03,2.6-.51.48-.25-.24-14.81,4.8v-6.62ZM153.63,98.05l-13.93,9.66-.05-.02-14.44,2.92,15.33-14.06,7.49-1.49,5.61,3ZM164.44,114.48l-19.57-5.35,13.61-9.17,5.96,2.73v11.79ZM164.44,98.23l-9.5-4.56,9.5-1.9v6.45ZM164.44,87.69l-15.5,3.1-9.27-4.44-25.96,11.86-10.9-.48-20.67-20.4-8.29-1.66,9.76-2.31,30.12,9.8,25.23-9.31,25.49,5.37v8.47ZM59.01,135.32l10.84,6.45,5.07-1.5-15.42-8.92-.49-.02v-13.71l4.33-1.4,18.24,12.28,31.38,13.1,9.97,1.05-7.53,6.64-1.72.68-30.05-11.95-24.62,7.29v-9.98Z" fill="#fff"/><path d="M99.07,115.8s-2.66.04-4.17,1.62c-.78.81-1.14,1.91-1.09,3.34.04,1.23.36,2.45.81,3.62.54,1.4,1.27,2.73,2.05,3.88.86,1.27,1.74,2.34,2.39,3.07.69-.77,1.63-1.92,2.53-3.29.79-1.2,1.55-2.58,2.07-4.03.37-1.06.62-2.15.66-3.25.05-1.44-.31-2.54-1.1-3.36-1.51-1.56-4.13-1.61-4.16-1.61ZM102.37,124.07c-.81.92-1.98,1.51-3.3,1.51-1.19,0-2.27-.48-3.07-1.25-.83-.8-1.35-1.92-1.35-3.17,0-2.44,1.98-4.42,4.42-4.42s4.41,1.98,4.41,4.42c0,1.11-.43,2.13-1.11,2.9Z" fill="#fff"/><path d="M148.97,131.88c.97,1.53,2.01,2.81,2.76,3.65.77-.86,1.86-2.21,2.86-3.8.77-1.24,1.46-2.62,1.9-4.07.27-.88.47-1.78.5-2.69.05-1.44-.31-2.54-1.1-3.36-1.51-1.56-4.13-1.61-4.16-1.61-.02,0-2.66.04-4.17,1.62-.78.82-1.14,1.91-1.09,3.35.04,1,.25,1.99.57,2.96.47,1.42,1.16,2.76,1.92,3.96ZM151.73,120.94c2.43,0,4.41,1.98,4.41,4.42,0,.86-.25,1.65-.68,2.33-.78,1.25-2.16,2.09-3.73,2.09-1.49,0-2.82-.75-3.61-1.89-.51-.72-.81-1.59-.81-2.53,0-2.44,1.98-4.42,4.42-4.42Z" fill="#fff"/><path d="M76.25,102.07c1.06-1.4,2.17-3.12,3.05-5,.85-1.82,1.46-3.79,1.53-5.78.07-1.85-.4-3.27-1.42-4.34-1.95-2.03-5.31-2.08-5.35-2.08-.03,0-3.38.05-5.33,2.08-1.03,1.07-1.49,2.49-1.43,4.34.11,2.93,1.39,5.84,2.88,8.28.81,1.32,1.68,2.51,2.47,3.48.53.65,1.02,1.22,1.42,1.65.58-.64,1.36-1.54,2.18-2.64ZM68.99,91.77c0-2.8,2.27-5.08,5.08-5.08s5.07,2.28,5.07,5.08-2.28,5.07-5.07,5.07-5.08-2.27-5.08-5.07Z" fill="#fff"/></svg>