<?xml version="1.0" encoding="UTF-8"?><svg id="Layer_1" xmlns="http://www.w3.org/2000/svg" viewBox="0 0 850 500.03"><path d="M845.68,500.03H10.16c-2.39,0-4.32-1.93-4.32-4.32h0c0-2.39,1.93-4.32,4.32-4.32h835.52c2.39,0,4.32,1.94,4.32,4.32h0c0,2.39-1.94,4.32-4.32,4.32Z" fill="#95a6db"/><path d="M238.92,99.99h62.27c21.37,0,38.69-17.32,38.69-38.69h0c0-21.37-17.32-38.69-38.69-38.69h-62.27c-21.37,0-38.69,17.32-38.69,38.69h0c0,21.37,17.32,38.69,38.69,38.69Z" fill="#b8c6f2"/><path d="M220.01,96.52v28.8c0,2.31,3.11,3.06,4.16,1l15.14-29.8h-19.3Z" fill="#b8c6f2"/><path d="M218.44,46.79h101.92c3.92,0,7.1-3.18,7.1-7.1h0c0-3.92-3.18-7.1-7.1-7.1h-101.92c-3.92,0-7.1,3.18-7.1,7.1h0c0,3.92,3.18,7.1,7.1,7.1Z" fill="#fff"/><path d="M218.44,69.3h101.92c3.92,0,7.1-3.18,7.1-7.1h0c0-3.92-3.18-7.1-7.1-7.1h-101.92c-3.92,0-7.1,3.18-7.1,7.1h0c0,3.92,3.18,7.1,7.1,7.1Z" fill="#fff"/><path d="M218.44,91.82h63.32c3.92,0,7.1-3.18,7.1-7.1h0c0-3.92-3.18-7.1-7.1-7.1h-63.32c-3.92,0-7.1,3.18-7.1,7.1h0c0,3.92,3.18,7.1,7.1,7.1Z" fill="#fff"/><path d="M768.39,341.7c-.01-1.11-.02-2.12-.03-3.01-.03-3.03-1.14-5.95-3.12-8.23-23.6-27.12-122.7-145.49-154.39-175.33-9.82-9.34-26.84-11.86-54.94-11.86H85.64c-29.85,0-40.55,16.14-40.55,50.27,0,24.41,2.24,193.98,2.24,193.98,0,0,5.05,59.9,15.53,63.81,2.14.8,694.84,5.1,699.41-2.48,4.57-7.58,6.01-56.34,6.01-56.34.05-4.12.09-8.21.12-12.19.11-15.94.05-30.24-.01-38.61Z" fill="#b8c6f2"/><path d="M768.43,386.61s.6,56.46-3.19,61.82c-4.3,4.56-10.88,7.42-18.03,7.83-7.5,1.03-66.42.55-66.42.55,0,0-607.85-4.53-617.94-5.5-10.09-.96-14.06-7.49-14.41-16.83,0-1.99-.95-33.11-1.12-50.83l721.1,2.95Z" fill="#5e8adb"/><circle cx="638.35" cy="424.38" r="67" transform="translate(-63.95 117.19) rotate(-9.99)" fill="#3a49cd"/><circle cx="638.35" cy="424.38" r="48.85" fill="#b8c6f2"/><circle cx="638.35" cy="424.38" r="26.34" transform="translate(-9.07 13.97) rotate(-1.24)" fill="#98b0f2"/><circle cx="142.55" cy="424.38" r="67" transform="translate(-258.33 225.1) rotate(-45)" fill="#3a49cd"/><circle cx="142.55" cy="424.38" r="48.85" transform="translate(-66.14 28.31) rotate(-9.22)" fill="#b8c6f2"/><circle cx="142.55" cy="424.38" r="26.34" fill="#98b0f2"/><path d="M652.47,283.98h-134.35c-4.15,0-7.52-3.37-7.52-7.52v-89.28c0-6.83,5.53-12.36,12.36-12.36h46.34c12.42,0,24.1,5.9,31.48,15.9l58.64,79.51c4.2,5.7.13,13.75-6.94,13.75Z" fill="#5e8adb"/><ellipse cx="647.88" cy="270.78" rx="24.49" ry="19.34" fill="#98b0f2"/><path d="M768.4,380.3h-7.03c-10.66,0-19.3-8.64-19.3-19.3,0-5.33,2.16-10.16,5.65-13.65,3.49-3.49,8.32-5.66,13.65-5.66h7.02c.06,8.37.12,22.66.01,38.61Z" fill="#92b5f8"/><path d="M281.33,161.94h142.11c21.44,0,38.85,17.41,38.85,38.85v158.95c0,21.44-17.41,38.84-38.84,38.84h-142.11c-21.44,0-38.84-17.41-38.84-38.84v-158.95c0-21.44,17.41-38.84,38.84-38.84Z" transform="translate(704.78 560.51) rotate(180)" fill="#272a66"/><rect x="315.11" y="207.15" width="94.99" height="190.89" fill="#313480"/><rect x="278.12" y="251.45" width="94.42" height="146.6" fill="#3a49cd"/><rect x="353.15" y="292.94" width="99.04" height="105.11" fill="#3662c1"/><path d="M113.76,161.41h142.11c21.44,0,38.84,17.41,38.84,38.84v158.95c0,21.44-17.41,38.85-38.85,38.85H113.76c-21.44,0-38.84-17.41-38.84-38.84v-158.95c0-21.44,17.41-38.84,38.84-38.84Z" transform="translate(369.63 559.46) rotate(180)" fill="#98b0f2"/><rect x="74.92" y="319.88" width="219.8" height="21.82" fill="#b8c6f2"/><path d="M147.17,174.82h70.37c29.96,0,54.28,24.32,54.28,54.28v.59c0,29.96-24.32,54.28-54.28,54.28h-70.37c-29.96,0-54.28-24.32-54.28-54.28v-.59c0-29.96,24.32-54.28,54.28-54.28Z" fill="#5e8adb"/><g id="c"><polygon id="v-2" points="180.03 167.27 180.04 167.27 189.85 167.31 192.07 190.47 180.62 196.51 168.42 190.54 170.39 167.31 180.03 167.27" fill="#f37a50"/><path d="M160.54,150.75c2.23,16.79,14.73,28.99,27.92,27.24,13.19-1.75,22.08-16.79,19.84-33.58-2.23-16.79-14.73-28.99-27.92-27.24-13.19,1.75-22.08,16.79-19.84,33.58Z" fill="#f37a50"/><path d="M192.73,151.12c2.43,3.16,5.48,7.01,5.48,7.01,0,0-.89,3.67-5.56,4.17,1.9-1.01,3.73-2.53,2.67-5.09s-2.59-6.08-2.59-6.08Z" fill="#fd7166"/><path d="M155.1,137.25c-1.43-16,13.28-21.26,13.28-21.26,0,0-3.3-1.16-2.5-6,2.32,1.43,5.17,2.09,7.88,1.82,18.3-1.81,29.81,1.2,27.99,8.37-.65,2.55,11.22,3.86,5.93,20.79-1.13-2-2.15-9.5-5.71-11.16-3.57-1.66-1.45,4.2-9.53,3.29-8.15-.92-13.46-4.3-19.4-1.08-4.75,2.92-10.69,22.4-10.42,23.73-.62-3.06-6.91-11.48-7.54-18.51Z" fill="#03021c"/><path d="M208.44,153.58s-1.56,9.13-3.55,11.56c-.43-3.93-9.05-1.46-12.8-1.13-6.78.59-13.67-5.42-15.95,3.48-8.64.5-11.78-18.51-11.78-18.51-5.31,19,4.2,32.86,25.14,34.79,13.8,1.27,21.44-16.33,18.94-30.2Z" fill="#03021c"/><path d="M182.95,150.13c-1.29.09-2.4-.89-2.48-2.17-.09-1.28.88-2.4,2.17-2.48,1.28-.09,2.4.89,2.48,2.17.09,1.28-.89,2.4-2.17,2.48Z"/><path d="M202.2,149.42c-1.28.09-2.4-.89-2.48-2.17-.09-1.28.88-2.4,2.17-2.48,1.28-.09,2.4.89,2.48,2.17.09,1.29-.89,2.4-2.17,2.48Z"/><path d="M206.08,144.55c-.39.03-.79-.15-1.03-.5-.66-.96-1.42-1.51-2.26-1.64-1.45-.22-2.79.83-2.81.84-.5.39-1.23.31-1.62-.19-.4-.5-.32-1.22.18-1.62.09-.07,2.12-1.68,4.57-1.32,1.51.22,2.8,1.1,3.84,2.62.36.53.23,1.25-.3,1.61-.18.12-.38.19-.58.2Z" fill="#03021c"/><path d="M177.69,146.41c-.25.02-.51-.05-.74-.2-.52-.37-.65-1.09-.29-1.61,1.39-2,3-3.14,4.78-3.4,2.3-.34,3.99.99,4.06,1.04.5.4.58,1.13.18,1.63-.4.5-1.12.58-1.62.19-.04-.03-1.04-.76-2.32-.56-1.12.17-2.19.99-3.19,2.43-.21.3-.53.47-.87.49Z" fill="#03021c"/><path d="M164.14,149.06c2.89,2.75,3.41,6.89,1.16,9.25-2.25,2.36-6.41,2.05-9.3-.69-2.89-2.75-3.41-6.89-1.16-9.25,2.25-2.36,6.41-2.05,9.3.69Z" fill="#f37a50"/><path d="M161.53,157.19c.12-.05.24-.12.33-.22,1.36-1.48,1.65-3.26.78-4.77-.89-1.55-2.75-2.4-4.42-2.03-.47.11-.76.57-.66,1.04.11.47.57.76,1.04.66.91-.2,2.03.32,2.53,1.2.49.84.29,1.81-.55,2.72-.33.35-.3.91.05,1.23.25.23.6.29.9.17Z" fill="#fd7166"/><path d="M184.55,166.63c-.1-.6.04-1.17.64-1.09,1.53.2,4.07.47,6.49.49,2.42.02,4.96-.21,6.5-.38.6-.07.75.51.62,1.1-.51,2.47-3.31,5.22-7.02,5.19-3.71-.03-6.88-3.07-7.24-5.3Z" fill="#fff"/><path d="M197.93,470.58c8.67,11.96,29.96,4.62,29.26,20.8h-45.83c.04-3.72.68-12.54,1.43-15.99l15.15-4.81Z"/><path d="M149.48,470.58c8.67,11.96,29.96,4.62,29.26,20.8h-45.83c.04-3.72.68-12.54,1.43-15.99l15.15-4.81Z"/><path d="M212.91,287.64s5.26,76.67,3.12,93.72c-2.14,17.05-9.7,38.9-8.84,95.28-10.55,2.64-25.85,0-25.85,0,0,0-2.27-63.75,8.89-92.23-4.54-27.66-19.1-91.01-19.1-91.01l41.77-5.76Z" fill="#040426"/><path d="M192.94,289.74s-10.62,86.08-15.81,102.4c-5.2,16.33-9.72,28.29-19.13,83.83-10.85.54-26.51.21-26.51.21,0,0,1.42-68.81,18.31-84.84.57-28.05-2.73-101.05-2.73-101.05l45.87-.55Z" fill="#060534"/><g id="v"><path id="h-5" d="M144,192.05s18.44-6.45,24.58-3.49c19.1,9.2,23.48,0,23.48,0,6.1.53,24.53,3.49,24.53,3.49,0,20.58,1.37,41.23,1,56.8-.26,13.56,2.32,50.47,2.32,50.47,0,0-20.33,5.33-39.55,5.47-19.23-.12-38.8-5.25-38.8-5.25,0,0,1.03-37.38,1.88-51.27-.28-15.57.55-35.69.55-56.21Z" fill="#fd7166"/></g><g id="c-2"><path id="c-3" d="M249.37,222.63c-7.61-18.16-30.19-29.7-32.77-30.58l-5.24,23.31c10.85,6.42,18.72,13.36,18.72,13.36-1.33,6.49-1.11,12.86-4.87,21.06,0,0,3.26-4.5,7.29-1.84,3.91,2.59,11.11-2.7,11.11-2.7,0,0,11.57-8.74,5.76-22.61Z" fill="#eb695e"/></g><g id="c-4"><g id="c-5"><g id="c-6"><path id="c-7" d="M245.13,268.51c.13.04.26.07.4.08h.43c.79-.08,1.5-.63,1.75-1.44l20.29-65.41c.04-.13.07-.26.08-.4,0-.09,0-.17,0-.26,0-.05,0-.1,0-.16,0-.05-.02-.09-.03-.14-.12-.74-.64-1.39-1.41-1.63-.12-.04-.25-.07-.39-.08-.15-.02-.3-.01-.44,0h-51.07l-20.47,69.5h50.88l-.03-.08Z" fill="#dde8fd"/><path id="c-8" d="M215.21,199.17c-1.09-.34-2.24.27-2.58,1.36l-20.16,65.24-.05.15c-.33,1.08.27,2.23,1.35,2.57h0c1.09.34,2.24-.27,2.58-1.35l20.21-65.39c.34-1.09-.27-2.24-1.36-2.58Z" fill="#a7c1e9"/></g></g><path id="c-9" d="M253.8,240.67c.19-.13.4-.21.61-.27-.02-.03-.05-.06-.07-.09-1.27-1.92-1.19-4.21.19-5.12.23-.15.47-.25.73-.31-.36-1.42-.04-2.77.94-3.42.39-.26.84-.37,1.32-.37-.45-1.39-.09-2.86,1.01-3.59,1.37-.91,3.37-.32,4.45,1.31,1.08,1.64.85,3.7-.53,4.61-.35.23-.74.36-1.14.41.92,1.78.73,3.74-.51,4.56-.23.15-.47.25-.73.31.36,1.42.04,2.77-.94,3.42-.36.24-.78.36-1.22.37.45,1.22.17,2.53-.8,3.17-1.16.77-2.85.27-3.76-1.11-.92-1.38-.72-3.12.44-3.89Z" fill="#f37a50"/><path d="M191.01,236.53l4.66-2.7s1.29-6.6,8.76-6.76c-.86,2.77-2.09,6.76-2.09,6.76,0,0,3.68,2.86,12.41-2.03,8.53-1.92,4.89,4.3,7.71,4.75,4.17.66-3.04,8.86-11.56,10.11-11.02,1.62-12.33-.63-12.33-.63l-6.24,2.18-1.33-11.68Z" fill="#f37a50"/><path id="c-10" d="M143.4,244.21c15.56-1.09,46.63-9.4,46.63-9.4,4.25,6.52,3.07,15.17,3.07,15.17-24.16,21.18-60.53,28.03-71.69,22.93-10.19-4.66-2.95-66.68,22.63-80.89l-.64,52.18Z" fill="#eb695e"/></g><path d="M225.62,209.1c-.88,2.21-3.15,3.38-5.06,2.61-1.91-.76-2.75-3.17-1.87-5.38.88-2.21,3.15-3.38,5.06-2.61,1.91.76,2.75,3.17,1.87,5.38Z" fill="#a7c1e9"/><path d="M232.14,208.35c-.53,1.32-1.88,2.02-3.02,1.56-1.14-.46-1.64-1.89-1.11-3.21.53-1.32,1.88-2.02,3.02-1.56,1.14.46,1.64,1.89,1.11,3.21Z" fill="#a7c1e9"/></g><rect x="315.67" y="362.52" width="103.96" height="128.86" fill="#6a86ce"/><rect x="230.69" y="332" width="106.41" height="159.38" fill="#7c9af2"/><rect x="271" y="382.73" width="108.66" height="108.66" fill="#92b5f8"/><rect x="315.11" y="400.54" width="50.44" height="20.65" fill="#7c9af2"/><rect x="282" y="422.18" width="22.02" height="22.02" transform="translate(-173.13 196.07) rotate(-28.96)" fill="#7c9af2"/><path d="M294.72,444.28c0,6.98,5.66,12.64,12.64,12.64s12.64-5.66,12.64-12.64-5.66-12.64-12.64-12.64-12.64,5.66-12.64,12.64Z" fill="#7c9af2"/><path d="M447.61,44.43c.82-18.3,15.91-32.88,34.41-32.88,6.25,0,12.1,1.66,17.16,4.57h0c.63-9,8.13-16.11,17.29-16.11,8.22,0,15.1,5.72,16.88,13.39h0c2.19-.53,4.48-.81,6.83-.81,12.39,0,22.97,7.73,27.18,18.64,2.47-.98,5.17-1.52,7.99-1.52,6.77,0,12.82,3.1,16.81,7.95,2.22,2.7.24,6.77-3.25,6.77h-141.31Z" fill="#7c9af2"/><path d="M850,91.33c0,.19,0,.38,0,.56h-65c1.84-6.34,7.69-10.98,14.62-10.98,1.59,0,3.12.24,4.56.69,3.73-8.38,12.12-14.22,21.88-14.22,13.22,0,23.94,10.72,23.94,23.94Z" fill="#7c9af2"/><path d="M750.54,133.75c0,.25,0,.5-.02.74h-112.16c-.01-.25-.02-.49-.02-.74,0-10.96,8.88-19.84,19.84-19.84,2.07,0,4.06.32,5.94.9,4.85-10.92,15.79-18.53,28.51-18.53s24.49,8.2,29.04,19.79c2.71-1.38,5.77-2.16,9.02-2.16,10.96,0,19.84,8.88,19.84,19.84Z" fill="#7c9af2"/><path d="M112.19,109.26c0,.25,0,.5-.02.74H.02c-.01-.25-.02-.49-.02-.74,0-10.96,8.88-19.84,19.84-19.84,2.07,0,4.06.32,5.94.91,4.85-10.92,15.79-18.53,28.51-18.53s24.49,8.2,29.04,19.79c2.71-1.38,5.77-2.16,9.02-2.16,10.96,0,19.84,8.88,19.84,19.84Z" fill="#7c9af2"/><path d="M686.18,187.76c1.39,13.16-12.17,53.42-56.02,54.84,1.14-6.65,4.48-17.37,4.48-17.37,0,0,2.32-5.77,18.86-27.71,14.45-19.16,31.8-18.08,32.68-9.76Z" fill="#eb695e"/><path d="M642.7,175.16s4.21,33.8,4.41,52.03c-5.8,6.67-8.52,13.55-16.95,15.4-6.71-16.94-6.45-38.91-1.84-63.28l14.38-4.15Z" fill="#eb695e"/><polygon points="633.99 145.44 628.31 151.34 620.35 159.62 614.3 165.91 624.82 179.02 632.27 174.48 642.08 168.51 649.07 164.24 633.99 145.44" fill="#5487ff"/><polygon points="650.58 166.13 632.47 143.56 635.14 142.03 652.65 163.86 650.58 166.13" fill="#2f61d6"/><polygon points="636.52 143.75 651.27 162.13 653.27 159.92 639.12 142.28 636.52 143.75" fill="#2f61d6"/><polygon points="614.3 165.91 612.18 168.11 622.21 180.61 624.82 179.02 614.3 165.91" fill="#2f61d6"/><polygon points="628.31 151.34 620.35 159.62 632.27 174.48 642.08 168.51 628.31 151.34" fill="#2f61d6"/><path id="c-11" d="M623.16,161.2c.01-.22-.02-.43-.07-.63.04,0,.07,0,.11.01,2.18.14,4.03-1.01,4.13-2.57.02-.26-.02-.51-.09-.75,1.34-.38,2.3-1.28,2.38-2.4.03-.44-.09-.87-.32-1.26,1.36-.29,2.4-1.27,2.48-2.52.1-1.56-1.33-2.93-3.19-3.05-1.86-.12-3.45,1.05-3.55,2.61-.03.4.05.78.2,1.13-1.9.09-3.42,1.16-3.52,2.58-.02.26.02.51.09.75-1.34.38-2.3,1.28-2.38,2.4-.03.41.07.81.27,1.18-1.22.2-2.17,1.06-2.24,2.16-.09,1.32,1.12,2.48,2.69,2.58,1.57.1,2.91-.88,3-2.21Z" fill="#f37a50"/><path d="M636.32,171.79c-.24-1.31.22-3.45,2.19-5.64,1.96-2.2,0-8.79,2.55-7.58,2.56,1.21,5.36,8.08,1.44,13.81-.51,2.17-.45,3-.45,3l-13.02,3.74-.8-2.19,8.09-5.14Z" fill="#f37a50"/><polygon points="642.1 473.11 637.68 483.23 624.04 475.57 625.68 467.96 642.1 473.11" fill="#fff"/><polygon points="808.12 448.85 800.7 441.52 787.02 451.3 794.72 456.13 808.12 448.85" fill="#fff"/><path d="M624.13,475.17c-10.11,11.42-29.3-.87-30.78,16.07,31.78,3.68,44.95,5.52,44.95,5.52.46-3.88,1.01-13.14.74-16.83l-14.91-4.76Z" fill="#060534"/><path d="M794.72,456.13c1.8,15.23-21.17,22.21-9.24,34.63,24.57-21.44,34.99-30.11,34.99-30.11-2.65-2.93-9.35-9.54-12.35-11.8l-13.4,7.28Z" fill="#060534"/><path d="M678.95,280.09l40.16,27.24s-35.24,63.62-56.79,83.24c-3.75,3.41-29.27-3.22-30.31-7.79-3.8-16.68,46.95-102.68,46.95-102.68Z" fill="#6a86ce"/><path d="M665.43,386.53c1.66,31.97-22.5,88.37-22.5,88.37,0,0-14.79-1.81-23.9-7.71,10.2-52.22,7.22-69.13,12.98-87.78,8.1-10.46,31-10.9,33.41,7.11Z" fill="#6a86ce"/><path d="M684.71,287.41l49.11-8.07s11.25,55.4,8.39,97.97c-.35,5.2-23.79,21.36-27.39,18.57-13.13-10.19-30.11-108.47-30.11-108.47Z" fill="#92b5f8"/><path d="M739.72,371.43c28.18,15.4,62.97,70.42,62.97,70.42,0,0-5.51,8.26-13.77,13.77-42.15-33.26-62.17-49.43-75.64-61.27,3.18-13.59,9.78-30.3,26.45-22.92Z" fill="#92b5f8"/><path d="M673.86,186.39c-2.06,4.05,20.04,3.87,21.53-4.02,1.48-7.89-7.25-27.19-7.25-27.19l-18.72,7.81s7.12,18.13,4.44,23.4Z" fill="#f37a50"/><path d="M695.71,138.93c-.46,16-14.35,28.92-26.92,28.56-12.56-.36-19.04-13.86-18.58-29.86.46-16,11.01-28.68,23.58-28.32,12.56.36,22.38,13.62,21.93,29.61Z" fill="#f37a50"/><path d="M660.01,142.79c-.99,3.63-2.29,8.09-2.29,8.09,0,0,2.09,2.89,6.35,1.66-2.02-.2-4.17-.88-4.15-3.5.01-2.62.09-6.24.09-6.24Z" fill="#fd7166"/><path d="M689.28,148.42c-7.25-7.93-3.12-18.15-3.12-18.15-3.99-.27-5.33,1.27-5.33,1.27-2.69-4.08-1.46-7.42-1.46-7.42-8.45-2.08-11.78,3.65-18.8,6.35-9.62,3.7-22.42,1.35-25.15-10.63-.4-1.73,1.39-3.12,2.98-2.33,1.48.73,3.38,1.23,5.62.87,0,0-2.39-2.08-2.92-5.31-.29-1.78,1.68-3.03,3.21-2.06,2.29,1.45,6.34,2.57,13,.4,4.44-1.45,13.09-8.89,19.76-8.32,5.45.47,11.06,3.23,13.71,9.45,0,0,10.87-.31,14.01,13.87,4.56,20.58-16.13,30.69-16.13,30.69,0,0,0-3.63.62-8.68Z" fill="#03021c"/><path d="M685.19,138.27c-3.01,2.26-3.94,6.09-2.09,8.55,1.85,2.46,5.79,2.62,8.8.35,3.01-2.26,3.94-6.09,2.09-8.55-1.85-2.46-5.79-2.62-8.8-.35Z" fill="#f37a50"/><path d="M686.76,146.17c-.11-.06-.21-.14-.29-.25-1.12-1.53-1.2-3.24-.22-4.56,1-1.36,2.84-1.95,4.37-1.42.43.15.66.62.51,1.05-.15.43-.62.66-1.05.51-.84-.29-1.94.08-2.5.85-.55.74-.47,1.67.23,2.62.27.37.19.88-.18,1.15-.26.19-.6.2-.86.07Z" fill="#fd7166"/><path d="M666.68,141.88c.1.85,1.17,1.43,2.38,1.29,1.22-.14,2.12-.95,2.02-1.8-.1-.85-1.17-1.43-2.38-1.29-1.22.14-2.12.95-2.02,1.8Z"/><path d="M651.88,143.53c.09.81,1.1,1.35,2.25,1.22,1.15-.13,2-.89,1.91-1.7-.09-.8-1.1-1.35-2.25-1.22-1.15.13-2,.89-1.91,1.7Z"/><path d="M672.47,138.31c.4-.05.76-.3.93-.7.25-.59-.03-1.26-.61-1.51-.14-.06-3.4-1.41-6.85-.93-.63.09-1.07.67-.98,1.3.09.63.67,1.07,1.3.98,2.8-.4,5.6.76,5.63.77.19.08.39.1.58.08Z" fill="#03021c"/><path d="M651.29,140.64c.24-.03.48-.13.66-.31,1.91-1.83,4-1.76,4.09-1.75.63.03,1.18-.46,1.21-1.09.04-.63-.44-1.17-1.07-1.22-.13,0-3.15-.17-5.82,2.39-.46.44-.48,1.17-.03,1.63.26.27.62.39.97.35Z" fill="#03021c"/><path d="M660.99,158.83c.08,1.17,1.25,2.04,2.6,1.95,1.36-.09,2.39-1.12,2.31-2.29-.08-1.17-1.25-2.04-2.6-1.95-1.36.09-2.39,1.12-2.31,2.29Z" fill="#fd7166"/><path d="M673.23,287.61c12.13,11.72,45.44-3.67,60.6-8.26,5.36-12.77-2.93-52.96-5.51-66.11-4.5-22.91-15.08-38.81-34.42-43.27-2.02,4.17-13.74,20.4-19.68,10.11-12.43,4.24-13.26,27.26-13.33,40.82-.07,13.75,4.41,28.7,6.71,42.26,2.56,15.05,5.63,21.7,5.63,24.46Z" fill="#fd7166"/><path d="M644.17,372.67l70.36,9.58c2.83.39,5.43-1.6,5.82-4.42l4.31-31.69,1.19-8.73c.39-2.83-1.6-5.43-4.42-5.82l-70.36-9.58c-2.83-.39-5.43,1.59-5.82,4.42l-1.19,8.73-4.31,31.69c-.38,2.83,1.6,5.43,4.42,5.82Z" fill="#313480"/><path d="M644.06,335.17l35.73,18.03c1.4.71,3,.93,4.54.62,8.83-1.76,39.27-7.77,39.91-7.06l.42-.62,1.19-8.73c.39-2.83-1.6-5.43-4.42-5.82l-70.36-9.58c-2.83-.39-5.43,1.59-5.82,4.42l-1.19,8.73Z" fill="#060534"/><path d="M702.81,331.8c.08-.28.16-.57.25-.88.82-2.81,2.06-7.05-.32-11.02-1.98-3.31-5.95-5.55-12.14-6.86-6.46-1.37-11.42-.52-14.74,2.52-4.87,4.46-4.04,11.82-4,12.13l4.6-.55c0-.05-.57-5.35,2.55-8.18,2.16-1.96,5.73-2.43,10.63-1.39,4.79,1.01,7.86,2.6,9.12,4.71,1.34,2.24.51,5.07-.15,7.35-.1.34-.19.66-.27.96l4.47,1.22Z" fill="#060534"/><path d="M683.31,316.9c1.98.49,4.29-.13,5-2.55.83-2.85-4.5-1.83-4.5-1.83.48-3.64,6.1-5.73,8.45-4.54l3.35-6.59,10.38,7.72-4.17,5.59c.11,12.13-9.76,10.65-14.23,8.5-3.7-1.78-5.92-4.03-4.27-6.3Z" fill="#f37a50"/><path d="M702.61,178.82c12.67,5.37,27.09,23.49,30.31,69.72-16.69,8.1-28.68,3.86-28.68,3.86,0,0-7.03-18.18-13.71-42.22-6.68-24.04,4.07-34.75,12.08-31.36Z" fill="#eb695e"/><path d="M692.97,305.44s12.09-36.01,11.05-54.88c8.82-4.08,19.61-3.95,28.89-2.01-.89,20-8.35,47.64-28.86,64.84-3.28-5.95-11.09-7.95-11.09-7.95Z" fill="#eb695e"/></svg>