<?xml version="1.0" encoding="UTF-8"?><svg id="Layer_1" xmlns="http://www.w3.org/2000/svg" viewBox="0 0 223.47 223.47"><path d="M82.22,171.61v13.48h-1.74v-13.48h1.74Z" fill="#fff"/><path d="M85.4,178.03c0-1-.02-1.82-.08-2.62h1.56l.1,1.6h.04c.48-.92,1.6-1.82,3.2-1.82,1.34,0,3.42.8,3.42,4.12v5.78h-1.76v-5.58c0-1.56-.58-2.86-2.24-2.86-1.16,0-2.06.82-2.36,1.8-.08.22-.12.52-.12.82v5.82h-1.76v-7.06Z" fill="#fff"/><path d="M102.54,171.61v5.64h6.52v-5.64h1.76v13.48h-1.76v-6.32h-6.52v6.32h-1.74v-13.48h1.74Z" fill="#fff"/><path d="M119.14,185.09l-.14-1.22h-.06c-.54.76-1.58,1.44-2.96,1.44-1.96,0-2.96-1.38-2.96-2.78,0-2.34,2.08-3.62,5.82-3.6v-.2c0-.8-.22-2.24-2.2-2.24-.9,0-1.84.28-2.52.72l-.4-1.16c.8-.52,1.96-.86,3.18-.86,2.96,0,3.68,2.02,3.68,3.96v3.62c0,.84.04,1.66.16,2.32h-1.6ZM118.88,180.15c-1.92-.04-4.1.3-4.1,2.18,0,1.14.76,1.68,1.66,1.68,1.26,0,2.06-.8,2.34-1.62.06-.18.1-.38.1-.56v-1.68Z" fill="#fff"/><path d="M123.42,178.03c0-1-.02-1.82-.08-2.62h1.56l.1,1.6h.04c.48-.92,1.6-1.82,3.2-1.82,1.34,0,3.42.8,3.42,4.12v5.78h-1.76v-5.58c0-1.56-.58-2.86-2.24-2.86-1.16,0-2.06.82-2.36,1.8-.08.22-.12.52-.12.82v5.82h-1.76v-7.06Z" fill="#fff"/><path d="M142.88,170.89v11.7c0,.86.02,1.84.08,2.5h-1.58l-.08-1.68h-.04c-.54,1.08-1.72,1.9-3.3,1.9-2.34,0-4.14-1.98-4.14-4.92-.02-3.22,1.98-5.2,4.34-5.2,1.48,0,2.48.7,2.92,1.48h.04v-5.78h1.76ZM141.12,179.35c0-.22-.02-.52-.08-.74-.26-1.12-1.22-2.04-2.54-2.04-1.82,0-2.9,1.6-2.9,3.74,0,1.96.96,3.58,2.86,3.58,1.18,0,2.26-.78,2.58-2.1.06-.24.08-.48.08-.76v-1.68Z" fill="#fff"/><path d="M215.35,92.13L131.34,8.11c-10.82-10.82-28.42-10.82-39.23,0L8.09,92.13c-5.22,5.22-8.09,12.18-8.09,19.62s2.87,14.4,8.09,19.62l84.01,84.01c5.22,5.22,12.19,8.09,19.62,8.09s14.4-2.87,19.62-8.09l84.02-84.01c10.82-10.82,10.82-28.42,0-39.23ZM213.94,129.95l-84.02,84.01c-4.84,4.84-11.3,7.51-18.2,7.51s-13.36-2.67-18.2-7.51L9.51,129.95c-4.84-4.84-7.51-11.31-7.51-18.2s2.67-13.36,7.51-18.2L93.52,9.53c5.02-5.02,11.61-7.53,18.2-7.53s13.18,2.51,18.2,7.53l84.02,84.01c10.04,10.04,10.04,26.37,0,36.41Z" fill="#7c9af2"/><path d="M184.81,149.39c-1.22-.04-3.03-.09-4.23,0-2.01.16-2.85,1.3-4.59,1.99-1.44.57-2.98.84-4.51,1.06l-38.23-.08c-1.72-.67-1.45-2.84.3-3.26l17.33-.05c1.81-.49,1.23-2.61-.5-2.69h-21.26c-.95-.4-1.37-1.36-.97-2.32.37-.89,1.45-1,2.31-1.06,6.6-.47,13.76.37,20.42,0,1.47-.07,1.42-2.35,0-2.54h-24.8c-1.78-.26-2.3-2.48-.61-3.29l25.78-.2c1.19-.68.88-2.46-.54-2.58h-21.42c-1.67-.36-1.79-2.85-.1-3.29l30.13-.07c1.12-.14,1.27-1.06,1-2.03-1.44-1.36-2.75-2.88-4.21-4.23-.39-.36-.87-.87-1.24-1.17-2.49-2.04-7-3.6-6.95-7.26,2.73,1.12,5.37,2.49,8.1,3.62,7.77,3.23,12.59,4.48,19.31,10.05.85.7,2.48,2.56,3.29,2.95,1.14.54,5.5.59,6.84.43,1.05-.13,1.62-1.27.92-2.12-1-1.23-4.94-.17-6.54-.72-1.83-1.6-3.64-3.35-5.63-4.83-5.77-4.27-11.04-5.64-17.47-8.34-3.18-1.33-6.25-2.96-9.46-4.22-2.19-.26-2.16,3.72-1.78,5.17.98,3.67,4.74,4.91,7.39,7.12,1.01.84,1.88,1.92,2.79,2.86h-26.41c-.25,0-1.36.39-1.66.54-1.98.98-2.83,3.53-1.97,5.54-5.06.77-5.17,8.01,0,8.61-1.19,2.9.87,6.17,4.05,6.07-.31,1.16-.25,2.21,0,3.37h-35.68s-.39.32-.42-.08c-.01-.18.36-1.08.34-1.69-.01-.63-.21-1.02-.35-1.6,3.34.1,5.12-3,4.22-6.07,4.88-.63,5.02-7.61.17-8.52l-.16-.19c.79-3.15-.88-5.7-4.14-5.98-4.37-.38-9.26.3-13.68,0l-2.71.16-9.68-.15c.85-.89,1.67-1.9,2.62-2.69,2.56-2.14,6.61-3.64,7.58-7.09.51-1.8.51-6.1-2.32-5.19-2.12.68-4.78,2.28-6.93,3.2-5.96,2.54-12.05,4.22-17.48,7.83-2.71,1.8-5.17,3.9-7.51,6.16-1.38.56-5.39-.36-6.43.49-.69.56-.53,1.89.3,2.24.54.23,4.96.22,5.78.13,2.18-.24,4.69-3.38,6.51-4.79,5.97-4.65,11.39-6.01,18.15-8.85,2.52-1.05,4.96-2.34,7.48-3.4.24,3.58-4.29,5.12-6.66,7.09-1.63,1.36-3.23,3.2-4.72,4.73-.22.23-.61.36-.77.58-.54.69-.43,1.75.38,2.16l29.91.12c2.13.07,2.65,2.51.63,3.35l-21.4.03c-1.8.21-1.78,2.5,0,2.71h24.8c2.09.6,1.66,3.36-.49,3.38h-24.47c-1.23.04-1.58,1.77-.58,2.44l21.49.11c2.22.02,2.67,2.89.53,3.36-6.74.5-14.29-.63-20.93-.01-2.18.2-2.1,2.46-.66,2.7l17.5.05c1.63.33,1.79,2.46.42,3.21l-38.68.13c-3.29.24-6.17-2.82-8.94-3.04-.96-.08-3.98-.11-4.86.05-1.52.27-1.46,2.3-.34,2.62,1.34.39,4.12-.24,5.66.07.57.12,1.84,1.16,2.56,1.48,2.05.93,4.36,1.27,6.58,1.52h119.13c2.44-.34,4.92-.83,7.11-2,.47-.25,1.1-.91,1.53-1.01,1.56-.36,4.09.28,5.67-.07,1.37-.31,1.4-2.59-.97-2.68Z" fill="#fff"/><path d="M37.68,116.67c2.26-.16,4.71.68,6.88-.2,1.25-.51,2-1.74,2.99-2.58,5.01-4.27,10.33-7.35,16.71-9.19v9.03c0,.9,2.36,1.57,2.64-.2l.06-50.67h53.15v15.52h-16.87l.08-12c-.18-1.61-2.44-1.88-2.62.1-.36,4.03.29,8.58,0,12.67.16,1.43,1.52,1.84,2.78,1.94,5.37.42,11.28-.33,16.71,0,.96.14,2.62-.97,2.62-1.94v-16.28h33.74v50.87c0,.13.44.64.61.74,1,.57,2.09-.18,2.09-1.25v-8.52c5.53,1.74,10.39,4.15,14.93,7.77,1.16.92,3.66,3.62,4.72,4.05,1.06.43,5.39.51,6.58.32,1.54-.24,1.62-2.44.17-2.68-1.74-.29-4,.29-5.77-.14-2.97-2.86-6.21-5.5-9.78-7.6-3.39-2-7.19-3.13-10.82-4.62.01-3.4-.13-6.8-.13-10.21-.01-6.17.03-12.38,0-18.56-.01-3.2.4-6.95.11-10.1-.14-1.56-.98-2.69-2.62-2.78h-89.61c-1.49.02-2.6.74-2.78,2.28l-.02,39.38c-3.43,1.32-7,2.41-10.22,4.21-3.92,2.19-7.37,5.06-10.64,8.09-1.71.25-3.87-.21-5.52.05-1.44.23-1.42,2.07-.17,2.52Z" fill="#fff"/><path d="M137.98,76.09l-45.13,45.13c-.68.74-.85,1.69.1,2.27.96.59,1.64-.18,2.29-.8,15.15-14.65,29.52-30.18,44.69-44.82,1.26-1.42-.63-2.98-1.95-1.78Z" fill="#fff"/><path d="M130.85,93.92c-.25.06-.45.22-.63.39l-21.52,21.67c-.5,1.56.88,2.49,2.12,1.45l21.34-21.34c.95-.99.04-2.46-1.32-2.16Z" fill="#fff"/><path d="M89.98,88.32l-16.28,16.28c-1.04,1.35.45,3.02,1.89,1.94,4.96-4.98,10.01-9.9,14.9-14.92.83-.85,2.04-1.44,1.76-2.87-.18-.9-1.7-1-2.27-.43Z" fill="#fff"/></svg>