<?xml version="1.0" encoding="UTF-8"?><svg id="Layer_1" xmlns="http://www.w3.org/2000/svg" viewBox="0 0 1520 331.56"><path d="M956.84,142.22h-84.49v-36.98h84.49v36.98ZM874.04,140.53h81.11v-33.6h-81.11v33.6Z" fill="#7c9af2"/><path d="M905.82,135.03h-21.27c-.51-2.52-2.49-4.5-5.01-5.01v-12.58c2.52-.51,4.5-2.49,5.01-5.01h21.27c.74-.98,1.59-1.83,2.5-2.54h-31.32v27.67h31.32c-.91-.69-1.76-1.55-2.5-2.53Z" fill="#7c9af2"/><path d="M920.87,109.89c.92.71,1.76,1.55,2.5,2.54h21.27c.51,2.52,2.49,4.5,5.01,5.01v12.58c-2.51.51-4.5,2.49-5.01,5.01h-21.27c-.74.98-1.59,1.84-2.5,2.53h31.32v-27.67h-31.32Z" fill="#7c9af2"/><path d="M924.74,123.73c0-7.28-4.54-13.18-10.14-13.18s-10.15,5.9-10.15,13.18,4.54,13.18,10.15,13.18,10.14-5.9,10.14-13.18Z" fill="#7c9af2"/><path d="M1284.66,69.57c-12.39,0-22.43,10.04-22.43,22.42,0,18.04,22.43,48.32,22.43,48.32,0,0,22.42-30.28,22.42-48.32,0-12.38-10.05-22.42-22.42-22.42ZM1284.66,106.61c-8.07,0-14.62-6.54-14.62-14.61s6.54-14.62,14.62-14.62,14.61,6.55,14.61,14.62-6.54,14.61-14.61,14.61Z" fill="#7c9af2"/><circle cx="1485.3" cy="190.85" r="12.11" fill="#7c9af2"/><path d="M486.24,323.88c-8.59,0-15.57-6.99-15.57-15.57s6.99-15.57,15.57-15.57,15.57,6.99,15.57,15.57-6.99,15.57-15.57,15.57ZM486.24,296.2c-6.68,0-12.11,5.43-12.11,12.11s5.43,12.11,12.11,12.11,12.11-5.43,12.11-12.11-5.43-12.11-12.11-12.11Z" fill="#7c9af2"/><path d="M231.55,242.53c-5.5,0-9.96-4.47-9.96-9.96s4.47-9.96,9.96-9.96,9.96,4.47,9.96,9.96-4.47,9.96-9.96,9.96ZM231.55,226.06c-3.59,0-6.5,2.92-6.5,6.5s2.92,6.5,6.5,6.5,6.5-2.92,6.5-6.5-2.92-6.5-6.5-6.5Z" fill="#7c9af2"/><path d="M1510.04,153.86c-5.5,0-9.96-4.47-9.96-9.96s4.47-9.96,9.96-9.96,9.96,4.47,9.96,9.96-4.47,9.96-9.96,9.96ZM1510.04,137.39c-3.59,0-6.5,2.92-6.5,6.5s2.92,6.5,6.5,6.5,6.5-2.92,6.5-6.5-2.92-6.5-6.5-6.5Z" fill="#7c9af2"/><path d="M725.93,238.88c-6.47,0-11.73-5.26-11.73-11.73s5.26-11.73,11.73-11.73,11.73,5.26,11.73,11.73-5.26,11.73-11.73,11.73ZM725.93,218.89c-4.56,0-8.26,3.71-8.26,8.26s3.71,8.27,8.26,8.27,8.27-3.71,8.27-8.27-3.71-8.26-8.27-8.26Z" fill="#7c9af2"/><path d="M1008.69,134.58c-6.62,0-12-5.38-12-12s5.38-12,12-12,12,5.38,12,12-5.38,12-12,12ZM1008.69,114.04c-4.71,0-8.54,3.83-8.54,8.54s3.83,8.54,8.54,8.54,8.54-3.83,8.54-8.54-3.83-8.54-8.54-8.54Z" fill="#7c9af2"/><path d="M1373.75,178.72c-6.62,0-12-5.38-12-12s5.38-12,12-12,12,5.38,12,12-5.38,12-12,12ZM1373.75,158.18c-4.71,0-8.54,3.83-8.54,8.54s3.83,8.54,8.54,8.54,8.54-3.83,8.54-8.54-3.83-8.54-8.54-8.54Z" fill="#7c9af2"/><path d="M529.84,280.42c0,5.5-4.46,9.96-9.96,9.96s-9.96-4.46-9.96-9.96,4.46-9.96,9.96-9.96,9.96,4.46,9.96,9.96Z" fill="#7c9af2"/><circle cx="149.27" cy="154.55" r="6.92" fill="#7c9af2"/><path d="M310.54,125.62c-4.77,0-8.65-3.88-8.65-8.65s3.88-8.65,8.65-8.65,8.65,3.88,8.65,8.65-3.88,8.65-8.65,8.65ZM310.54,111.78c-2.86,0-5.19,2.33-5.19,5.19s2.33,5.19,5.19,5.19,5.19-2.33,5.19-5.19-2.33-5.19-5.19-5.19Z" fill="#7c9af2"/><circle cx="433.68" cy="131.4" r="6.92" fill="#7c9af2"/><circle cx="1119.05" cy="183.92" r="6.92" fill="#7c9af2"/><circle cx="282.79" cy="66.29" r="8.65" fill="#7c9af2"/><circle cx="953.03" cy="198.21" r="8.65" fill="#7c9af2"/><path d="M211.9,117.67c-16.29,0-29.55-13.25-29.55-29.55s13.26-29.55,29.55-29.55,29.56,13.26,29.56,29.55-13.26,29.55-29.56,29.55ZM211.9,61.73c-14.55,0-26.38,11.84-26.38,26.39s11.84,26.39,26.38,26.39,26.38-11.84,26.38-26.39-11.83-26.39-26.38-26.39Z" fill="#7c9af2"/><path d="M211.9,109.95c-12.03,0-21.82-9.79-21.82-21.83s9.79-21.83,21.82-21.83,21.82,9.8,21.82,21.83-9.79,21.83-21.82,21.83ZM211.9,68.59c-10.77,0-19.52,8.76-19.52,19.52s8.76,19.52,19.52,19.52,19.53-8.75,19.53-19.52-8.76-19.52-19.53-19.52Z" fill="#7c9af2"/><path d="M250.96,105.31c-.25-4.13-.46-9.82-.62-15.03,0-.62.68-27.76.73-28.87.05-1.26-1.16-3.53-2.81-.97-2.21,3.44-2.47,27.4-2.13,28.41.34,1.02,1.26,1.45,1.26,1.45h.41c-.17,5.21-.37,10.88-.62,15.01-.16,2.67-2.32,11.66,1.89,11.66s2.05-8.99,1.89-11.66Z" fill="#7c9af2"/><path d="M177.24,60.19c-.04-.43-.15-.78-.29-.78-.12,0-.23.35-.23.78l-.17,9.87c0,.42-.34.76-.76.77-.43,0-.77-.34-.78-.77l-.16-9.87c0-.43-.16-.78-.35-.78s-.32.35-.34.78l-.16,9.87c-.01.42-.34.76-.77.77-.42,0-.77-.34-.78-.77l-.16-9.87c-.01-.43-.16-.78-.34-.78-.19,0-.33.35-.34.78l-.16,9.87c-.01.42-.34.76-.77.77-.43,0-.78-.34-.79-.77l-.16-9.87c-.01-.43-.12-.78-.25-.78-.12,0-.25.35-.28.78-.34,5.25-.82,13.85-.39,14.66.48.9,1.54,2.03,2.59,2.77.33.22.65.42.95.55-.23,4.66-.54,18.83-1.03,26.98-.16,2.67-2.32,11.67,1.89,11.67s2.05-9,1.89-11.67c-.5-8.15-.81-22.32-1.03-26.98.3-.14.62-.32.95-.55,1.05-.74,2.11-1.86,2.58-2.77.44-.81-.04-9.41-.37-14.66Z" fill="#7c9af2"/><path d="M1316.24,245.5c0,4.37-3.49,7.86-7.89,7.86s-7.88-3.49-7.88-7.86,3.55-7.91,7.88-7.91,7.89,3.52,7.89,7.91Z" fill="#7c9af2"/><path d="M1339.33,200c-9.16-6.01-19.86-9.18-30.97-9.18s-21.8,3.19-30.97,9.21c-.82.54-1.05,1.64-.52,2.47l2.52,3.87c.26.4.67.68,1.13.78.47.1.95,0,1.35-.25,7.8-5.12,16.96-7.82,26.49-7.82s18.59,2.71,26.46,7.82c.3.2.64.29.97.29.58,0,1.16-.29,1.5-.81l2.55-3.9c.54-.82.31-1.93-.52-2.47Z" fill="#7c9af2"/><path d="M1323.04,225.17c-4.33-2.8-9.4-4.28-14.67-4.28s-10.29,1.5-14.65,4.33c-.82.54-1.06,1.65-.52,2.47l2.52,3.9c.26.4.67.69,1.13.78.12.03.25.04.37.04.34,0,.68-.1.98-.29,6.08-3.97,14.26-3.97,20.34,0,.4.26.88.35,1.35.25.47-.1.88-.38,1.14-.78l2.55-3.95c.26-.4.35-.88.25-1.35-.1-.46-.38-.87-.78-1.12Z" fill="#7c9af2"/><path d="M1331.19,212.58c-6.76-4.41-14.65-6.74-22.83-6.74s-16.05,2.35-22.83,6.77c-.82.54-1.06,1.65-.52,2.47l2.52,3.9c.26.4.67.68,1.14.78.12.03.25.03.37.03.35,0,.68-.1.98-.29,5.42-3.54,11.76-5.42,18.35-5.42s12.9,1.86,18.36,5.37c.82.53,1.93.3,2.46-.53l2.52-3.87c.54-.83.31-1.94-.52-2.48Z" fill="#7c9af2"/><polygon points="407.42 85.6 403.96 83.18 405.64 80.79 409.09 83.21 407.42 85.6" fill="#7c9af2"/><polygon points="409.91 83.79 404.81 80.22 407.6 76.25 412.69 79.81 409.91 83.79" fill="#7c9af2"/><rect x="385.66" y="73.3" width="6.11" height="6.37" fill="#7c9af2"/><rect x="379.82" y="68.32" width="17.8" height="4.97" fill="#7c9af2"/><rect x="388.06" y="80.54" width="1.3" height="5.01" fill="#7c9af2"/><rect x="375.55" y="83.89" width="1.31" height="5.02" transform="translate(7.22 199.72) rotate(-30.01)" fill="#7c9af2"/><polygon points="368.9 97.37 364.56 94.87 365.21 93.73 369.56 96.24 368.9 97.37" fill="#7c9af2"/><rect x="361.2" y="107.4" width="5.02" height="1.31" fill="#7c9af2"/><polygon points="365.21 122.38 364.56 121.24 368.9 118.74 369.56 119.87 365.21 122.38" fill="#7c9af2"/><rect x="373.7" y="129.06" width="5.02" height="1.31" transform="translate(76 390.92) rotate(-60.05)" fill="#7c9af2"/><rect x="388.06" y="130.56" width="1.3" height="5.01" fill="#7c9af2"/><polygon points="401.91 132.21 399.4 127.87 400.53 127.22 403.04 131.56 401.91 132.21" fill="#7c9af2"/><rect x="409.72" y="118.05" width="1.31" height="5.01" transform="translate(100.66 415.55) rotate(-59.98)" fill="#7c9af2"/><rect x="411.22" y="107.4" width="5.01" height="1.31" fill="#7c9af2"/><rect x="407.87" y="94.89" width="5.01" height="1.31" transform="translate(7.31 218.34) rotate(-30.05)" fill="#7c9af2"/><rect x="398.71" y="85.74" width="5.01" height="1.31" transform="translate(125.94 390.8) rotate(-60.03)" fill="#7c9af2"/><path d="M391.78,78.08c-1.01-.1-2.03-.16-3.06-.16s-2.05.05-3.06.16c-15.21,1.53-27.08,14.36-27.08,29.98,0,16.64,13.49,30.14,30.14,30.14s30.14-13.5,30.14-30.14c0-15.62-11.87-28.45-27.08-29.98ZM388.72,134.7c-14.69,0-26.64-11.96-26.64-26.64s11.95-26.65,26.64-26.65,26.65,11.95,26.65,26.65-11.96,26.64-26.65,26.64Z" fill="#7c9af2"/><path d="M388.72,89.96s-3.6,16.11-3.6,18.09,1.61,3.6,3.6,3.6,3.6-1.61,3.6-3.6-3.6-18.09-3.6-18.09ZM388.72,110.89c-1.57,0-2.84-1.27-2.84-2.84s1.27-2.84,2.84-2.84,2.84,1.27,2.84,2.84-1.27,2.84-2.84,2.84Z" fill="#7c9af2"/><path d="M640.56,196.67l17.24,12.64-17.24,12.64v-25.28Z" fill="#7c9af2"/><polygon points="657.79 209.31 640.56 221.95 640.56 196.67 657.79 209.31" fill="#7c9af2"/><path d="M695.93,221.95l-17.27-12.64,17.27-12.64v25.28Z" fill="#7c9af2"/><polygon points="695.93 196.67 695.93 221.95 678.66 209.31 695.93 196.67" fill="#7c9af2"/><path d="M662.12,212.46l6.12,4.48,6.12-4.48,16.61,12.17h-45.47l16.61-12.17Z" fill="#7c9af2"/><polygon points="690.98 224.63 645.5 224.63 662.12 212.46 668.24 216.94 674.37 212.46 690.98 224.63" fill="#7c9af2"/><path d="M668.24,210.62l-22.74-16.65h45.47l-22.74,16.65Z" fill="#7c9af2"/><polygon points="690.98 193.97 668.24 210.62 645.5 193.97 690.98 193.97" fill="#7c9af2"/><polygon points="1418.57 218.91 1413.38 218.91 1413.38 160.85 1482.38 121.01 1482.38 44.33 1415.97 6 1349.56 44.33 1349.56 125.11 1315.97 125.11 1315.97 119.92 1344.37 119.92 1344.37 41.34 1415.97 0 1487.57 41.34 1487.57 124.01 1418.57 163.85 1418.57 218.91" fill="#7c9af2"/><polygon points="74.2 301.29 69.01 301.29 69.01 249.12 0 209.28 0 126.61 70.91 85.68 161.04 85.68 161.04 90.87 72.3 90.87 5.19 129.61 5.2 206.29 74.2 246.12 74.2 301.29" fill="#7c9af2"/><polygon points="1199.25 243.81 1194.06 243.81 1194.06 119.92 1250.36 119.92 1250.36 125.11 1199.25 125.11 1199.25 243.81" fill="#7c9af2"/><rect x="1213.04" y="125.12" width="5.19" height="5.19" fill="#7c9af2"/><path d="M1218.23,224.68h-5.19v-9.44h5.19v9.44ZM1218.23,205.81h-5.19v-9.44h5.19v9.44ZM1218.23,186.93h-5.19v-9.44h5.19v9.44ZM1218.23,168.06h-5.19v-9.44h5.19v9.44ZM1218.23,149.19h-5.19v-9.44h5.19v9.44Z" fill="#7c9af2"/><rect x="1213.04" y="234.12" width="5.19" height="9.69" fill="#7c9af2"/><rect x="1146.31" y="326.36" width="5.19" height="5.19" fill="#7c9af2"/><rect x="1124.7" y="326.36" width="10.8" height="5.19" fill="#7c9af2"/><polygon points="1113.9 331.56 1106.11 331.56 1106.11 323.77 1111.3 323.77 1111.3 326.36 1113.9 326.36 1113.9 331.56" fill="#7c9af2"/><path d="M1111.3,313.43h-5.19v-10.33h5.19v10.33ZM1111.3,292.77h-5.19v-10.33h5.19v10.33ZM1111.3,272.1h-5.19v-10.33h5.19v10.33Z" fill="#7c9af2"/><polygon points="1111.3 251.43 1106.11 251.43 1106.11 248.83 1103.52 248.83 1103.52 243.64 1111.3 243.64 1111.3 251.43" fill="#7c9af2"/><rect x="1080.32" y="243.64" width="11.6" height="5.19" fill="#7c9af2"/><rect x="1063.53" y="243.64" width="5.19" height="5.19" fill="#7c9af2"/><polygon points="990.32 210.52 985.13 210.52 985.13 92.04 1065.43 92.04 1118.43 61.45 1173.32 93.14 1173.32 156.53 1119.73 187.47 1117.13 182.98 1168.13 153.53 1168.13 96.14 1118.43 67.44 1066.82 97.24 990.32 97.24 990.32 210.52" fill="#7c9af2"/><polygon points="917.19 293.85 912 293.85 912 223.97 969.68 223.97 969.68 229.16 917.19 229.16 917.19 293.85" fill="#7c9af2"/><polygon points="764.99 255.46 759.8 255.46 759.8 183.9 828.81 144.06 828.8 67.39 762.39 29.05 695.98 67.39 695.98 148.16 610.56 148.16 610.56 142.97 690.79 142.97 690.79 64.39 762.39 23.05 833.99 64.39 834 147.06 764.99 186.9 764.99 255.46" fill="#7c9af2"/><polygon points="508.96 232.29 482.23 232.29 482.23 227.1 503.77 227.1 503.77 142.56 545.73 142.56 545.73 147.75 508.96 147.75 508.96 232.29" fill="#7c9af2"/><rect x="277.34" y="212.81" width="5.19" height="5.19" fill="#7c9af2"/><rect x="277.34" y="229.87" width="5.19" height="11.87" fill="#7c9af2"/><polygon points="285.13 261.4 277.34 261.4 277.34 253.61 282.53 253.61 282.53 256.21 285.13 256.21 285.13 261.4" fill="#7c9af2"/><polygon points="305.95 264 300.76 264 300.76 261.4 298.17 261.4 298.17 256.21 305.95 256.21 305.95 264" fill="#7c9af2"/><path d="M305.95,301.86h-5.19v-9.47h5.19v9.47ZM305.95,282.93h-5.19v-9.47h5.19v9.47Z" fill="#7c9af2"/><polygon points="308.55 319.11 300.76 319.11 300.76 311.33 305.95 311.33 305.95 313.92 308.55 313.92 308.55 319.11" fill="#7c9af2"/><rect x="316.8" y="313.92" width="8.25" height="5.19" fill="#7c9af2"/><rect x="333.3" y="313.92" width="8.65" height="5.19" fill="#7c9af2"/><rect x="51.98" y="237.82" width="5.19" height="7.78" fill="#7c9af2"/><path d="M57.17,284.31h-5.19v-9.68h5.19v9.68ZM57.17,264.95h-5.19v-9.68h5.19v9.68Z" fill="#7c9af2"/><rect x="51.98" y="293.98" width="5.19" height="7.79" fill="#7c9af2"/><rect x="577.11" y="168.76" width="5.19" height="5.19" fill="#7c9af2"/><rect x="577.11" y="183.17" width="5.19" height="9.22" fill="#7c9af2"/><polygon points="584.9 209.41 577.11 209.41 577.11 201.62 582.3 201.62 582.3 204.21 584.9 204.21 584.9 209.41" fill="#7c9af2"/><path d="M622.96,209.41h-9.51v-5.19h9.51v5.19ZM603.93,209.41h-9.52v-5.19h9.52v5.19Z" fill="#7c9af2"/><rect x="632.47" y="204.21" width="5.19" height="5.19" fill="#7c9af2"/><rect x="667.27" y="227.79" width="5.19" height="5.19" fill="#7c9af2"/><rect x="667.27" y="239.12" width="5.19" height="6.13" fill="#7c9af2"/><rect x="667.27" y="251.38" width="5.19" height="5.19" fill="#7c9af2"/><polygon points="253.68 193.44 209.3 193.44 209.3 131.81 214.49 131.81 214.49 188.25 253.68 188.25 253.68 193.44" fill="#7c9af2"/><polygon points="346.36 248.17 341.17 248.17 341.17 75.8 388.72 48.35 436.27 75.8 436.27 129.21 431.08 129.21 431.08 78.8 388.72 54.35 346.36 78.8 346.36 248.17" fill="#7c9af2"/><rect x="831.39" y="63.29" width="5.19" height="5.19" fill="#7c9af2"/><path d="M1103.59,68.48h-10.27v-5.19h10.27v5.19ZM1083.05,68.48h-10.27v-5.19h10.27v5.19ZM1062.51,68.48h-10.27v-5.19h10.27v5.19ZM1041.97,68.48h-10.27v-5.19h10.27v5.19ZM1021.44,68.48h-10.27v-5.19h10.27v5.19ZM1000.9,68.48h-10.27v-5.19h10.27v5.19ZM980.36,68.48h-10.27v-5.19h10.27v5.19ZM959.82,68.48h-10.27v-5.19h10.27v5.19ZM939.28,68.48h-10.27v-5.19h10.27v5.19ZM918.74,68.48h-10.27v-5.19h10.27v5.19ZM898.2,68.48h-10.27v-5.19h10.27v5.19ZM877.66,68.48h-10.27v-5.19h10.27v5.19ZM857.13,68.48h-10.27v-5.19h10.27v5.19Z" fill="#7c9af2"/><rect x="1113.86" y="63.29" width="5.19" height="5.19" fill="#7c9af2"/><path d="M161.04,70.92h-12.81v-5.19h12.81v5.19ZM137.84,70.92h-10.38v-5.19h10.38v5.19ZM117.08,70.92h-10.38v-5.19h10.38v5.19ZM96.32,70.92h-10.38v-5.19h10.38v5.19ZM75.55,70.92h-10.38v-5.19h10.38v5.19ZM54.79,70.92h-10.38v-5.19h10.38v5.19ZM34.03,70.92h-10.38v-5.19h10.38v5.19ZM13.26,70.92H0v-5.19h13.26v5.19Z" fill="#7c9af2"/><path d="M485.59,79.9h-10.38v-5.19h10.38v5.19ZM464.82,79.9h-10.38v-5.19h10.38v5.19ZM444.06,79.9h-10.38v-5.19h10.38v5.19Z" fill="#7c9af2"/><path d="M777.44,253.13h-5.19v-10.38h5.19v10.38ZM777.44,232.37h-5.19v-10.38h5.19v10.38ZM777.44,211.61h-5.19v-10.38h5.19v10.38ZM777.44,190.84h-5.19v-10.38h5.19v10.38Z" fill="#7c9af2"/></svg>