<?xml version="1.0" encoding="UTF-8"?><svg id="Layer_1" xmlns="http://www.w3.org/2000/svg" viewBox="0 0 223.45 223.44"><path d="M92.89,184.95c-1.82-.48-3.6-1.02-5.16-1.56-.28-.1-.56-.2-.82-.2-3.2-.12-5.94-2.48-5.94-6.82s2.64-7.1,6.28-7.1,6.04,2.84,6.04,6.82c0,3.46-1.6,5.68-3.84,6.46v.08c1.34.34,2.8.66,3.94.86l-.5,1.46ZM91.45,176.17c0-2.7-1.4-5.48-4.26-5.48s-4.38,2.72-4.36,5.64c-.02,2.86,1.56,5.44,4.28,5.44s4.34-2.52,4.34-5.6Z" fill="#fff"/><path d="M103.65,180.33c0,1,.02,1.88.08,2.64h-1.56l-.1-1.58h-.04c-.46.78-1.48,1.8-3.2,1.8-1.52,0-3.34-.84-3.34-4.24v-5.66h1.76v5.36c0,1.84.56,3.08,2.16,3.08,1.18,0,2-.82,2.32-1.6.1-.26.16-.58.16-.9v-5.94h1.76v7.04Z" fill="#fff"/><path d="M108.53,170.57c.02.6-.42,1.08-1.12,1.08-.62,0-1.06-.48-1.06-1.08s.46-1.1,1.1-1.1,1.08.48,1.08,1.1ZM106.57,182.97v-9.68h1.76v9.68h-1.76Z" fill="#fff"/><path d="M118.15,182.61c-.46.24-1.48.56-2.78.56-2.92,0-4.82-1.98-4.82-4.94s2.04-5.14,5.2-5.14c1.04,0,1.96.26,2.44.5l-.4,1.36c-.42-.24-1.08-.46-2.04-.46-2.22,0-3.42,1.64-3.42,3.66,0,2.24,1.44,3.62,3.36,3.62,1,0,1.66-.26,2.16-.48l.3,1.32Z" fill="#fff"/><path d="M121.95,177.73h.04c.24-.34.58-.76.86-1.1l2.84-3.34h2.12l-3.74,3.98,4.26,5.7h-2.14l-3.34-4.64-.9,1v3.64h-1.74v-14.2h1.74v8.96Z" fill="#fff"/><path d="M129.93,168.76h1.76v14.2h-1.76v-14.2Z" fill="#fff"/><path d="M135.29,173.29l2.12,5.72c.22.64.46,1.4.62,1.98h.04c.18-.58.38-1.32.62-2.02l1.92-5.68h1.86l-2.64,6.9c-1.26,3.32-2.12,5.02-3.32,6.06-.86.76-1.72,1.06-2.16,1.14l-.44-1.48c.44-.14,1.02-.42,1.54-.86.48-.38,1.08-1.06,1.48-1.96.08-.18.14-.32.14-.42s-.04-.24-.12-.46l-3.58-8.92h1.92Z" fill="#fff"/><path d="M215.35,92.11L131.34,8.09c-5.22-5.22-12.19-8.09-19.62-8.09s-14.4,2.87-19.61,8.09L8.09,92.11c-5.22,5.22-8.09,12.18-8.09,19.62s2.87,14.4,8.09,19.62l84.02,84.01c5.22,5.22,12.18,8.09,19.61,8.09s14.4-2.87,19.62-8.09l84.01-84.01c5.22-5.22,8.09-12.19,8.09-19.62s-2.87-14.4-8.09-19.62ZM213.94,129.93l-84.01,84.01c-4.84,4.84-11.31,7.51-18.2,7.51s-13.36-2.67-18.2-7.51L9.51,129.93c-4.84-4.84-7.51-11.31-7.51-18.2s2.67-13.36,7.51-18.2L93.52,9.51c4.84-4.84,11.3-7.51,18.2-7.51s13.36,2.67,18.2,7.51l84.01,84.01c4.84,4.84,7.51,11.3,7.51,18.2s-2.67,13.36-7.51,18.2Z" fill="#7c9af2"/><path d="M138.85,137.56h-43.92c.26.56.5,1.14.69,1.74h49.71c.19-.6.43-1.18.69-1.74h-7.19Z" fill="#fff"/><path d="M138.85,140.13h-42.99c.03.13.07.27.1.41.25,1.08.39,2.2.39,3.35h48.26c0-1.21.16-2.38.43-3.51.02-.08.04-.17.06-.25h-6.26Z" fill="#fff"/><path d="M57.72,139.3h11.13c.19-.6.43-1.18.69-1.74h-11.82v1.74Z" fill="#fff"/><path d="M57.72,140.53v3.35h10.4c0-1.16.15-2.27.39-3.35.03-.14.07-.27.1-.41h-10.89v.41Z" fill="#fff"/><path d="M172.35,140.13c.04.13.07.27.1.41.25,1.08.39,2.2.39,3.35h10.41v-3.76h-10.91Z" fill="#fff"/><path d="M171.42,137.56c.26.56.5,1.14.69,1.74h11.14v-1.74h-11.83Z" fill="#fff"/><path d="M169.77,140.13c-.09-.28-.18-.56-.29-.83-.24-.61-.53-1.19-.86-1.74-.73-1.23-1.67-2.31-2.76-3.2-1.97-1.59-4.43-2.54-7.12-2.54s-5.16.95-7.13,2.54c-1.1.89-2.03,1.97-2.77,3.2-.33.55-.62,1.13-.86,1.74-.11.27-.21.54-.29.83-.04.13-.08.27-.12.41-.29,1.06-.46,2.19-.46,3.35,0,6.67,5.19,12.06,11.63,12.06s11.61-5.39,11.61-12.06c0-1.17-.17-2.29-.46-3.35-.04-.14-.07-.27-.12-.41ZM158.73,150.72c-3.64,0-6.58-3.06-6.58-6.84,0-1.22.31-2.36.85-3.35.08-.14.16-.27.24-.41.19-.29.4-.57.63-.83.65-.75,1.46-1.35,2.38-1.74.77-.33,1.61-.51,2.5-.51s1.73.18,2.5.51c.92.39,1.72.99,2.38,1.74.22.26.43.53.62.83.08.13.16.27.24.41.54.99.85,2.13.85,3.35,0,3.78-2.94,6.84-6.58,6.84Z" fill="#fff"/><path d="M93.28,140.13c-.09-.28-.18-.56-.29-.83-.24-.61-.53-1.19-.86-1.74-.73-1.23-1.67-2.31-2.76-3.2-1.97-1.59-4.43-2.54-7.12-2.54s-5.16.95-7.13,2.54c-1.1.89-2.03,1.97-2.76,3.2-.33.55-.62,1.13-.86,1.74-.11.27-.2.54-.29.83-.04.13-.08.27-.12.41-.29,1.06-.46,2.19-.46,3.35,0,6.67,5.19,12.06,11.63,12.06s11.62-5.39,11.62-12.06c0-1.17-.17-2.29-.46-3.35-.04-.14-.08-.27-.12-.41ZM82.24,150.72c-3.64,0-6.59-3.06-6.59-6.84,0-1.22.31-2.36.85-3.35.08-.14.16-.27.24-.41.19-.29.4-.57.62-.83.65-.75,1.46-1.35,2.38-1.74.77-.33,1.61-.51,2.5-.51s1.73.18,2.5.51c.92.39,1.73.99,2.38,1.74.22.26.44.53.62.83.08.13.16.27.24.41.54.99.85,2.13.85,3.35,0,3.78-2.94,6.84-6.59,6.84Z" fill="#fff"/><path d="M95.86,83.36c-10.13,0-18.33,8.21-18.33,18.33s8.21,18.34,18.33,18.34,18.34-8.21,18.34-18.34-8.21-18.33-18.34-18.33ZM95.15,85.28c0-.37.35-.66.78-.66s.78.29.78.66v3.11c0,.36-.35.66-.78.66s-.78-.3-.78-.66v-3.11ZM82.55,102.4h-3.11c-.37,0-.66-.35-.66-.78s.3-.78.66-.78h3.11c.37,0,.66.35.66.78s-.3.78-.66.78ZM86.96,111.6l-2.2,2.2c-.26.26-.71.22-1.02-.08-.3-.3-.34-.76-.08-1.02l2.2-2.2c.26-.26.71-.22,1.02.08.3.3.34.76.08,1.02ZM86.97,92.71c-.3.3-.76.34-1.02.08l-2.2-2.2c-.26-.26-.22-.71.08-1.02.3-.3.76-.34,1.02-.08l2.2,2.2c.26.26.22.71-.08,1.02ZM96.57,118.11c0,.36-.35.66-.77.66s-.78-.3-.78-.66v-3.11c0-.36.35-.66.78-.66s.77.3.77.66v3.11ZM98.41,107.87c-.51.21-1.04.09-1.18-.26l-1.34-3.33s-.06.01-.09.01c-1.47,0-2.67-1.2-2.67-2.67,0-.79.35-1.49.9-1.98l-4.05-10.08c-.14-.35.16-.8.68-1,.51-.21,1.04-.09,1.18.26l4.08,10.15c1.42.06,2.55,1.22,2.55,2.66,0,.72-.28,1.36-.74,1.84l1.37,3.4c.14.35-.16.8-.68,1ZM107.88,113.81c-.3.31-.76.34-1.02.08l-2.2-2.2c-.26-.26-.22-.71.08-1.02.3-.31.76-.34,1.02-.08l2.2,2.2c.26.26.22.71-.08,1.02ZM108.06,90.68l-2.2,2.2c-.26.26-.71.22-1.02-.08-.3-.3-.34-.76-.08-1.02l2.2-2.2c.26-.26.71-.22,1.02.08.3.3.34.76.08,1.02ZM112.27,100.99c.37,0,.66.35.66.78s-.29.78-.66.78h-3.11c-.37,0-.66-.35-.66-.78s.3-.78.66-.78h3.11Z" fill="#fff"/><path d="M98.13,77.46c.5-.54.81-1.25.81-2.04,0-1.67-1.35-3.02-3.02-3.02s-3.01,1.35-3.01,3.02c0,.79.31,1.5.81,2.04h4.41Z" fill="#fff"/><path d="M175.68,114.81h-1.74c-1.07-3.72-2.66-8.75-4.89-14.54-4.73-12.29-12.3-12.29-12.3-12.29h-17.9v-22.36H57.72v68.73h13.87c1.41-1.67,3.17-3.02,5.18-3.89,1.68-.73,3.53-1.14,5.47-1.14s3.78.41,5.47,1.14c2.01.87,3.77,2.22,5.18,3.89h55.19c1.41-1.67,3.17-3.02,5.18-3.89,1.68-.73,3.53-1.14,5.47-1.14s3.78.41,5.46,1.14c2.01.87,3.77,2.22,5.18,3.89h13.88v-10.6c0-4.95-3.38-8.95-7.58-8.95ZM95.86,123.8c-12.21,0-22.11-9.9-22.11-22.11,0-6.8,3.07-12.87,7.89-16.93l-1.54-1.94-.81.65c-.77.61-1.89.49-2.51-.28-.61-.77-.49-1.89.28-2.51l3.84-3.07c.77-.62,1.9-.49,2.51.28.61.77.49,1.9-.28,2.51l-.94.75,1.61,2.01c2.28-1.49,4.86-2.57,7.62-3.13-.01-.09-.03-.18-.03-.27,0-.83.45-1.56,1.11-1.96-.47-.68-.75-1.49-.75-2.38,0-2.3,1.86-4.17,4.16-4.17s4.16,1.86,4.16,4.17c0,.89-.28,1.7-.75,2.38.66.4,1.11,1.12,1.11,1.96,0,.1-.02.2-.03.3,2.75.58,5.31,1.66,7.58,3.16l1.65-2.07-.93-.75c-.77-.62-.89-1.74-.28-2.51.62-.77,1.74-.9,2.51-.28l3.85,3.07c.77.62.9,1.74.28,2.51-.62.77-1.74.9-2.51.28l-.81-.65-1.6,2.01c4.78,4.06,7.81,10.1,7.81,16.86,0,12.21-9.9,22.11-22.11,22.11ZM146.42,114.81h-1.78v-20.12h12.67c-.43.04,2.82,1.21,5.65,8.57,1.64,4.22,2.97,8.13,4.08,11.55h-20.62Z" fill="#fff"/></svg>