<?xml version="1.0" encoding="UTF-8"?><svg id="Layer_1" xmlns="http://www.w3.org/2000/svg" viewBox="0 0 223.47 223.46"><path d="M86.98,180.98c.78.48,1.92.88,3.12.88,1.78,0,2.82-.94,2.82-2.3,0-1.26-.72-1.98-2.54-2.68-2.2-.78-3.56-1.92-3.56-3.82,0-2.1,1.74-3.66,4.36-3.66,1.38,0,2.38.32,2.98.66l-.48,1.42c-.44-.24-1.34-.64-2.56-.64-1.84,0-2.54,1.1-2.54,2.02,0,1.26.82,1.88,2.68,2.6,2.28.88,3.44,1.98,3.44,3.96,0,2.08-1.54,3.88-4.72,3.88-1.3,0-2.72-.38-3.44-.86l.44-1.46Z" fill="#fff"/><path d="M102.44,183.1l-.14-1.22h-.06c-.54.76-1.58,1.44-2.96,1.44-1.96,0-2.96-1.38-2.96-2.78,0-2.34,2.08-3.62,5.82-3.6v-.2c0-.8-.22-2.24-2.2-2.24-.9,0-1.84.28-2.52.72l-.4-1.16c.8-.52,1.96-.86,3.18-.86,2.96,0,3.68,2.02,3.68,3.96v3.62c0,.84.04,1.66.16,2.32h-1.6ZM102.18,178.16c-1.92-.04-4.1.3-4.1,2.18,0,1.14.76,1.68,1.66,1.68,1.26,0,2.06-.8,2.34-1.62.06-.18.1-.38.1-.56v-1.68Z" fill="#fff"/><path d="M106.9,183.1v-8.34h-1.36v-1.34h1.36v-.46c0-1.36.3-2.6,1.12-3.38.66-.64,1.54-.9,2.36-.9.62,0,1.16.14,1.5.28l-.24,1.36c-.26-.12-.62-.22-1.12-.22-1.5,0-1.88,1.32-1.88,2.8v.52h2.34v1.34h-2.34v8.34h-1.74Z" fill="#fff"/><path d="M113.28,178.58c.04,2.38,1.56,3.36,3.32,3.36,1.26,0,2.02-.22,2.68-.5l.3,1.26c-.62.28-1.68.6-3.22.6-2.98,0-4.76-1.96-4.76-4.88s1.72-5.22,4.54-5.22c3.16,0,4,2.78,4,4.56,0,.36-.04.64-.06.82h-6.8ZM118.44,177.32c.02-1.12-.46-2.86-2.44-2.86-1.78,0-2.56,1.64-2.7,2.86h5.14Z" fill="#fff"/><path d="M124.44,170.64v2.78h2.52v1.34h-2.52v5.22c0,1.2.34,1.88,1.32,1.88.46,0,.8-.06,1.02-.12l.08,1.32c-.34.14-.88.24-1.56.24-.82,0-1.48-.26-1.9-.74-.5-.52-.68-1.38-.68-2.52v-5.28h-1.5v-1.34h1.5v-2.32l1.72-.46Z" fill="#fff"/><path d="M129.76,173.42l2.12,5.72c.22.64.46,1.4.62,1.98h.04c.18-.58.38-1.32.62-2.02l1.92-5.68h1.86l-2.64,6.9c-1.26,3.32-2.12,5.02-3.32,6.06-.86.76-1.72,1.06-2.16,1.14l-.44-1.48c.44-.14,1.02-.42,1.54-.86.48-.38,1.08-1.06,1.48-1.96.08-.18.14-.32.14-.42s-.04-.24-.12-.46l-3.58-8.92h1.92Z" fill="#fff"/><path d="M215.37,92.13L131.36,8.11c-10.82-10.82-28.42-10.82-39.23,0L8.11,92.13c-10.82,10.81-10.82,28.42,0,39.23l84.01,84.01c5.22,5.22,12.18,8.09,19.62,8.09s14.4-2.87,19.62-8.09l84.01-84.01c5.22-5.22,8.1-12.19,8.1-19.62s-2.88-14.4-8.1-19.62ZM213.96,129.94l-84.01,84.01c-4.84,4.84-11.31,7.51-18.2,7.51s-13.36-2.67-18.2-7.51L9.53,129.94c-10.04-10.04-10.04-26.37,0-36.41L93.54,9.53c5.02-5.02,11.61-7.53,18.2-7.53s13.18,2.51,18.2,7.53l84.01,84.01c4.84,4.84,7.51,11.3,7.51,18.2s-2.67,13.36-7.51,18.2Z" fill="#7c9af2"/><path d="M155.8,76.09l-13.85-14.44h-60.39l-13.86,14.44h-.1v79.83h88.29v-79.83h-.09ZM153.51,110.43h-83.54v-31.96h33.67v7.41h16.2v-7.41h33.67v31.96ZM153.51,153.54h-83.54v-31.85h83.54v31.85Z" fill="#fff"/><path d="M134.38,98.52c-.35.38-.86.78-1.17.76-.21-.02-.49-.33-.73-.84l-1.87.91c.75,1.54,1.74,1.94,2.43,2,.07,0,.14.01.21.01,1.63,0,2.88-1.66,3.02-1.85l.2-.27v-5.6h4.67c0-3.22-2.61-5.84-5.83-5.84s-5.84,2.61-5.84,5.84h4.92v4.88Z" fill="#fff"/><path d="M144.95,94.2v5.49c-1.94.18-2.43.89-2.43,1.52h6.93c0-.63-.48-1.34-2.43-1.52v-5.48c2.79-.59,3.46-3.6,3.46-6.26h-8.99c0,2.66.68,5.67,3.46,6.26Z" fill="#fff"/><path d="M92.28,134.89h-15.86v15.47h15.86v-15.47ZM78.89,149.06h-1.14v-12.86h1.14v12.86ZM81.72,149.06h-1.67v-12.86h1.67v12.86ZM83.71,149.06h-1.14v-12.86h1.14v12.86ZM87.12,149.06h-1.66v-12.86h1.66v12.86ZM89.04,149.06h-1.14v-12.86h1.14v12.86ZM91.12,149.06h-1.15v-12.86h1.15v12.86Z" fill="#fff"/></svg>