<?xml version="1.0" encoding="UTF-8"?><svg id="Layer_1" xmlns="http://www.w3.org/2000/svg" viewBox="0 0 280 149.14"><path d="M32.59,106.77c0,4.44-1.38,8.1-3.95,10.67-2.27,2.17-5.23,3.46-8.49,3.46-5.93,0-12.35-4.35-12.35-13.93v-34.37c-1.48.39-3.06.99-4.44,1.58v32.79c0,15.51,8.49,18.37,16.79,18.37s8.59-1.68,11.65-4.74c3.46-3.36,5.23-8.2,5.23-13.83v-29.14c-1.48-.99-2.96-1.88-4.44-2.67v31.8Z" fill="#fff"/><path d="M90.47,144.69l.1-.1c-5.63,0-11.75-3.75-11.75-12.15v-57.98h-4.44v13.33c-.2-.2-.4-.4-.69-.69-2.96-2.77-6.91-4.25-11.26-4.25s-8.79,1.68-11.95,4.94v-3.46h-4.44v40h4.44v-24.59c0-8.49,6.22-12.35,11.95-12.35s6.02,1.09,8.2,3.06c2.37,2.27,3.65,5.43,3.65,9.38v32.69c0,10.86,8.2,16.59,16.2,16.59s16.2-5.73,16.2-16.59h-4.44c0,8.3-6.12,12.15-11.75,12.15Z" fill="#fff"/><path d="M167.21,84.44h-4.44v40h4.44v-24.59c0-7.21,4.44-11.16,9.38-12.15v-4.54c-3.46.49-6.81,2.17-9.38,4.74v-3.46Z" fill="#fff"/><path d="M90.47,82.86v.1c-1.48,0-2.96.2-4.35.59v4.64c1.38-.49,2.86-.79,4.35-.79,5.73,0,11.95,3.85,11.95,12.35v24.59h4.44v-24.59c0-11.06-8.3-16.89-16.4-16.89Z" fill="#fff"/><path d="M135.31,83.95c-6.52,0-12.25,3.06-16.1,7.8v-16.1c-1.58.89-3.06,1.88-4.44,2.96v45.83h4.44v-7.21c3.75,4.74,9.58,7.8,16.1,7.8,11.36,0,20.54-9.19,20.54-20.54s-9.19-20.54-20.54-20.54ZM135.31,120.49c-8.89,0-16.1-7.21-16.1-16.1s7.21-16.1,16.1-16.1,16.1,7.21,16.1,16.1-7.21,16.1-16.1,16.1Z" fill="#fff"/><path d="M275.56,83.65v8c-3.75-4.74-9.58-7.8-16.1-7.8-11.36,0-20.54,9.19-20.54,20.54s9.19,20.54,20.54,20.54,12.25-3.06,16.1-7.8v7.21h4.44v-40.69h-4.44ZM259.56,120.49c-8.89,0-16.1-7.21-16.1-16.1s7.21-16.1,16.1-16.1,16.1,7.21,16.1,16.1-7.21,16.1-16.1,16.1Z" fill="#fff"/><rect x="227.65" y="70.42" width="4.44" height="54.02" fill="#fff"/><path d="M200.2,84.05v-.1c-11.36,0-20.54,9.19-20.54,20.54s9.19,20.54,20.54,20.54,16.2-5.43,19.16-13.14h-4.94c-2.67,5.14-8.1,8.69-14.22,8.69s-15.41-6.62-16-14.91h36.54v-1.09c0-11.36-9.19-20.54-20.54-20.54ZM184.49,101.04c1.58-7.21,8-12.64,15.7-12.64s14.12,5.43,15.7,12.64h-31.41Z" fill="#fff"/><path d="M152.99,73.48c-.56-.28-1.12-.53-1.69-.78.5.25,1,.51,1.49.78h.2Z"/><path d="M151.3,72.7c-6.61-3.26-14.37-4.46-21.62-3.27-7.8,1.19-15.01,5.14-20.54,10.67.3-6.02-.49-12.05-1.78-17.98-3.26-14.72-10.47-28.54-20.35-39.9-.89-.99-2.27-2.57-3.16-3.56-1.28-1.38-2.67-2.77-4.05-4.05,34.07,1.19,64.4,25.68,72.99,58.77-7.51-33.98-38.42-59.36-73.19-60.54l-1.38-12.05v-.79h-3.65v.79l-1.38,12.05c-25.58.89-50.17,15.21-63.51,37.04-4.44,7.31-7.8,15.31-9.68,23.6,2.17-8.2,5.73-16.1,10.37-23.21C24.1,29.33,48,15.6,73.09,14.72c-1.38,1.28-2.77,2.67-4.05,4.05-.4.4-1.28,1.28-1.58,1.78-10.67,11.75-18.47,26.17-21.93,41.68-1.28,5.83-2.07,11.75-1.78,17.68-11.46-11.46-29.43-14.32-43.65-6.22,14.42-7.21,32.2-3.95,43.16,8l.49.49.59-.4c19.26-12.44,45.43-12.44,64.59,0l.59.4.49-.49c3.95-4.25,8.89-7.6,14.42-9.68,8.6-3.24,18.42-2.92,26.85.7ZM43.95,80.1v-.1c.49-15.31,5.53-30.42,13.14-43.65,4.54-7.8,10.07-15.01,16.2-21.53h1.68v-.79s1.19-10.57,1.38-11.95h.2l1.38,11.95v.79h1.78c6.12,6.62,11.75,13.73,16.2,21.53,7.6,13.23,12.74,28.35,13.14,43.75-19.36-12.74-45.73-12.74-65.09,0Z" fill="#7c9af2"/></svg>