<?xml version="1.0" encoding="UTF-8"?><svg id="Layer_1" xmlns="http://www.w3.org/2000/svg" viewBox="0 0 800 506.31"><path d="M440.79,160.91c-33.24-4.71-64.75-17.71-91.93-37.41-40.61-29.43-125.59-79.5-206.65-54.56C30.39,103.35,29.89,202.87,59.01,256.93c29.12,54.06,235.66,212.38,503.41,187.19,239.6-22.54,286.29-280.57,158.5-327.26-110.83-40.5-148.64,62.69-280.14,44.05Z" fill="#a7c4fc"/><path d="M742.44,156.45c-.01-72.2-57.9-151.32-129.94-156.1-1.27-.08-2.54-.16-3.83-.22-103.28-5-111.15,125.82-204.59,140.58-93.44,14.75-164.81-59.73-276.62-11.13C27.04,173.23-.16,418.49,294.89,428.32c236.07,7.87,447.58-56.45,447.55-271.87Z" fill="#7c9af2"/><path d="M742.44,156.45c-.01-72.2-57.9-151.32-129.94-156.1-1.27-.08-2.54-.16-3.83-.22-103.28-5-111.15,125.82-204.59,140.58-93.44,14.75-164.81-59.73-276.62-11.13C27.04,173.23-.16,418.49,294.89,428.32c236.07,7.87,447.58-56.45,447.55-271.87Z" fill="#7c9af2"/><path d="M44.37,252.29c0,9.68-7.85,17.52-17.52,17.52s-17.52-7.85-17.52-17.52,7.85-17.52,17.52-17.52,17.52,7.85,17.52,17.52Z" fill="#7c9af2"/><circle cx="300.02" cy="51.66" r="15.07" transform="translate(-4.06 36.93) rotate(-7)" fill="#7c9af2"/><circle cx="707.15" cy="422.42" r="15.07" transform="translate(-107.45 300.27) rotate(-22.32)" fill="#7c9af2"/><circle cx="755.05" cy="91.68" r="9.08" transform="translate(11.09 249.89) rotate(-18.93)" fill="#7c9af2"/><path d="M277.89,25.57c0,5.02-4.07,9.08-9.08,9.08s-9.08-4.07-9.08-9.08,4.07-9.08,9.08-9.08,9.08,4.07,9.08,9.08Z" fill="#7c9af2"/><path d="M18.41,212.55c0,5.02-4.07,9.08-9.08,9.08S.24,217.56.24,212.55s4.07-9.08,9.08-9.08,9.08,4.07,9.08,9.08Z" fill="#7c9af2"/><path d="M755.05,399.29c0,5.02-4.07,9.08-9.08,9.08s-9.08-4.07-9.08-9.08,4.07-9.08,9.08-9.08,9.08,4.07,9.08,9.08Z" fill="#7c9af2"/><ellipse cx="401.08" cy="495.03" rx="398.92" ry="11.27" fill="#7c9af2"/><path d="M206.17,95.1s4.39,9.46,12.19,9.19c6.29-.22,10.27-7.43,11.57-10.2.31-.66.47-1.07.47-1.07,0,0,.45-.08,1.1-.27,1.53-.45,4.18-1.53,4.72-3.72.77-3.12-5.29-3.41-5.29-3.41,0,0,2.14-3.34.91-4.98-1.21-1.62-5.13-.93-5.13-.93,0,0,3.36-3.82,1.34-5.76-3.05-2.92-6.22,2.12-6.5,2.42.18-.38,7.95-16.53,4.76-16.71-2.78-.15-10.15,13.03-12.11,16.63-.31.57-.48.9-.48.9,0,0-.2-.08-.54-.19-1.63-.54-6.54-1.82-8.6,1.18-2.49,3.62,1.61,16.91,1.61,16.91Z" fill="#ff8c62"/><path d="M224.57,88.33c-1.04,1.09-1.85,2.39-1.93,3.5-.05.71.2,1.3.72,1.7.36.28.89.46,1.51.57,1.55.28,3.67.14,5.07-.01.31-.66.47-1.07.47-1.07,0,0,.45-.08,1.11-.27-.1-.04-.22-.06-.33-.04-2.21.35-6.1.62-7.09-.14-.13-.1-.27-.27-.25-.66.09-1.22,1.76-3.27,3.44-4.21.27-.15.38-.47.26-.76-.12-.29-.43-.43-.73-.34-1.43.43-5.43,1.28-6.87.18-.21-.16-.2-.28-.19-.35.02-.29.27-.65.65-1.05.78-.8,2.09-1.7,3.07-2.25.11-.06.2-.15.25-.26.09-.17.09-.38-.01-.55-.16-.29-.53-.4-.82-.24-.44.24-1.98,1.13-3.1,2.21-.41.39-.76.82-.98,1.24-.14.27-.24.54-.26.81-.03.38.07.93.66,1.39,1.28.97,3.56.88,5.37.59Z" fill="#fd7166"/><path d="M217.63,80.45c.2.15.29.4.23.63-.21.76-.27,1.45-.13,1.93.11.38.31.49.46.54.26.08.62.07,1.05,0,1.08-.19,2.59-.79,3.93-1.42-.05.11-.13.2-.25.26-.98.54-2.29,1.45-3.07,2.25-.14.03-.28.06-.41.08-.43.07-.84.1-1.19.07-.16-.02-.3-.04-.43-.09-.63-.2-1.06-.67-1.26-1.35-.21-.72-.13-1.64.12-2.59.11-.4.58-.57.92-.32,0,0,.01,0,.02.01Z" fill="#fd7166"/><path d="M207.24,83.87c.14.07,2.26,1.08,4.52,1.49,1.25.23,2.55.27,3.58-.14.85-.34,1.44-.93,1.77-1.77,1.15-2.98-1.32-5.76-2.9-7.16-.31.57-.48.9-.48.9,0,0-.2-.08-.54-.19,1.34,1.14,3.74,3.6,2.81,6.01-.2.52-.55.87-1.08,1.08-1.98.79-5.82-.69-7.13-1.32-.3-.15-.66-.02-.8.28-.15.3-.02.66.28.8Z" fill="#fd7166"/><path d="M215.49,99.05c.2.04.42-.03.57-.2.22-.25.19-.63-.07-.85-1.36-1.16-2.07-2.54-2.1-4.09-.07-3.98,4.17-7.94,4.22-7.98.24-.22.26-.61.04-.85-.23-.24-.61-.26-.85-.04-.19.18-4.69,4.37-4.6,8.88.04,1.91.88,3.59,2.52,4.98.08.07.18.12.28.13Z" fill="#fd7166"/><path d="M145.9,89.07v-.02s-.01-.02,0,0l.03.06.07.13.16.32.36.71c.12.24.25.49.39.74.13.25.27.5.41.75.55,1.01,1.12,2.03,1.72,3.05,1.21,2.03,2.47,4.05,3.82,6.02,1.35,1.96,2.73,3.9,4.19,5.77.74.93,1.47,1.85,2.24,2.75.74.92,1.53,1.79,2.3,2.68,1.58,1.73,3.2,3.43,4.88,5.02.41.42.85.79,1.27,1.19.43.39.84.8,1.28,1.17.88.75,1.73,1.52,2.63,2.23,1.76,1.47,3.62,2.79,5.47,4.1,1.89,1.25,3.79,2.47,5.77,3.54.49.27.98.55,1.48.81l1.5.75.75.38.19.09-.1-.05-.13-.06c-.17-.08-.35-.14-.54-.19-.77-.28-1.65-.4-2.44-.4-.2,0-.37,0-.55.02-.09,0-.18.02-.27.03l-.23.02c-.15.02-.3.05-.44.09-.12.02-.23.05-.34.08-.05.01-.12.04-.16.05-.04,0-.08.02-.12.03-.07.02-.16.07-.22.09-.05.01-.09.03-.14.06l-.06.04s-.02,0-.03,0c-.15.1.17-.04.61-.4.45-.36,1.03-.9,1.65-1.55.62-.65,1.27-1.4,1.93-2.22,1.33-1.63,2.66-3.51,3.98-5.48,1.31-1.98,2.61-4.06,3.88-6.21,1.28-2.14,2.53-4.34,3.74-6.58,1.22-2.24,2.43-4.5,3.6-6.79.59-1.14,1.18-2.29,1.76-3.43l1.68-3.32,22.61,8.8-.36,1.12-.35,1.04-.7,2.04c-.48,1.35-.97,2.69-1.48,4.03-1.03,2.67-2.1,5.32-3.24,7.96-1.16,2.63-2.37,5.27-3.67,7.9-.66,1.31-1.33,2.62-2.04,3.94-.71,1.31-1.44,2.62-2.21,3.94-1.55,2.63-3.23,5.26-5.2,7.93-.99,1.33-2.06,2.68-3.25,4.04-1.2,1.37-2.53,2.74-4.15,4.15-1.62,1.4-3.52,2.84-6.09,4.18l-.48.24c-.17.08-.35.16-.52.24-.35.16-.71.31-1.07.46-.37.15-.78.29-1.18.43l-.6.2c-.2.07-.43.13-.65.19-.44.12-.88.23-1.33.33-.47.1-.96.18-1.44.25-.24.04-.48.07-.73.1-.26.02-.52.04-.78.06-.52.03-1.03.06-1.56.06-2.15,0-4.37-.38-6.43-1.06-.5-.18-.99-.37-1.48-.57l-.36-.15-.33-.15-.27-.13-1.07-.52-2.14-1.05c-.7-.37-1.4-.75-2.1-1.13-2.8-1.5-5.47-3.21-8.09-4.96-2.58-1.81-5.11-3.69-7.49-5.71-2.42-1.99-4.68-4.13-6.88-6.31l-1.62-1.67c-.54-.56-1.05-1.13-1.57-1.7-.52-.57-1.04-1.14-1.54-1.73l-1.51-1.75c-3.95-4.71-7.47-9.71-10.58-14.94-1.54-2.62-3.01-5.29-4.34-8.05-.67-1.38-1.32-2.77-1.93-4.22-.15-.36-.31-.72-.46-1.09-.15-.36-.3-.73-.45-1.11-.15-.37-.3-.76-.45-1.15l-.51-1.4,24.05-9.16Z" fill="#fff"/><path d="M213.5,104.51c.17.91-.42,1.78-1.33,1.96-.91.17-1.78-.42-1.96-1.33-.17-.91.42-1.78,1.33-1.96.91-.17,1.78.42,1.96,1.33Z" fill="#c0dff4"/><path d="M187.73,141.58c-.31.09-.65-.04-.81-.34-2.74-4.81-4.39-11.35-4.46-11.62-.1-.38.13-.77.52-.87.38-.1.77.14.87.52.02.07,1.67,6.62,4.31,11.26.2.34.08.78-.27.98-.05.03-.11.05-.16.07Z" fill="#c0dff4"/><path d="M181.92,137.82c-.1.03-.21.03-.33.01-.39-.07-.64-.45-.57-.84.04-.22,1.02-5.29,1.71-6.91.15-.36.57-.53.94-.38.36.15.54.57.38.94-.62,1.48-1.61,6.57-1.62,6.63-.05.28-.26.48-.51.55Z" fill="#c0dff4"/><path d="M222.19,116.51c-.18.05-.38.03-.55-.07-7.43-4.34-23.07-10.09-23.23-10.15-.37-.14-.56-.55-.42-.92.14-.37.55-.56.92-.42.16.06,15.92,5.86,23.45,10.26.34.2.46.64.26.98-.1.17-.25.28-.43.33Z" fill="#c0dff4"/><path d="M215.2,112.98c-.16.04-.33.03-.49-.04-.36-.16-.52-.58-.36-.95l4.63-10.3c.16-.36.58-.52.95-.36.36.16.52.58.36.95l-4.63,10.3c-.09.2-.26.34-.46.4Z" fill="#c0dff4"/><path d="M157.1,217.22c-6.03,5.63-14.55,10.25-25.02,13.23-8.02,2.29-16.9,3.59-25.98,3.55-11.93-.04-21.25-2.12-32.33-7.52-3.34-9.14-9.97-42-10.96-51.75-.2-1.94-.35-3.88-.48-5.82-.62-9.35-.48-18.77-.03-28.63.02-.53.05-1.07.08-1.61.4-8.1.99-16.51,1.55-25.44,1.11-17.67,7.01-28.55,17.26-30.19,4.76-.76,8.53-2.1,11.31-3.41.34-.16.66-.32.97-.48,3.31-1.68,5.17-3.2,5.17-3.2l21.91.75c1.97,2.87,5.39,3.92,8.05,5.2.29.14.59.27.89.41,8.11,3.5,17.57,2.8,19.52,12.59,1.23,6.14-3.48,18.78-2.99,44.39.04,1.88.1,3.83.2,5.85.09,1.89.21,3.85.36,5.87.14,1.88.31,3.82.51,5.82.17,1.75.37,3.54.59,5.38.23,1.89.48,3.82.77,5.8,1.52,10.65,5.13,35.51,8.63,49.2Z" fill="#fff"/><path d="M116.32,96.15c-.76,0-1.54-.05-2.32-.16-11.04-1.52-19.85-13.11-20.22-13.6-.2-.27-.15-.66.12-.86.27-.2.66-.15.86.12.09.12,8.88,11.68,19.41,13.12,4.18.57,8.13-.53,11.72-3.28.27-.21.66-.16.86.11.21.27.16.66-.11.86-3.2,2.45-6.66,3.68-10.33,3.68Z" fill="#c0dff4"/><path d="M83.82,82.56c11,15.61,12.97,37.27,12.97,37.27,12.81-.62,38.27-.79,38.27-.79,1.15-16.78-3.95-36.47-3.95-36.47,2.3-.02,6.39,2.33,6.39,2.33,4.77,20.83,2.8,34.32,8.49,63.6,5.69,29.28,11.59,70.83,11.59,70.83l-83.74,9.2c-4.59-10.68-7.56-27.37-10.23-45.18,0,0,14.59-20.35,22.45-45.49,7.86-25.14-8.26-53.85-8.26-53.85,1.81-1.06,3.7-1.86,6.01-1.43Z" fill="#0065d7"/><path d="M137.06,186.43c-12.61,0-22.95-6.31-29.75-12.07-8.53-7.22-13.51-15.17-13.56-15.25-.18-.29-.09-.67.2-.85.29-.18.67-.09.85.2.05.08,4.94,7.88,13.33,14.98,7.7,6.51,20.04,13.76,35.04,11.25.34-.06.65.17.71.51.06.34-.17.65-.51.71-2.16.36-4.26.53-6.31.53Z" fill="#2b1f96"/><path d="M77.65,218.65c-.28,0-.55-.16-.69-.43-6.72-13.41-10.46-38.07-10.49-38.31-.06-.42.23-.81.65-.88.42-.06.81.23.88.65.04.24,3.74,24.66,10.35,37.85.19.38.04.84-.34,1.03-.11.06-.23.08-.34.08Z" fill="#2b1f96"/><path d="M119.19,153.69c-5.33,0-9.72-1.65-13.04-4.9-6.72-6.57-6.75-17.27-6.74-17.72,0-.33.27-.6.6-.61l35.51-.94s.01,0,.02,0c.29,0,.55.21.61.5.09.45,2.07,11.2-3.5,18.12-2.84,3.53-7.13,5.39-12.75,5.54-.23,0-.47,0-.7,0ZM100.66,131.67c.11,2.33.89,10.89,6.36,16.24,3.22,3.15,7.54,4.67,12.84,4.54,5.24-.14,9.22-1.85,11.82-5.08,4.55-5.65,3.65-14.4,3.33-16.61l-34.35.91Z" fill="#2b1f96"/><path d="M96.25,35.83s-8.21,14.61-6.77,19.77c1.45,5.16,5.46,2.39,5.46,2.39,0,0-5.01,9.1.37,11.73,3.39,1.65,6.8-5.35,6.8-5.35,0,0,4.62-24.06-5.87-28.54Z" fill="#130b43"/><path d="M132.48,46.54s6.34,12.22,3.69,16.88c-2.65,4.66-5.88,1-5.88,1,0,0,2.67,10.04-3.18,11.29-3.68.79-5.32-6.83-5.32-6.83,0,0-.57-20.53,10.68-22.35Z" fill="#130b43"/><path d="M122.7,74.2l-.73,6c-.77.48-1.54.89-2.3,1.23-11.18,4.98-21.47-4.13-21.47-4.13l2.54-20.79,19.35,15.59,2.62,2.11Z" fill="#ff8c62"/><path d="M122.7,74.2l-.73,6c-.77.48-1.54.89-2.3,1.23-8.44-4.59-13.76-14.68-13.76-14.68l14.17,5.35,2.62,2.11Z" fill="#130b43"/><path d="M129.91,25.53s14.33,3.13,7.24,17.65c0,0-8.06-13.73-7.24-17.65Z" fill="#130b43"/><path d="M133.44,48.54s3.9-3.61,5.33.65c1.43,4.26-1.04,12.22-6.06,10.26l.73-10.91Z" fill="#fd7166"/><path d="M135.35,63.1s-1.5,12.4-14.39,10.8c-12.81-1.59-20.32-12.72-20.72-13.24,0,0-.01-.01-.01-.01l.18-2.62.92-13.62.49-7.28s-.05-13.22,12.61-14.08c9.25-.63,17.54,1.9,21.25,7.14,1.36,1.93,2.1,4.23,2.04,6.88l-1.19,13.03-.29,3.19-.89,9.81Z" fill="#ff8c62"/><path d="M120.7,45.47c-.13,1.16-.77,2.04-1.42,1.97-.65-.07-1.07-1.08-.93-2.24.13-1.16.77-2.04,1.42-1.97.65.07,1.07,1.08.93,2.24Z" fill="#130b43"/><path d="M132.36,46.81c-.13,1.16-.77,2.04-1.42,1.97-.65-.07-1.07-1.08-.93-2.24.13-1.16.77-2.04,1.42-1.97.65.07,1.07,1.08.93,2.24Z" fill="#130b43"/><path d="M119.51,49.64c-.11.9-2.06,1.41-4.35,1.13-2.29-.28-4.06-1.24-3.95-2.14.11-.9,2.06-1.41,4.35-1.13,2.29.28,4.06,1.24,3.95,2.14Z" fill="#fd7166"/><path d="M136.24,53.29c-.32,0-.66-.03-1.01-.07-2.29-.28-4.06-1.24-3.95-2.14.11-.9,2.06-1.41,4.35-1.13.31.04.61.09.9.15l-.29,3.19Z" fill="#fd7166"/><path d="M115.59,39.7c1.16.68,3.73,1.55,6.72-1.43.37-.36.43-.93.16-1.37h0c-.34-.55-1.08-.69-1.6-.3-.9.69-2.45,1.47-4.42.92-.62-.17-1.24.24-1.36.87l-.03.15c-.09.46.13.93.54,1.17Z" fill="#130b43"/><path d="M136.22,41.59c-1.26.49-3.93.94-6.41-2.47-.3-.42-.28-.99.06-1.38h0c.43-.49,1.18-.51,1.63-.04.78.82,2.19,1.84,4.22,1.6.64-.07,1.19.43,1.21,1.07v.15c.02.47-.27.9-.71,1.07Z" fill="#130b43"/><path d="M126.45,58.29c1.49.18,3.13-.05,4.83-.97.25-.14.34-.45.21-.7-.14-.25-.45-.34-.7-.21-6.1,3.32-11.27-3.61-11.32-3.68-.17-.23-.49-.28-.72-.11-.23.17-.28.49-.11.72.04.06,3.28,4.4,7.81,4.95Z" fill="#130b43"/><path d="M104.89,56.12c-.08.13-2.17,3.72-4.65,4.54,0,0-.01-.01-.01-.01l.18-2.62s2.08-.1,4.48-1.9Z" fill="#130b43"/><path d="M103.67,47.23s-4.14-7.26-8.42-2.47c-3.52,3.95.77,15.88,7.16,12.75l1.25-10.27Z" fill="#ff8c62"/><path d="M101.98,55.41s.04,0,.06,0c.28,0,.52-.22.52-.51.07-5.74-4.46-8.28-4.65-8.39-.25-.14-.56-.04-.7.2-.14.25-.05.56.2.7h0c.17.09,4.18,2.37,4.11,7.47,0,.26.19.49.45.52Z" fill="#130b43"/><path d="M97.6,51.74c.11.01.23,0,.34-.07h0c.49-.31,1.94-1.02,2.79-.69.26.1.56-.03.67-.29.1-.26-.03-.56-.29-.67-1.48-.58-3.49.64-3.71.78-.24.15-.31.47-.16.71.09.14.22.22.37.24Z" fill="#130b43"/><path d="M125.18,51.62c3.02.37,4.3-1.62,4.35-1.7.08-.13.1-.29.05-.44-1.55-4.52-3.12-9.17-3.13-9.22-.09-.27-.38-.41-.65-.32-.27.09-.41.38-.32.65.02.05,1.52,4.52,3.04,8.96-.34.39-1.34,1.28-3.22,1.05-.28-.03-.54.17-.57.45-.03.28.17.54.45.57Z" fill="#130b43"/><path d="M135.68,30.18c-.14.42-.38.78-.7,1.04-2.83,2.32-8.63.67-13.92-1.7-5.28-2.36-9.62,1.15-9.62,1.15.88,5.44-4.34,5.24-3.72,9.35.18,1.18.21,2.44.18,3.65,0,.4-.03.8-.06,1.18-.17,2.5-.57,4.49-.57,4.49l-3.17-.82c-.25-1.04-.77-2.15-1.74-3.15-.29-.3-.63-.6-1.01-.87-.72-.53-1.61-.99-2.7-1.37-3.85.23-3.11-7.61-.42-13.57,0,0,3.54-5.66,16.2-6.52,9.25-.63,17.54,1.9,21.24,7.14Z" fill="#130b43"/><path d="M96.39,34.71l6.86-4.04.89-.52,1.94-1.14c13.07-4.1,28.53-1.37,28.53-1.37,0,0-1.7-11.74-16.28-14.01-5.28-.82-9.73-.09-13.21,1.56-.6.28-1.17.6-1.72.94-3.23,2.01-5.43,4.88-6.46,7.94-2.21,6.57-.55,10.65-.55,10.65Z" fill="#0065d7"/><path d="M103.25,30.67l.89-.52c-2.11-2.85-2.5-6.34-1.16-10.41.59-1.81,1.44-3.4,2.15-4.56-.6.28-1.17.6-1.72.94-.5.96-1,2.08-1.41,3.3-1.42,4.3-.98,8.15,1.25,11.25Z" fill="#2b1f96"/><path d="M124.69,17.21s-5.13-2.51-12.75.02l.7,4.17s7.16-1.54,12.06-.88v-3.31Z" fill="#2b1f96"/><path d="M139.09,35.03s18.07-7.53,10.5-15.63c-7.57-8.1-28.94-4.56-43.52,9.6,0,0,32.04-5.96,33.02,6.03Z" fill="#2b1f96"/><path d="M149.68,97.88c-.02.2-1.61,16-2.27,29.4-.09-.06-.18-.13-.27-.19-.39-.28-.77-.56-1.16-.84.69-13.23,2.21-28.31,2.23-28.51.04-.41.4-.7.8-.66.4.04.7.4.66.81Z" fill="#c0dff4"/><polygon points="42.34 451.78 41.08 469.54 59.31 469.88 60.31 453.22 42.34 451.78" fill="#ff8c62"/><path d="M115.6,248.34l-1.09,2.94-35.53,95.66c0,39.52-17.87,110.82-17.87,110.82l-21.41-1.02,5.87-111.48.08-1.53c.03-.14.07-.28.1-.42,5.49-21.96,16.91-76.81,24.69-103.27.22-.75.43-1.46.64-2.16.67-2.28,1.26-4.28,1.75-5.94.41-1.39.75-2.54,1.01-3.43,0,0,0,0,0,0,.39-1.32.6-2.03.6-2.03l6.01,3.19,1.73.92,7.88,4.19,25.53,13.56Z" fill="#0065d7"/><path d="M56.93,343.91c-2.85,1.14-5.75,1.52-8.36,1.52-1.06,0-2.07-.06-3-.16l.08-1.53c.04-.14.07-.28.11-.42.89.09,1.85.15,2.86.15,2.39,0,5.04-.34,7.6-1.36.49-.2,1.06.04,1.26.54.2.5-.04,1.06-.54,1.26Z" fill="#2b1f96"/><path d="M63.43,490.1c0,.14,0,.28,0,.41-.01.63-.04,1.19-.07,1.68-.06,1.07-.14,1.72-.14,1.72H27.83s-.17-1.37-.04-3.4c.23-3.62,1.43-9.33,6.32-13.1,6.69-5.17,4.11-4.09,5.48-6.45.15-.26,1.36-4.27,1.49-4.54,1.15-2.45,2.21-3.61,8.55-3.61,8.41,0,9.15,4.08,10.05,6.23.37.89.88,2.76,1.4,4.99.21.89.42,1.85.63,2.82.52,2.44,1,4.98,1.33,7.02.35,2.18.42,4.42.4,6.23Z" fill="#130b43"/><path d="M63.43,490.1c0,.14,0,.28,0,.41-.01.63-.04,1.19-.07,1.68-1.73-1.21-2.96-2.81-3.68-4.77-2.19-5.96,1.18-13.12,1.32-13.42l.07.03c.21.89.42,1.85.63,2.82-.8,2.43-1.72,6.53-.44,9.99.46,1.26,1.19,2.35,2.17,3.25Z" fill="#2c5383"/><path d="M63.43,490.51c-.05,2.01-.21,3.4-.21,3.4H27.83s-.17-1.37-.04-3.4h35.63Z" fill="#2c5383"/><path d="M50.79,473.84c-.08,0-.17-.01-.25-.03-4.5-1.17-8.17-.18-8.2-.17-.54.15-1.09-.17-1.24-.7s.17-1.09.7-1.24c.17-.05,4.23-1.14,9.25.16.54.14.86.69.72,1.23-.12.45-.53.76-.98.76Z" fill="#2c5383"/><path d="M51.38,469.77c-.08,0-.17-.01-.25-.03-4.5-1.17-8.17-.18-8.2-.17-.54.15-1.09-.17-1.24-.7-.15-.54.17-1.09.7-1.24.17-.05,4.23-1.14,9.25.16.54.14.86.69.72,1.23-.12.45-.53.76-.98.76Z" fill="#2c5383"/><path d="M49.28,477.04c-.08,0-.17-.01-.25-.03-4.47-1.16-8.17-.18-8.21-.17-.54.15-1.09-.17-1.24-.71-.15-.54.17-1.09.7-1.24.17-.05,4.23-1.14,9.25.16.54.14.86.69.72,1.23-.12.45-.53.76-.98.76Z" fill="#2c5383"/><path d="M47.5,480.67c-.08,0-.17-.01-.25-.03-4.47-1.16-8.17-.18-8.21-.17-.54.15-1.09-.17-1.24-.71-.15-.54.17-1.09.7-1.24.17-.05,4.23-1.14,9.25.16.54.14.86.69.72,1.23-.12.45-.53.76-.98.76Z" fill="#2c5383"/><path d="M58.87,457.38c-.06,0-.13,0-.19-.02-.52-.11-.86-.62-.76-1.14.09-.47,9.39-46.65,11.94-60.86,2.54-14.14,3.61-51.26,3.62-51.64,0-.13.03-.25.08-.37,6.04-13.5,33.65-89.03,33.92-89.79.18-.5.74-.76,1.24-.58.5.18.76.74.58,1.24-.28.76-27.68,75.72-33.9,89.74-.09,2.93-1.17,37.98-3.64,51.73-2.55,14.22-11.85,60.43-11.95,60.9-.09.46-.5.78-.95.78Z" fill="#2b1f96"/><polygon points="117.56 451.78 117.88 469.57 134.53 469.88 134.62 453.15 117.56 451.78" fill="#ff8c62"/><path d="M173.53,494.48l-59.4-.64c-.43-.81-.66-1.95-.75-3.31-.32-5.03,1.37-13.03,2.21-18.08.1-.59.19-1.14.26-1.64.12-.84.19-1.55.2-2.06.04-4.13,3.69-3.38,3.69-3.38,5.95,5.96,12.85-2.81,16.79.13,0,0,1.7,1.25,6.37,5.54,4.67,4.29,12.66,7.18,19.46,10.11,8.78,3.78,11.24,7.49,11.7,10.03.36,2.01-.52,3.29-.52,3.29Z" fill="#130b43"/><path d="M173.53,494.48l-59.4-.64c-.43-.81-.66-1.95-.75-3.31l60.67.65c.36,2.01-.52,3.29-.52,3.29Z" fill="#2c5383"/><path d="M120.19,493.91l-1.76-.02c1.78-1.99,3.46-5.06,3.29-9.48-.22-5.87-3.7-9.87-6.13-11.95.1-.59.19-1.14.26-1.64,2.62,2.04,7.01,6.5,7.28,13.54.16,4.22-1.26,7.35-2.95,9.55Z" fill="#2c5383"/><path d="M141.86,474.55c-.44,0-.84-.31-.94-.75-.12-.53.2-1.05.73-1.18l3.72-.88c.53-.13,1.05.2,1.18.73.12.53-.2,1.05-.73,1.18l-3.72.88c-.08.02-.16.03-.24.03Z" fill="#2c5383"/><path d="M137.79,471.3c-.44,0-.84-.31-.94-.75-.12-.53.2-1.05.73-1.18l3.72-.88c.53-.13,1.05.2,1.18.73.12.53-.2,1.05-.73,1.18l-3.72.88c-.08.02-.16.03-.24.03Z" fill="#2c5383"/><path d="M145.55,476.74c-.44,0-.84-.31-.94-.75-.12-.53.2-1.05.73-1.18l3.72-.88c.53-.13,1.05.2,1.18.73.12.53-.2,1.05-.73,1.18l-3.72.88c-.08.02-.16.03-.24.03Z" fill="#2c5383"/><path d="M149.23,478.86c-.44,0-.84-.31-.94-.75-.12-.53.2-1.05.73-1.18l3.72-.88c.53-.13,1.05.2,1.18.73.12.53-.2,1.05-.73,1.18l-3.72.88c-.08.02-.16.03-.24.03Z" fill="#2c5383"/><path d="M153.26,480.82c-.44,0-.84-.31-.94-.75-.12-.53.2-1.05.73-1.18l3.72-.88c.53-.12,1.05.2,1.18.73.12.53-.2,1.05-.73,1.18l-3.72.88c-.08.02-.16.03-.24.03Z" fill="#2c5383"/><path d="M157.63,482.5c-.44,0-.84-.31-.94-.75-.12-.53.2-1.05.73-1.18l3.72-.88c.53-.13,1.05.2,1.18.73.12.53-.2,1.05-.73,1.18l-3.72.88c-.08.02-.16.03-.24.03Z" fill="#2c5383"/><path d="M160.09,235.52c0,.6-.01,1.2-.02,1.8,0,1.41-.03,2.82-.04,4.22,0,.73-.02,1.45-.03,2.18,0,.1,0,.2,0,.3,0,.67-.01,1.34-.02,2-.52,43.5-2.05,83.25-5.18,111.78h0s-.35,1.97-.35,1.97l-17.52,98.65-22.55-1.91s.82-78.11,5.78-95.94l-.09-109.34v-15.74s30.38,3.2,30.38,3.2l1.89-.62,1.12-.37,1.86-.61,4.76-1.57Z" fill="#0065d7"/><path d="M154.81,357.79h0s-.35,1.97-.35,1.97c-.35.02-.7.02-1.05.02-7.34,0-13.5-3.6-13.83-3.79-.46-.27-.61-.87-.34-1.32.27-.46.87-.61,1.33-.34.11.07,6.82,3.96,14.23,3.46Z" fill="#2b1f96"/><path d="M118.83,450.38s.08,0,.12,0c.52,0,.94-.43.93-.95-.52-65.86,7.73-91.96,7.81-92.21.03-.1.05-.2.05-.31l-1.65-104.46c0-.52-.44-.94-.96-.93-.52,0-.94.44-.93.96l1.64,104.31c-.69,2.28-8.36,29.07-7.86,92.66,0,.48.37.88.83.93Z" fill="#2b1f96"/><path d="M158.3,240.73c-6.81,4.55-22.32,8.25-38.03,10-1.92.22-3.85.4-5.77.55-18.22,1.48-35.29.13-37.7-5.76-.3-.73-.57-1.5-.82-2.31,0-.02,0-.05-.02-.07-.18-.59-.35-1.19-.5-1.81-.28-1.11-.51-2.26-.71-3.43-.12-.69-.22-1.38-.31-2.08-.14-1.09-.26-2.19-.35-3.28,0-.1-.02-.21-.02-.31-.1-1.25-.17-2.49-.22-3.7-.14-3.63-.08-7.04.04-9.72.15-3.4.39-5.62.39-5.62l76.81-16.12s2.38,6.89,4.69,15.21c.75,2.71,1.49,5.57,2.14,8.4.91,3.98,1.64,7.9,1.95,11.22.06.71.11,1.39.14,2.04.13,3.38-.32,5.88-1.69,6.79Z" fill="#0065d7"/><path d="M159.99,233.94c-.08-.02-.16-.04-.21-.06-1.4-.48-2.73-1.13-4.01-1.95-.34-.22-.67-.45-.99-.68-1.23-.9-2.33-1.92-3.33-3.01-6.22-6.82-8.07-16.45-8.16-16.93-.1-.51.24-1,.75-1.1.52-.1,1.01.24,1.1.75.02.12,1.92,9.96,8.12,16.44.91.96,1.92,1.84,3.03,2.62.16.11.33.22.49.33.98.63,2,1.14,3.07,1.55.07.71.11,1.39.14,2.04Z" fill="#2b1f96"/><path d="M86.58,220.6c-.09.34-1.43,5.19-4.4,10-1.81,2.93-4.23,5.85-7.35,7.72-.36.22-.73.42-1.11.61-1.06.53-2.15.9-3.27,1.13.22-.75.43-1.47.63-2.16.61-.19,1.21-.42,1.79-.71.57-.28,1.11-.6,1.63-.95,2.45-1.66,4.42-4.08,5.95-6.55,2.9-4.68,4.23-9.51,4.26-9.59.14-.51.67-.82,1.19-.68.52.14.82.67.69,1.19Z" fill="#2b1f96"/><path d="M127.91,246.64c.02.41-.31.77-.74.79t0,0c-.43.02-.8-.3-.82-.72-.14-2.84-.31-5.75-.49-8.65-.03-.51-.06-1.02-.1-1.53-.62-9.49-1.4-18.81-1.99-25.39-.05-.53-.09-1.05-.14-1.54-.13-1.44-.25-2.72-.35-3.81.52-.08,1.04-.17,1.56-.25.1,1.08.22,2.38.36,3.84.05.5.09,1.01.14,1.54.59,6.52,1.36,15.76,1.98,25.2.04.52.07,1.04.1,1.56.19,3.01.36,6.03.51,8.97Z" fill="#2b1f96"/><path d="M130.15,236.62c-.25.12-1.35.63-2.74,1.05-.49.15-1.01.28-1.55.39-.49.09-.99.17-1.49.19-.95.05-1.87-.05-2.63-.41-.95-.46-1.57-1.29-1.79-2.4-.57-2.93-1.77-15.02-2.58-23.57-.05-.53-.1-1.04-.15-1.54-.13-1.37-.24-2.61-.34-3.67.52-.06,1.04-.13,1.56-.19.1,1.06.21,2.32.34,3.71.05.5.09,1.01.14,1.54.81,8.53,2,20.61,2.56,23.45.12.65.43,1.08.95,1.33.83.4,2.08.31,3.32.04.53-.11,1.05-.26,1.55-.42.9-.29,1.68-.62,2.15-.84.39-.19.86-.03,1.05.34.19.37.03.83-.36,1.02Z" fill="#2b1f96"/><rect x="0" y="171.19" width="103.88" height="79.03" fill="#e8b066"/><polygon points="103.88 250.22 112.32 242.15 112.32 162.72 103.88 171.17 103.88 250.22" fill="#d38b4a"/><polygon points="112.32 162.72 103.84 171.19 0 171.19 8.08 162.72 112.32 162.72" fill="#d38b4a"/><rect x="11.39" y="171.19" width="15.74" height="79.03" fill="#ffd395"/><polygon points="36.17 162.72 27.14 171.19 11.39 171.19 20.43 162.72 36.17 162.72" fill="#e8b066"/><rect x="78.53" y="171.19" width="15.74" height="79.03" fill="#ffd395"/><polygon points="103.32 162.72 94.28 171.19 78.53 171.19 87.57 162.72 103.32 162.72" fill="#e8b066"/><path d="M58.49,223.55s7.08,5.81,9.04,10.43c1.96,4.62-1.89,6.84-1.89,6.84,0,0,2.91,8.94,1.1,11.35-1.81,2.41-4.35.79-4.35.79,0,0-.4,2.15-1.83,2.65-1.43.5-3.77-1.44-3.77-1.44,0,0-1.2,2.69-2.85,2.91-1.64.22-3.28-1.64-3.28-1.64,0,0-2.93,2.97-4.92,1.2-4.59-4.08-7.81-26.26-7.81-26.26,0,0,11.84-6.28,20.56-6.83Z" fill="#ff8c62"/><path d="M65.5,240.75c-.21,0-.42-.11-.52-.32-1.82-3.46-3.77-7.6-3.79-7.64-.14-.29-.01-.65.28-.78.29-.14.65-.01.78.28.02.04,1.96,4.17,3.77,7.6.15.29.04.64-.25.8-.09.05-.18.07-.27.07Z" fill="#fd7166"/><path d="M83.57,97.65l-8.75-11.36-.67.53-.54.44-1.03.85c-.67.56-1.32,1.12-1.96,1.67-1.28,1.12-2.51,2.25-3.73,3.39-2.43,2.28-4.77,4.62-7.05,7.02-2.28,2.4-4.47,4.88-6.61,7.41-2.14,2.54-4.2,5.15-6.18,7.83-1.98,2.68-3.89,5.44-5.71,8.27-1.81,2.84-3.54,5.75-5.16,8.75-3.25,5.98-6.04,12.31-8.26,18.94-.55,1.66-1.07,3.33-1.53,5.03l-.35,1.28-.27,1.11-.06.28-.05.26-.1.51c-.14.7-.22,1.29-.31,1.92l-.1.88c-.03.29-.06.59-.08.85-.18,2.22-.2,4.18-.16,6.04.04,1.86.15,3.63.3,5.35.29,3.43.73,6.7,1.22,9.9.5,3.2,1.05,6.34,1.67,9.44.62,3.1,1.27,6.17,1.96,9.21.7,3.04,1.43,6.07,2.19,9.07.76,3.01,1.57,6,2.39,8.98l1.26,4.47.66,2.24.69,2.29,23.33-5.94-.8-4.28-.81-4.35c-.53-2.91-1.02-5.82-1.51-8.73-.49-2.91-.95-5.81-1.39-8.7-.44-2.89-.85-5.78-1.21-8.64-.36-2.86-.7-5.71-.95-8.5-.26-2.79-.43-5.55-.52-8.14-.04-1.3-.04-2.55,0-3.71.04-1.15.13-2.22.25-3.01.01-.11.03-.19.05-.27l.05-.24c.03-.11.06-.27.09-.31l.02-.05s0-.02,0-.02h0s.01,0,0,.01l.29-.9c.39-1.2.82-2.4,1.27-3.59,1.82-4.77,4.15-9.44,6.82-14,2.69-4.55,5.75-8.97,9.09-13.23,3.35-4.26,6.96-8.37,10.79-12.29,1.29-1.32,2.6-2.62,3.93-3.89-.57-6.71-1.47-13.39-2.49-20.05Z" fill="#fff"/><path d="M50.99,222.67c-.08.95-.92,1.65-1.86,1.57-.95-.08-1.65-.92-1.57-1.86.08-.95.92-1.65,1.86-1.57.95.08,1.65.92,1.57,1.86Z" fill="#c0dff4"/><path d="M35.01,221.49c-.32,0-.61-.21-.7-.52-.12-.39.1-.8.49-.92.13-.04,12.88-3.86,23.26-5.76.4-.07.78.19.86.59.07.4-.19.78-.59.86-10.29,1.88-22.97,5.68-23.1,5.72-.07.02-.14.03-.21.03Z" fill="#c0dff4"/><path d="M55.42,225.79c-.34,0-.65-.24-.72-.58l-1.88-8.89c-.08-.4.17-.79.57-.87.4-.08.79.17.87.57l1.88,8.89c.08.4-.17.79-.57.87-.05.01-.1.02-.15.02Z" fill="#c0dff4"/><path d="M62.38,148.49c-.14,0-.28-.04-.4-.12-.34-.22-.44-.68-.22-1.02.54-.84,13.4-20.69,22.06-28.14.31-.27.77-.23,1.04.08.27.31.23.77-.08,1.04-8.5,7.31-21.65,27.62-21.78,27.82-.14.22-.38.34-.62.34Z" fill="#c0dff4"/><path d="M79.79,125c-.36,0-.67-.26-.73-.63-.06-.4.22-.78.62-.84l6.31-.95c.4-.06.78.22.84.62.06.4-.22.78-.62.84l-6.32.95s-.07,0-.11,0Z" fill="#c0dff4"/><path d="M53,167.88c-.09,0-.19-.02-.28-.06-5.59-2.29-11.47-3.04-11.53-3.04-.4-.05-.69-.42-.64-.82.05-.4.42-.69.82-.64.25.03,6.14.78,11.9,3.14.38.15.56.58.4.96-.12.28-.39.46-.68.46Z" fill="#c0dff4"/><path d="M52.81,167.49c-.25,0-.5-.13-.64-.37-.95-1.64-4.37-4.91-4.4-4.95-.29-.28-.3-.75-.02-1.04.28-.29.75-.3,1.04-.02.15.14,3.6,3.46,4.66,5.27.2.35.08.8-.27,1.01-.12.07-.24.1-.37.1Z" fill="#c0dff4"/><path d="M399.26,86.9c-.23,1.79-.56,3.64-1.12,5.57-.55,1.93-1.3,3.93-2.37,5.96-1.07,2.02-2.44,4.05-4.18,5.89-1.72,1.85-3.79,3.48-5.98,4.74-1.09.63-2.21,1.17-3.33,1.63l-.83.32-.72.26c-.25.09-.46.15-.68.23-.22.07-.46.15-.66.22-1.72.53-3.25.92-4.74,1.28-2.97.69-5.75,1.21-8.5,1.69-2.75.46-5.46.84-8.15,1.2-2.69.36-5.36.69-8.02.97-2.56.27-5.11.53-7.66.76-.1,0-.21.02-.31.03-.21.02-.43.03-.64.05-.1,0-.2.02-.31.02-.14.01-.28.02-.42.03-.27.02-.55.05-.82.07-.1,0-.21.02-.31.02-1.82.15-3.64.29-5.45.43-2.65.18-5.29.35-7.94.49l-3.97.19-1.99.07c-.67.03-1.32.05-2.03.06l-1.18-27.77,15.42-1.26c2.55-.12,5.1-.25,7.64-.39,2.54-.13,5.08-.27,7.6-.43,2.52-.17,5.03-.33,7.52-.51,2.49-.19,4.95-.41,7.36-.66,2.4-.23,4.77-.51,6.91-.85,1.06-.17,2.06-.36,2.85-.53l.52-.12.21-.05s.06,0,.09,0c.1,0,.16,0,.21,0,.1.01.14.06.23.05.1,0,.26-.1.47-.35.43-.49.98-1.66,1.38-3.23.4-1.57.64-3.5.74-5.56.09-2.06.06-4.27-.09-6.54-.31-4.54-1-9.3-1.94-14.07-.92-4.78-1.06-9.72-2.36-14.48,6.34.52,13.67-1.66,17.22-2.66,1.95,4.43,3.72,6.98,4.9,11.74,1.33,5.41,3.38,10.7,4.47,16.48.54,2.9.98,5.88,1.19,9.02.2,3.14.22,6.44-.23,10.01Z" fill="#fd7166"/><path d="M384.92,99.66c-.21,0-.42-.11-.54-.31-1.66-2.89-6.86-5.59-6.92-5.62-.3-.16-.42-.53-.27-.83.16-.3.53-.42.83-.27.23.12,5.58,2.89,7.42,6.1.17.3.07.67-.23.84-.1.06-.2.08-.31.08Z" fill="#fd7166"/><path d="M391.18,44.9c.09-.3-.03-.64-.31-.82-.34-.21-.78-.11-.99.23-5.56,8.87-16.1,5.7-16.2,5.66-.38-.12-.78.09-.9.47,0,0,0,0,0,0-.11.38.1.78.47.89.12.04,11.71,3.53,17.85-6.27.03-.06.06-.11.08-.17Z" fill="#fd7166"/><path d="M387.64,48.79c.05-.15.04-.32-.02-.48l-3.27-7.9c-.15-.37-.57-.54-.94-.39-.37.15-.54.57-.39.94l3.27,7.9c.15.37.57.54.94.39.21-.09.35-.26.41-.46Z" fill="#fd7166"/><path d="M378.02,47.82c.66.2,1.35-.17,1.55-.83.2-.66-.17-1.35-.83-1.55-.66-.2-1.35.17-1.55.83-.2.66.17,1.35.83,1.55Z" fill="#fd7166"/><path d="M378.69,93.87c.06-.21.03-.44-.11-.63-.03-.04-2.7-3.71-3.64-6.49-.13-.38-.53-.58-.91-.45-.38.13-.58.53-.45.91,1.01,2.99,3.73,6.72,3.85,6.88.23.32.68.39,1,.15.13-.1.22-.23.26-.37Z" fill="#fd7166"/><path d="M380.79,89.41s.02-.1.03-.15c.03-.39-.27-.74-.66-.77-.03,0-3.15-.26-5.16-1.55-.33-.21-.78-.12-.99.21-.21.33-.12.78.21.99,2.32,1.5,5.69,1.77,5.83,1.78.34.03.65-.19.74-.51Z" fill="#fd7166"/><rect x="333.78" y="31.39" width="54.13" height="71.16" transform="translate(255.59 418.57) rotate(-83.85)" fill="#e8b066"/><polygon points="322.58 90.07 317.42 83.95 323.25 29.85 328.38 36.23 322.58 90.07" fill="#d38b4a"/><polygon points="323.25 29.85 328.4 36.25 399.13 43.87 394.25 37.51 323.25 29.85" fill="#d38b4a"/><rect x="334.76" y="61.68" width="54.13" height="10.78" transform="translate(256.36 419.63) rotate(-83.85)" fill="#ffd395"/><polygon points="353.83 33.15 359.37 39.59 370.09 40.74 364.56 34.31 353.83 33.15" fill="#e8b066"/><path d="M359.39,33.75l-2.32-.25s3.81-3.23,8.73-2.98c4.44.23,11.04,2.03,13.82,2.92,2.78.89,7.28,1.56,8.55,3.51,1.28,1.95,1.09,4.7-.5,8.13-1.6,3.43-2.9,3.02-3.44.87-.6-2.38-.63-5.65-.63-5.65,0,0-.63,1.12-2.11,5.52-1.56,4.64-4.25,3.04-4.66.58-.57-3.41-.29-9.04-.29-9.04,0,0-1.26,5.04-2.42,8.19-2.07,5.62-4.9,3.24-3.86-4.28.74-5.37-.18-4.67-.18-4.67,0,0-.24.76-1.2,4.72-.97,3.96-4.15,5.48-4.99,2.96-.82-2.48.66-9.97.66-9.97l-2.59-.28c-.35-.04-1.81-.21-2.57-.28Z" fill="#ff8c62"/><path d="M314.29,34.08s-8.49-14.24-32.49-5.69c-24,8.55-8.03,40.23-14.28,55.16-6.25,14.93.16,15.54,12.51,16.6,12.36,1.06,37.19,1.77,42.97-5.02,5.98-7.02-.65-41.63-8.72-61.06Z" fill="#791123"/><path d="M349.56,240.34c-13.88,7.99-47.45,12.11-69.35,3.41-8.03-3.19-9.44-5.15-8.83-19.57.02-.54.05-1.07.07-1.61.06-1.14.13-2.27.21-3.39.04-.54.08-1.09.13-1.62.16-2.01.36-3.99.57-5.88.06-.52.12-1.04.18-1.55.5-4.23,1.3-8.02,2.04-10.95.13-.53.27-1.03.39-1.5.78-2.88,1.41-4.61,1.41-4.61,3.53.57,7.17.9,10.82,1.05.52.02,1.03.04,1.55.05,18.94.5,38.21-3.79,47.14-6.11.54-.14,1.04-.27,1.5-.4,2.32-.62,3.63-1.03,3.63-1.03,0,0,.82,1.43,1.97,3.8.21.44.43.91.66,1.4,1.82,3.9,4.14,9.57,5.46,15.47.02.07.03.15.05.22.11.51.22,1.02.33,1.54.02.1.04.2.07.31.91,4.29,1.73,8.78,2.29,13.08h0c.07.56.14,1.1.2,1.65,1.1,9.43,1.26,14.09-2.5,16.26Z" fill="#130b43"/><path d="M349.56,209.36s-.07-.03-.1-.05c-2.82-1.54-5.31-3.86-7.45-6.95-.29-.42-.57-.85-.85-1.3h0c-2.15-3.49-3.91-7.83-5.27-13,.54-.14,1.04-.27,1.5-.4,1.33,5.1,3.06,9.34,5.17,12.71.28.45.57.88.86,1.3,1.68,2.39,3.57,4.27,5.69,5.63.02.07.03.15.05.22.11.51.22,1.02.33,1.54.02.1.04.2.07.31Z" fill="#2c5383"/><path d="M288.75,194.16c-.61,5.44-1.82,10.04-3.61,13.79-.24.49-.48.97-.74,1.43-1.46,2.65-3.25,4.81-5.37,6.47-2.59,2.03-5.23,2.94-7.36,3.33.04-.54.08-1.09.13-1.62,1.87-.39,4.12-1.23,6.31-2.95,1.82-1.43,3.39-3.28,4.69-5.53.27-.46.52-.93.77-1.42,1.8-3.62,3.02-8.15,3.64-13.54.52.02,1.03.04,1.55.05Z" fill="#2c5383"/><path d="M343.65,191.82c-1.07.47-2.22.96-3.45,1.46-.47.19-.96.39-1.46.58-7.15,2.79-16.51,5.66-26.61,6.7-.39.04-.78.08-1.16.11-9.17.84-18.5.45-26.18-.27-.55-.05-1.09-.1-1.63-.16-3.25-.33-6.16-.71-8.58-1.07.13-.53.27-1.03.39-1.5,2.49.37,5.48.76,8.82,1.09.53.05,1.06.1,1.6.15,7.84.71,17.34,1.06,26.58.11,9.86-1.02,19-3.8,26.02-6.52h0c.5-.19.98-.38,1.45-.58,1.27-.51,2.45-1.01,3.55-1.5.21.44.43.91.66,1.4Z" fill="#2c5383"/><polygon points="359.8 452.93 361.98 474 377.86 474.3 376.22 452.93 359.8 452.93" fill="#ff8c62"/><path d="M415.07,497.77l-56.67-.61c-.41-.77-.63-1.86-.71-3.15-.3-4.8,1.31-12.43,2.11-17.25.1-.56.18-1.09.25-1.56.11-.8.18-1.48.19-1.97.04-3.94,3.52-3.22,3.52-3.22,5.67,5.68,12.26-2.68,16.02.13,0,0,1.62,1.19,6.08,5.28,4.45,4.1,12.08,6.85,18.56,9.64,8.37,3.6,10.72,7.14,11.16,9.56.35,1.92-.5,3.14-.5,3.14Z" fill="#0065d7"/><path d="M415.07,497.77l-56.67-.61c-.41-.77-.63-1.86-.71-3.15l57.88.62c.35,1.92-.5,3.14-.5,3.14Z" fill="#2b1f96"/><path d="M364.19,497.22l-1.68-.02c1.7-1.9,3.3-4.83,3.14-9.04-.21-5.6-3.53-9.41-5.85-11.4.1-.56.18-1.09.25-1.56,2.5,1.95,6.69,6.2,6.95,12.91.15,4.02-1.2,7.01-2.81,9.11Z" fill="#2b1f96"/><path d="M384.86,478.56c-.42,0-.8-.29-.9-.72-.12-.5.19-1.01.69-1.12l3.55-.84c.5-.12,1,.19,1.12.69.12.5-.19,1.01-.69,1.12l-3.55.84c-.08.02-.15.03-.23.03Z" fill="#2b1f96"/><path d="M381.44,475.65c-.42,0-.8-.29-.9-.72-.12-.5.19-1,.69-1.12l3.55-.84c.5-.12,1,.19,1.12.69.12.5-.19,1.01-.69,1.12l-3.55.84c-.08.02-.15.03-.23.03Z" fill="#2b1f96"/><path d="M388.37,480.84c-.42,0-.8-.29-.9-.72-.12-.5.19-1,.69-1.12l3.55-.84c.5-.12,1,.19,1.12.69.12.5-.19,1.01-.69,1.12l-3.55.84c-.08.02-.15.03-.23.03Z" fill="#2b1f96"/><path d="M391.89,482.86c-.42,0-.8-.29-.9-.72-.12-.5.19-1.01.69-1.12l3.55-.84c.5-.12,1.01.19,1.12.69.12.5-.19,1.01-.69,1.12l-3.55.84c-.08.02-.15.03-.23.03Z" fill="#2b1f96"/><path d="M395.73,484.73c-.42,0-.8-.29-.9-.72-.12-.5.19-1.01.69-1.12l3.55-.84c.5-.12,1.01.19,1.12.69.12.5-.19,1.01-.69,1.12l-3.55.84c-.08.02-.15.03-.23.03Z" fill="#2b1f96"/><path d="M399.9,486.34c-.42,0-.8-.29-.9-.72-.12-.5.19-1,.69-1.12l3.55-.84c.5-.12,1.01.19,1.12.69.12.5-.19,1.01-.69,1.12l-3.55.84c-.08.02-.15.03-.23.03Z" fill="#2b1f96"/><path d="M344.52,402.7c4.34,15.6,10.12,40.55,14.15,56.04l20.61.59-12.39-123.43-.2-1.88-.46-4.26c-.91-40.16-6-78.01-14.39-107.32l-37.23,17.34c1.79,44.16,14.56,67.29,24.49,96.58,0,0-6.14,27.12,5.42,66.35Z" fill="#130b43"/><path d="M377.24,449.7c.39,0,.7-.33.71-.74,0-.41-.31-.75-.7-.76l-20.29-.31h-.01c-.39,0-.7.33-.71.74,0,.41.31.75.7.76l20.29.31h.01Z" fill="#2c5383"/><path d="M366.9,335.9c-1.55.28-3.22.45-4.94.45s-3.66-.19-5.53-.65c-.5-.12-.8-.63-.68-1.13.12-.5.63-.8,1.13-.68,3.4.84,6.83.69,9.83.13l.2,1.88Z" fill="#2c5383"/><path d="M348.21,399.97c2.97,12.17,7.02,28.09,11.9,48h1.6c-4.91-19.98-9-36.08-12-48.36-6.16-25.24-4.14-65.57-4.12-65.97,0-.13-.02-.27-.08-.39-20.99-41.58-24.09-82.87-24.12-83.28-.03-.43-.4-.75-.83-.72-.43.03-.75.4-.72.83.03.42,3.14,41.89,24.19,83.69-.15,3.18-1.81,41.69,4.17,66.21Z" fill="#2c5383"/><polygon points="276.36 455.06 275.1 472.81 293.33 473.15 294.33 456.5 276.36 455.06" fill="#ff8c62"/><path d="M297.45,493.37c0,.14,0,.28,0,.41-.01.63-.04,1.19-.07,1.68-.06,1.07-.14,1.72-.14,1.72h-35.38s-.17-1.37-.04-3.4c.23-3.62,1.43-9.33,6.32-13.1,6.69-5.17,4.11-4.09,5.48-6.45.15-.26,1.36-4.27,1.49-4.54,1.15-2.45,2.21-3.61,8.55-3.61,8.41,0,9.15,4.08,10.05,6.23.37.89.88,2.76,1.4,4.99.21.89.42,1.85.63,2.82.52,2.44,1,4.98,1.33,7.02.35,2.18.42,4.42.4,6.23Z" fill="#0065d7"/><path d="M297.45,493.37c0,.14,0,.28,0,.41-.01.63-.04,1.19-.07,1.68-1.73-1.21-2.96-2.81-3.68-4.77-2.19-5.96,1.18-13.12,1.32-13.42l.07.03c.21.89.42,1.85.63,2.82-.8,2.44-1.72,6.53-.44,9.99.46,1.26,1.19,2.35,2.17,3.25Z" fill="#2b1f96"/><path d="M297.45,493.79c-.05,2.01-.21,3.4-.21,3.4h-35.38s-.17-1.37-.04-3.4h35.63Z" fill="#2b1f96"/><path d="M284.81,477.12c-.08,0-.17-.01-.25-.03-4.5-1.17-8.17-.18-8.2-.17-.54.15-1.09-.17-1.24-.7-.15-.54.17-1.09.7-1.24.17-.05,4.23-1.14,9.25.16.54.14.86.69.72,1.23-.12.45-.53.76-.98.76Z" fill="#2b1f96"/><path d="M285.4,473.04c-.08,0-.17-.01-.25-.03-4.5-1.17-8.17-.18-8.2-.17-.54.15-1.09-.17-1.24-.7-.15-.54.17-1.09.7-1.24.17-.05,4.23-1.14,9.25.16.54.14.86.69.72,1.23-.12.45-.53.76-.98.76Z" fill="#2b1f96"/><path d="M283.3,480.31c-.08,0-.17-.01-.25-.03-4.47-1.16-8.17-.18-8.21-.17-.54.15-1.09-.17-1.24-.71-.15-.54.17-1.09.7-1.24.17-.05,4.23-1.14,9.25.16.54.14.86.69.72,1.23-.12.45-.53.76-.98.76Z" fill="#2b1f96"/><path d="M281.52,483.95c-.08,0-.17-.01-.25-.03-4.47-1.16-8.17-.18-8.21-.17-.54.15-1.09-.17-1.24-.71-.15-.54.17-1.09.7-1.24.17-.05,4.23-1.14,9.25.16.54.14.86.69.72,1.23-.12.45-.53.76-.98.76Z" fill="#2b1f96"/><path d="M271.9,335.84c.07,2.19.14,4.41.22,6.65l2.89,116.4h20.74c1.29-25.83,4.92-47.55,8.43-68.57,6.24-37.32-.43-51.56-.43-51.56,0,0,8.14-73.52,8.74-92.6l-41.13-21.98s-9.56,32.98.47,109.67c.02.66.04,1.32.06,1.99Z" fill="#130b43"/><path d="M300.9,373.73c-.9,6.06-6.12,42.38-10.22,77.69h1.58c4.17-35.29,9.49-71.4,10.39-77.43,2.3-15.4-2.42-34.97-2.92-36.97l10.62-87.67c.06-.48-.29-.92-.77-.98-.48-.06-.92.29-.98.77l-10.64,87.84c-.01.11,0,.22.02.33.05.2,5.28,20.63,2.92,36.43Z" fill="#2c5383"/><path d="M275.74,452.92h19.55c.39,0,.71-.34.71-.75s-.32-.75-.71-.75h-19.55c-.39,0-.71.34-.71.75s.32.75.71.75Z" fill="#2c5383"/><path d="M285.75,336.42c-1.87.47-3.73.66-5.53.66-3.05,0-5.91-.55-8.31-1.24-.02-.66-.04-1.33-.06-1.99,3.65,1.13,8.58,1.98,13.45.77.5-.12,1,.18,1.13.68.12.5-.18,1-.68,1.13Z" fill="#2c5383"/><path d="M316.08,241.11c.05.42.43.73.86.68t0,0c.43-.05.73-.44.68-.86-.35-2.89-.68-5.85-.99-8.82-.06-.52-.11-1.04-.16-1.56-1.01-9.69-1.82-19.22-2.36-25.96-.04-.54-.09-1.07-.12-1.58-.12-1.48-.22-2.79-.3-3.9-.52,0-1.04,0-1.56,0,.08,1.11.19,2.44.3,3.93.04.51.08,1.04.12,1.58.54,6.68,1.34,16.14,2.34,25.76.05.53.11,1.07.16,1.6.33,3.07.67,6.15,1.03,9.14Z" fill="#2c5383"/><path d="M312.2,231.38c.26.08,1.42.41,2.85.6.5.07,1.03.12,1.58.14.49.01.99,0,1.48-.05.93-.1,1.81-.36,2.5-.86.85-.62,1.31-1.56,1.33-2.72.06-3.05-.82-15.46-1.48-24.23-.04-.54-.08-1.07-.12-1.58-.11-1.4-.21-2.68-.29-3.76-.52.02-1.03.05-1.55.07.08,1.09.19,2.38.29,3.8.04.51.08,1.03.12,1.58.66,8.75,1.54,21.13,1.48,24.09-.01.68-.23,1.16-.7,1.5-.74.54-1.97.66-3.22.6-.53-.03-1.07-.09-1.58-.17-.92-.14-1.74-.34-2.24-.49-.41-.12-.84.11-.97.52-.12.41.11.84.52.97Z" fill="#2c5383"/><path d="M273.22,205.53c1.36-14.38,1.36-28.02,1.36-28.02h0c-.56-4.14-.59-8.6-1.72-12.95-3.44-9.93-7.46-17.04-11.04-27.29-.23-.67-.47-1.32-.71-1.99-.15-.43-.31-.86-.47-1.3-1.18-3.21-2.44-6.4-3.76-9.48-5.77-13.44-6.7-28.59,7.17-33.21,1.01-.33,2-.66,2.97-.96,6.56-2.07,12.03-3.44,13.55-3.81.28-.07.42-.1.42-.1l29.12,2.41,2.77.23c4.07.46,8.38.34,11.11.94,2.4.53,3.85.4,6.29,1.12,5.74,1.7,5.58,9.41,7.36,19,.03.17.06.33.09.5.01.05.02.11.03.16.31,1.63.69,3.24,1.11,4.84.47,1.78.99,3.54,1.55,5.26,3.36,10.53,7.41,15.37,6.72,22-.63,6-6.75,14.19-8.38,15.94-.37.4-.6.62-.6.62,0,.03,0,.06.01.09.02.24.05.49.09.76.12,1.01.3,2.21.52,3.57,3.93,20.54,8.76,37.79,8.76,37.79,0,0-41.52,5.86-74.34,3.89Z" fill="#fd7166"/><path d="M303.52,101.5c-3.87,0-7.87-1.01-11.86-3.02-5.35-2.7-8.76-6.2-8.9-6.34-.24-.24-.23-.64.02-.87.25-.24.64-.23.87.02.13.14,13.53,13.75,28.22,7.21.31-.14.68,0,.81.31.14.31,0,.68-.31.81-2.83,1.26-5.8,1.89-8.85,1.89Z" fill="#fd7166"/><path d="M341.04,117.71c-.14.01-.28.02-.42.03-.27.02-.55.05-.82.07-.1,0-.21.02-.31.02-1.87-5.58-3.46-11.84-3.88-19.21-.02-.41.29-.77.71-.79.41-.03.77.29.79.71.42,7.35,2.03,13.59,3.92,19.17Z" fill="#fd7166"/><path d="M314.54,58.41s3.45-4.07,5.39,0c1.95,4.07.45,12.31-4.79,10.96l-.6-10.96Z" fill="#fd7166"/><path d="M306.22,79.31l.46,11.08s-6,9.12-23.66-2.62c1.72-4.22,3.1-10.13,1.74-14.44,0,0,1.3.46,3.41,1.71.41.25.91.4,1.41.61,4.42,1.85,11.06,4.08,16.65,3.65Z" fill="#ff8c62"/><path d="M306.22,79.31l.22,5.25c-4.8-1.07-13.44-3.69-18.27-9.51.44.2.91.4,1.41.61,4.42,1.85,11.06,4.08,16.65,3.65Z" fill="#130b43"/><path d="M315.82,75.63c-9.43,9.76-30.36-1.89-31.04-2.27-.01,0-.02-.01-.02-.01-.19-.87-.37-1.74-.52-2.6-1.33-7.26-1.42-14-.68-20.4-.35-6.75,3.67-13.04,10.02-15.36,6.58-2.4,12.49.5,16.03,1.59,5.35,1.65,8.72,8.57,8.75,18.43.04,12.1-.21,18.19-2.55,20.61Z" fill="#ff8c62"/><path d="M312.14,46.06s-1.96.19-1.27,1.99c.69,1.79,4.61-.18,7.42,3.12,0,0,1.19-4.3-6.15-5.11Z" fill="#791123"/><path d="M303.27,46.06s1.96.19,1.27,1.99c-.69,1.79-4.61-.18-7.42,3.12,0,0-1.2-4.3,6.15-5.11Z" fill="#791123"/><path d="M302.64,60.05c0,.91-1.88,1.65-4.2,1.65s-4.2-.74-4.2-1.65,1.88-1.65,4.2-1.65,4.2.74,4.2,1.65Z" fill="#fd7166"/><g opacity=".8"><path d="M319.76,61.65c-.32.03-.66.05-1.01.05-2.32,0-4.2-.74-4.2-1.65s1.88-1.65,4.2-1.65c.31,0,.62.01.91.04l.1,3.22Z" fill="#fd7166"/></g><path d="M302.14,55.02c0,1.25-.57,2.27-1.27,2.27s-1.27-1.02-1.27-2.27.57-2.27,1.27-2.27,1.27,1.02,1.27,2.27Z" fill="#130b43"/><path d="M314.55,55.02c0,1.25-.57,2.27-1.27,2.27s-1.27-1.02-1.27-2.27.57-2.27,1.27-2.27,1.27,1.02,1.27,2.27Z" fill="#130b43"/><path d="M309.77,66.99c1.45,0,2.97-.47,4.36-1.82.2-.2.21-.53,0-.73-.2-.2-.53-.21-.73,0-3.77,3.69-8.8-.36-9.01-.54-.22-.18-.55-.15-.73.07-.18.22-.15.54.07.73.04.03,2.84,2.3,6.03,2.3Z" fill="#130b43"/><path d="M310.23,59.8c.6,0,1.01-.1,1.04-.11.14-.04.26-.13.33-.26.07-.13.08-.28.03-.41l-1.91-5.47c-.09-.27-.39-.41-.66-.32-.27.09-.41.39-.32.66l1.7,4.87c-.52.03-1.32-.03-2.11-.45-.25-.13-.56-.04-.7.21-.13.25-.04.56.21.7.87.47,1.74.58,2.38.58Z" fill="#130b43"/><path d="M288.86,68.28c-.06.14-1.71,3.96-4.08,5.09,0,0,0,0,0,0h-.01c-.19-.89-.37-1.75-.52-2.61.09-.01,2.48-.43,4.62-2.48Z" fill="#130b43"/><path d="M286.56,59.57s-5.01-6.74-8.69-1.44c-3.03,4.36,2.7,15.73,8.69,11.83v-10.39Z" fill="#ff8c62"/><path d="M281.36,67.68c0,.7.57,1.27,1.27,1.27s1.27-.57,1.27-1.27-.57-1.27-1.27-1.27-1.27.57-1.27,1.27Z" fill="#fff"/><path d="M285.88,67.93s.04,0,.06,0c.28-.03.49-.29.46-.57-.63-5.73-5.45-7.71-5.65-7.79-.27-.11-.57.02-.67.29-.11.26.02.56.29.67h0c.18.07,4.45,1.85,5.01,6.95.03.26.25.46.51.46Z" fill="#130b43"/><path d="M281.06,64.81c.11,0,.23-.04.32-.12.45-.36,1.81-1.26,2.7-1.03.28.07.56-.1.63-.37.07-.28-.1-.56-.37-.63-1.55-.4-3.4,1.06-3.61,1.23-.22.18-.25.5-.07.73.1.13.25.19.4.19Z" fill="#130b43"/><path d="M282.53,43.65s6.86,6.26,9.75,4.71c2.89-1.55-1.78-7.22-1.78-7.22,0,0,10.17,5.51,14.08,3.73,3.9-1.77-3.1-6.52-3.1-6.52,0,0,7.76,6.91,12.18,6.5,4.42-.41,0-5.98,0-5.98,0,0,4.04,7.82,6.71,7.14,2.67-.67-.91-11.89-9.75-15.71-8.84-3.82-31.34-3.13-28.09,13.35Z" fill="#791123"/><path d="M288.53,46.03s2.26,14.32-1.35,14.38c-3.61.06-7.24-5.51-4.65-16.76l6,2.38Z" fill="#791123"/><path d="M347.55,201.65c-12.58,3.06-56.86,5.85-74.34,3.89-1.55-21.77.34-29.97-1.97-45.34,0,0,6.1-4.74,8.78-27.31,2.98-25.05-10.53-43.33-10.53-43.33,1.56-.91,4.47-2.22,6.47-1.85,9.49,13.47,10.43,28.07,10.43,28.07,11.05-.53,38.1-2.77,38.1-2.77-4.32-18.63-11.57-24.05-11.57-24.05.67,0,1.39-.04,2.05-.07,1.67-.09,3.34.11,4.94.6.1.03.15.05.16.05,4.29,4.52,8.61,17.54,11.07,22.69,2.39,5.03,5.99,7.62,10.48,12.06,3.05,8.26,6.16,12.73,5.55,18.59-.63,6.01-6.75,14.19-8.38,15.94-.38.4-.6.62-.6.62,0,.03,0,.06.01.09.02.24.05.49.09.76.12,1.01.3,2.21.52,3.57,3.93,20.54,8.76,37.79,8.76,37.79Z" fill="#130b43"/><path d="M325.96,187.9c-8.67,0-16.19-2.05-21.63-4.14-8.58-3.31-13.81-7.35-14.03-7.52-.27-.21-.32-.6-.11-.87.21-.27.6-.32.87-.11.05.04,5.33,4.11,13.75,7.36,7.75,2.99,19.83,5.86,33.37,2.61.33-.08.66.12.74.46.08.33-.12.66-.46.74-4.35,1.05-8.56,1.47-12.52,1.47Z" fill="#2c5383"/><path d="M302.94,164.87c-1.59,0-3.21-.02-4.88-.07-.34-.01-.61-.29-.6-.64.01-.34.3-.6.64-.6,23.43.71,39.32-3.95,39.47-4,.33-.1.67.08.77.41.1.33-.08.67-.41.77-.14.04-14.06,4.13-34.99,4.13Z" fill="#2c5383"/><path d="M277.01,205.33s-.03,0-.04,0c-.34-.02-.6-.32-.57-.66,1.22-17.83-1.67-44.32-1.7-44.59-.04-.34.21-.64.55-.68.34-.04.64.21.68.55.03.27,2.93,26.87,1.71,44.8-.02.33-.29.57-.61.57Z" fill="#2c5383"/><path d="M313.66,141.24c-7.28,0-11.67-4.03-14.14-7.66-3-4.4-3.85-9.03-3.88-9.22-.03-.17.01-.34.11-.48.1-.14.26-.22.42-.24l31.82-3.61c.29-.03.57.15.66.43.11.34,2.54,8.42-1.3,14.48-2.11,3.33-5.7,5.38-10.66,6.08-1.06.15-2.07.22-3.03.22ZM296.99,124.79c.34,1.4,1.34,4.88,3.57,8.13,3.78,5.53,9.15,7.84,15.96,6.88,4.59-.65,7.88-2.5,9.79-5.52,3.03-4.78,1.75-11.17,1.3-12.97l-30.61,3.47Z" fill="#2c5383"/><path d="M275.4,112.86l-2.75,5.82-2.76,5.89-2.72,5.9-2.67,5.9c-.88,1.97-1.75,3.93-2.6,5.9-.85,1.96-1.69,3.92-2.5,5.88-.82,1.96-1.59,3.9-2.34,5.83-.75,1.93-1.45,3.83-2.09,5.7l-.46,1.38-.42,1.34c-.15.46-.25.86-.37,1.29-.13.44-.21.81-.31,1.2l-.07.29-.03.12s0-.03,0-.04c0-.03,0-.06,0-.09,0-.03,0-.04,0-.07-.01-.09-.02-.12-.04-.12-.03.02-.03.25.04.61.13.73.59,1.95,1.26,3.27.68,1.33,1.57,2.78,2.61,4.25,2.05,2.95,4.61,5.95,7.33,8.88,1.37,1.46,2.78,2.92,4.24,4.34.72.71,1.45,1.42,2.19,2.11l1.1,1.03,1,.93.46.42c4.35,4.03,4.62,10.83.59,15.18-3.71,4.01-9.76,4.55-14.09,1.47l-1.59-1.13c-.5-.36-.99-.71-1.47-1.07-.96-.72-1.91-1.45-2.85-2.19-1.87-1.5-3.72-3.03-5.52-4.65-3.61-3.24-7.1-6.72-10.42-10.8-1.65-2.05-3.25-4.25-4.76-6.77-1.5-2.52-2.91-5.35-3.93-8.9-.5-1.78-.89-3.73-1.01-5.93-.05-1.1-.05-2.24.06-3.43.03-.3.05-.59.09-.89l.14-.91.08-.45.06-.28.11-.52c.15-.69.29-1.4.45-2.03.16-.64.31-1.31.49-1.92.17-.61.34-1.24.51-1.84l.53-1.79c.72-2.34,1.48-4.61,2.26-6.83.8-2.21,1.61-4.39,2.45-6.53,1.66-4.3,3.43-8.49,5.24-12.66.9-2.08,1.82-4.14,2.76-6.2.94-2.05,1.87-4.11,2.84-6.14.96-2.04,1.93-4.07,2.93-6.09.5-1.01.99-2.02,1.5-3.03l1.56-3.07c3.2-6.3,10.9-8.81,17.2-5.61,6.19,3.14,8.72,10.63,5.78,16.86l-.09.18Z" fill="#fd7166"/><path d="M265.98,196.78s1.08-4.7,2.57-9.2c1.24-3.75,3.97-5,3.97-5-.01,3.78.14,5.06.04,7.23,0,0,1.25.89,3.33,1.43,2.07.54,9.23,2.48,9.23,4.16,0,3.83-8.97,1.51-8.97,1.51,0,0,9.6,2.37,9.21,5.03-.32,2.15-9.13,2.07-9.13,2.07,0,0,8.46.55,7.28,3.53-1.26,3.17-9,.7-9,.7,0,0,5.51,3.03,4.9,4.14-.88,1.6-4.26,1.87-9.61.25-5.47-1.66-3.8-15.86-3.8-15.86Z" fill="#ff8c62"/><path d="M252.76,165.72s-.05,0-.08,0c-4.65-.6-9.98,0-10.04,0-.34.04-.64-.2-.68-.54-.04-.34.2-.64.54-.68.22-.03,5.54-.62,10.33,0,.34.04.58.35.53.69-.04.31-.31.54-.61.54Z" fill="#fd7166"/><path d="M252.27,165.45c-.17,0-.34-.07-.46-.2-1.3-1.45-4.16-3.05-4.19-3.07-.3-.17-.4-.54-.24-.84.17-.3.54-.4.84-.24.12.07,3.07,1.72,4.51,3.32.23.25.21.64-.05.87-.12.11-.27.16-.41.16Z" fill="#fd7166"/><path d="M263.17,140.44c-.08,0-.16-.02-.24-.05-.31-.13-.46-.5-.32-.81.41-.95.96-2.35,1.6-3.97,2.34-5.93,5.88-14.9,9.85-21.39.18-.29.56-.38.85-.2.29.18.38.56.2.85-3.91,6.4-7.43,15.31-9.75,21.2-.64,1.63-1.2,3.03-1.61,4-.1.23-.33.37-.57.37Z" fill="#fd7166"/><path d="M271.35,121.26c-.25,0-.48-.15-.57-.39-.12-.32.03-.67.35-.8l3.96-1.56c.32-.12.67.03.8.35.12.32-.03.67-.35.8l-3.96,1.56c-.07.03-.15.04-.23.04Z" fill="#fd7166"/><rect x="555.98" y="416" width="103.88" height="79.03" fill="#e8b066"/><polygon points="555.98 495.03 547.55 486.96 547.55 407.53 555.98 415.98 555.98 495.03" fill="#d38b4a"/><polygon points="547.54 407.53 556.02 416.01 659.87 416.01 651.79 407.53 547.54 407.53" fill="#d38b4a"/><rect x="632.73" y="416" width="15.74" height="79.03" fill="#ffd395"/><polygon points="623.69 407.53 632.73 416.01 648.48 416.01 639.44 407.53 623.69 407.53" fill="#e8b066"/><rect x="565.59" y="416" width="15.74" height="79.03" fill="#ffd395"/><polygon points="556.55 407.53 565.59 416.01 581.34 416.01 572.3 407.53 556.55 407.53" fill="#e8b066"/><polygon points="730.15 458.39 728.62 470.55 713.12 470.55 712.22 457.75 730.15 458.39" fill="#ff9f9c"/><polygon points="688.7 456.42 686.82 470.54 671.32 470.54 671.92 456 688.7 456.42" fill="#ff9f9c"/><path d="M633.06,495.03h58.64c.44-.79.67-1.92.77-3.26.37-4.96-1.21-12.88-1.99-17.87-.09-.58-.17-1.13-.24-1.62-.11-.83-.17-1.53-.17-2.04,0-4.07-3.61-3.38-3.61-3.38-5.93,5.82-12.65-2.91-16.58-.05,0,0-1.69,1.21-6.35,5.4-4.65,4.19-12.57,6.95-19.31,9.77-8.7,3.64-11.17,7.27-11.65,9.77-.38,1.98.48,3.26.48,3.26Z" fill="#130b43"/><path d="M633.06,495.03h58.64c.44-.79.67-1.92.77-3.26h-59.89c-.38,1.98.48,3.26.48,3.26Z" fill="#2c5383"/><path d="M685.71,495.03h1.74c-1.74-1.99-3.36-5.03-3.15-9.39.28-5.79,3.76-9.7,6.17-11.73-.09-.58-.17-1.13-.24-1.62-2.6,1.99-6.99,6.35-7.33,13.28-.2,4.16,1.16,7.26,2.81,9.46Z" fill="#2c5383"/><path d="M664.54,475.69c.43,0,.83-.29.94-.73.13-.52-.19-1.04-.71-1.17l-3.66-.91c-.52-.13-1.04.19-1.17.7-.13.52.19,1.04.7,1.17l3.66.91c.08.02.16.03.23.03Z" fill="#2c5383"/><path d="M668.18,472.64c.43,0,.83-.29.94-.73.13-.52-.19-1.04-.7-1.17l-3.66-.91c-.52-.13-1.04.19-1.17.7-.13.52.19,1.04.71,1.17l3.66.91c.08.02.16.03.23.03Z" fill="#2c5383"/><path d="M660.87,477.82c.43,0,.83-.29.94-.73.13-.52-.19-1.04-.7-1.17l-3.66-.91c-.52-.13-1.04.19-1.17.7-.13.52.19,1.04.7,1.17l3.66.91c.08.02.16.03.23.03Z" fill="#2c5383"/><path d="M657.21,479.86c.43,0,.83-.29.94-.73.13-.52-.19-1.04-.71-1.17l-3.66-.91c-.52-.13-1.04.19-1.17.7-.13.52.19,1.04.71,1.17l3.66.91c.08.02.16.03.23.03Z" fill="#2c5383"/><path d="M653.22,481.76c.43,0,.83-.29.94-.73.13-.52-.19-1.04-.71-1.17l-3.66-.91c-.52-.13-1.04.19-1.17.7-.13.52.19,1.04.71,1.17l3.66.91c.08.02.16.03.23.03Z" fill="#2c5383"/><path d="M648.88,483.37c.43,0,.83-.29.94-.73.13-.52-.19-1.04-.71-1.17l-3.66-.91c-.52-.13-1.04.19-1.17.7-.13.52.19,1.04.71,1.17l3.66.91c.08.02.16.03.23.03Z" fill="#2c5383"/><path d="M754.04,248.03c-.04.63-.12,2.63-.3,3.22,0,.02-.01.05-.02.07-.25.79-.51,1.55-.81,2.28-2.63,6.43-22.93,7.37-42.91,5.14-15.5-1.73-30.81-5.38-37.53-9.87-6.31-4.21,7.13-43.1,7.13-43.1l78.16,16.4s-2.66,10.59-3.72,25.87Z" fill="#0065d7"/><path d="M662.79,344.73l6.2,112.28,22.32.68s8.17-82.89,5.32-100.93l11.94-98.19.29-2.52-28.66-13.2-1.79-.83-7.3-3.36c-.06.59-.12,1.17-.19,1.76-.23,2.2-.47,4.39-.69,6.57-.07.66-.14,1.31-.21,1.97-3.6,34.97-6.25,67.56-7.17,93.77-.02.68-.05,1.34-.07,2.01,0,0,.02-4.54,0,0Z" fill="#0065d7"/><path d="M662.79,344.73c1.53.15,3.09.21,4.59.21,5.53,0,10.37-.79,10.71-.84.54-.09.91-.61.82-1.15-.09-.55-.6-.92-1.15-.82-.1.02-7.93,1.29-14.91.6-.02.68-.05,1.34-.07,2.01Z" fill="#2b1f96"/><path d="M704.8,259.94l-13.38,102.1c.41,2.25,4.68,28.02-2.16,86.83-.07.59-.14,1.18-.21,1.78l-1.87-.02c.07-.6.14-1.19.21-1.78,7.13-61.12,2.23-86.35,2.17-86.61-.02-.1-.02-.21,0-.31l13.39-102.25c.07-.51.54-.87,1.05-.8s.87.54.8,1.05Z" fill="#2b1f96"/><path d="M692.06,449.79c0,.49-.39.89-.86.88l-2.15-.02-1.87-.02-17.83-.14s-.05,0-.07,0c-.43-.04-.76-.43-.76-.89,0-.5.39-.89.86-.89l18.01.15,1.87.02,1.97.02c.46,0,.84.4.83.9Z" fill="#2b1f96"/><path d="M688.26,226.12c-.09.48-1.92,9.98-8.06,16.71-1.24,1.36-2.65,2.61-4.27,3.64-1.26.81-2.58,1.45-3.96,1.92-.64.22-1.28.41-1.94.55.07-.65.13-1.31.2-1.97.31-.08.62-.17.93-.27,1.31-.43,2.57-1.03,3.76-1.79,1.29-.83,2.45-1.82,3.48-2.91,6.12-6.4,8-16.12,8.02-16.23.09-.5.58-.84,1.09-.74.51.1.84.58.74,1.09Z" fill="#2b1f96"/><path d="M703.58,254.7c-.02.41.31.76.73.78t0,0c.43.02.79-.3.81-.71.14-2.8.3-5.67.48-8.54.03-.5.06-1.01.1-1.51.61-9.37,1.38-18.57,1.97-25.06.05-.52.09-1.03.14-1.52.13-1.43.25-2.69.35-3.76-.51-.08-1.03-.16-1.54-.25-.1,1.07-.22,2.35-.35,3.79-.05.49-.09,1-.14,1.52-.58,6.44-1.35,15.56-1.96,24.87-.04.51-.07,1.03-.1,1.54-.19,2.97-.36,5.95-.5,8.85Z" fill="#2b1f96"/><path d="M701.37,244.81c.24.12,1.33.62,2.71,1.04.48.15,1,.28,1.53.39.49.09.98.16,1.47.19.94.05,1.84-.05,2.6-.41.94-.45,1.55-1.27,1.76-2.37.56-2.89,1.75-14.83,2.54-23.27.05-.52.1-1.03.14-1.52.13-1.35.24-2.58.33-3.62-.51-.06-1.03-.12-1.54-.19-.1,1.05-.21,2.29-.34,3.66-.05.49-.09,1-.14,1.52-.8,8.42-1.98,20.34-2.52,23.14-.12.65-.42,1.06-.93,1.31-.82.39-2.05.31-3.28.04-.52-.11-1.04-.26-1.53-.42-.89-.29-1.66-.61-2.13-.83-.38-.18-.85-.03-1.04.34s-.03.82.35,1Z" fill="#2b1f96"/><path d="M710.01,246.41v208.64l.23,3.31h23.01c1.22-7.44,9.88-37.54,11.07-62.63,1.29-27.01.93-62,.93-62,2.44-18.6,6.15-57.27,8.31-80.56.06-.62.11-1.24.17-1.84,0-.02,0-.05,0-.07,0,0,0-.01,0-.02.05-.61.11-1.2.16-1.77.85-9.24,1.39-15.27,1.39-15.27-3.57-1.48-9.92-.55-16.77,1.32-.6.17-1.21.34-1.82.51-1.14.34-2.29.7-3.44,1.07-.61.2-1.21.4-1.81.6-11.11,3.78-21.46,8.72-21.46,8.72Z" fill="#0065d7"/><path d="M710.01,339.72v2.02c1.47.14,2.97.19,4.42.19,5.53,0,10.37-.79,10.71-.84.54-.09.91-.61.82-1.15-.09-.55-.6-.92-1.15-.82-.1.02-7.85,1.28-14.8.61Z" fill="#2b1f96"/><path d="M742.13,333.97c.06,2.16,1.31,52.78-1.38,71.07-1.98,13.41-5.82,34.21-7.83,44.83-.12.63-.23,1.23-.33,1.78h-.85s-1.04-.02-1.04-.02c.1-.55.22-1.15.34-1.78,1.98-10.5,5.88-31.57,7.87-45.09,2.72-18.43,1.38-70.3,1.36-70.82,0-.05,0-.09,0-.13,2.04-17.35,6.22-77.24,6.26-77.84.04-.51.48-.9.99-.86.51.04.9.48.86.99-.04.6-4.21,60.38-6.26,77.86Z" fill="#2b1f96"/><path d="M734.92,450.78c-.01.49-.42.89-.91.88h-1.42s-.85-.02-.85-.02h-1.04s-.94-.02-.94-.02l-18.88-.14s-.05,0-.07,0c-.46-.04-.81-.43-.8-.89,0-.5.42-.89.91-.89l19.06.15h1.05s.93.02.93.02h.96s1.12.02,1.12.02c.49,0,.88.4.88.9Z" fill="#2b1f96"/><path d="M706.65,491.27c0,.14,0,.28,0,.41.01.62.04,1.18.07,1.66.06,1.05.14,1.7.14,1.7h34.93s.17-1.35.04-3.36c-.23-3.57-1.41-9.21-6.24-12.93-6.6-5.11-4.05-4.04-5.41-6.37-.15-.26-1.34-4.21-1.47-4.48-1.14-2.42-2.18-3.56-8.44-3.56-8.3,0-9.03,4.03-9.92,6.15-.37.88-.87,2.73-1.38,4.93-.21.88-.42,1.83-.62,2.79-.51,2.41-.99,4.92-1.31,6.93-.35,2.15-.42,4.36-.39,6.14Z" fill="#130b43"/><path d="M706.65,491.27c0,.14,0,.28,0,.41.01.62.04,1.18.07,1.66,1.7-1.2,2.92-2.77,3.63-4.7,2.16-5.89-1.16-12.95-1.3-13.25l-.07.03c-.21.88-.42,1.83-.62,2.79.79,2.4,1.69,6.44.43,9.86-.46,1.24-1.18,2.32-2.14,3.21Z" fill="#2c5383"/><path d="M706.65,491.68c.05,1.99.21,3.36.21,3.36h34.93s.17-1.35.04-3.36h-35.17Z" fill="#2c5383"/><path d="M719.12,475.23c.08,0,.17-.01.25-.03,4.44-1.15,8.06-.18,8.1-.17.53.15,1.08-.16,1.23-.69.15-.53-.16-1.08-.69-1.23-.17-.05-4.17-1.12-9.13.16-.53.14-.85.68-.71,1.21.12.45.52.75.96.75Z" fill="#2c5383"/><path d="M718.58,471.46c.08,0,.17-.01.25-.03,4.44-1.15,8.06-.18,8.1-.17.53.15,1.08-.16,1.23-.69.15-.53-.16-1.08-.69-1.23-.17-.05-4.17-1.12-9.13.16-.53.14-.85.68-.71,1.21.12.45.52.75.96.75Z" fill="#2c5383"/><path d="M720.61,478.38c.08,0,.17-.01.25-.03,4.41-1.14,8.06-.18,8.1-.17.53.15,1.08-.17,1.22-.7.15-.53-.16-1.08-.69-1.22-.17-.05-4.18-1.12-9.13.16-.53.14-.85.68-.71,1.21.12.45.52.75.96.75Z" fill="#2c5383"/><path d="M722.37,481.97c.08,0,.17-.01.25-.03,4.41-1.14,8.06-.18,8.1-.17.53.15,1.08-.17,1.22-.7.15-.53-.16-1.08-.69-1.22-.17-.05-4.17-1.12-9.13.16-.53.14-.85.68-.71,1.21.12.45.52.75.96.75Z" fill="#2c5383"/><path d="M753.75,251.23s0,.01,0,.02c0,.02,0,.04,0,.07-.06.6-.11,1.22-.17,1.84-2.64.45-5.22.22-7.72-.69-4.76-1.73-8.5-5.62-11.21-9.5-1.29-1.84-2.34-3.68-3.16-5.27-1.4-2.71-2.13-4.74-2.22-4.97-.17-.49.08-1.02.56-1.19.49-.18,1.02.08,1.19.56.02.05.79,2.17,2.27,4.99.78,1.49,1.77,3.18,2.95,4.86,2.54,3.62,5.97,7.22,10.26,8.77,2.34.85,4.77,1.02,7.26.51Z" fill="#2b1f96"/><path d="M683.98,92.56l-.46,1.33-.53,1.46c-.35.98-.71,1.97-1.08,2.96-.74,1.97-1.49,3.94-2.29,5.88-.78,1.95-1.59,3.87-2.44,5.75-.84,1.89-1.7,3.74-2.6,5.53-.91,1.79-1.83,3.53-2.78,5.18-.95,1.65-1.95,3.2-2.95,4.57-.98,1.38-1.99,2.62-2.88,3.51-.44.45-.86.81-1.19,1.08-.17.14-.32.24-.44.32l-.05.03s0,0,0,0c.02,0,.03-.01.05-.01.04,0,.06-.02.1-.01.12-.01.17.03.06.09-.11.05-.38.11-.78.11-.8.02-2.08-.19-3.53-.6-1.45-.4-3.07-1.03-4.72-1.78-1.65-.76-3.37-1.63-5.08-2.61-3.43-1.96-6.91-4.23-10.31-6.68-1.71-1.22-3.4-2.5-5.08-3.79-.84-.65-1.67-1.3-2.5-1.96l-1.23-.98-1.12-.91-.46-.37c-4.35-3.54-10.75-2.88-14.28,1.48-3.18,3.91-2.96,9.46.26,13.12l1.3,1.48,1.24,1.37c.83.9,1.67,1.78,2.51,2.65,1.69,1.75,3.44,3.43,5.23,5.1,3.61,3.31,7.4,6.5,11.6,9.46,2.1,1.48,4.29,2.93,6.67,4.26,2.37,1.34,4.9,2.61,7.73,3.7,2.83,1.09,5.98,2.01,9.71,2.4,1.86.19,3.87.23,6.01,0,2.14-.23,4.41-.74,6.63-1.62.55-.23,1.11-.45,1.65-.72l.81-.41c.13-.07.28-.14.39-.2l.32-.18c.86-.49,1.66-1.01,2.42-1.53,1.51-1.05,2.84-2.15,4.04-3.26,2.41-2.22,4.34-4.48,6.08-6.73,1.71-2.26,3.21-4.52,4.58-6.77,1.37-2.25,2.61-4.5,3.75-6.77,1.14-2.26,2.21-4.52,3.2-6.78.99-2.27,1.91-4.54,2.79-6.82.86-2.29,1.68-4.58,2.44-6.89.38-1.16.74-2.32,1.1-3.49l.52-1.78.53-1.92c1.9-6.91-2.15-14.05-9.06-15.96-6.62-1.82-13.45,1.82-15.69,8.2l-.19.53Z" fill="#ff9f9c"/><path d="M681.92,95.01s-2.88,6.71-5.24,11.57c-2.36,4.86-5.8,13.01-5.8,13.01l15.05,28s9.76-10.46,9.97-23.15c.21-12.69,2.36-30.95-13.98-29.42Z" fill="#fd7166"/><path d="M669.27,140.23s.09,0,.14-.01c.34-.07.55-.41.48-.75-1.28-5.84-4.57-9.19-4.71-9.33-.24-.24-.64-.25-.89,0-.25.24-.25.64,0,.89.03.03,3.18,3.25,4.38,8.72.06.29.32.49.61.49Z" fill="#ff746e"/><path d="M670.25,132.59c.28,0,.54-.19.61-.48.08-.34-.12-.68-.46-.76l-5.52-1.39c-.34-.08-.68.12-.76.46-.08.34.12.68.46.76l5.52,1.39c.05.01.1.02.15.02Z" fill="#ff746e"/><path d="M628.36,114.15c-.06-1.44-2.06-2.95-3.09-4.56-1.35-2.12-4.02-4.89-5.95-6.06-2.88-1.75-11.65-6.44-14.34-5.65-2.69.79,4.56,5.42,6.03,6.4,1.47.98,2.1,2.19,2.1,2.19,0,0-17.46-9.33-19.52-8.47-2.06.86,7.34,7.17,9.68,8.71,0,0-13.55-6.3-14.68-5.34-2.28,1.93,12.56,9.36,12.56,9.36,0,0-11.67-4.72-12.39-2.78-.76,2.05,11.75,7.08,11.75,7.08,0,0-8.06-1.97-9.44-.58-1.38,1.39,15.21,6.82,17.86,7.35,2.65.53,9.68,2.54,13.21,2.64,2.4.07,6.39-5.71,6.21-10.28Z" fill="#ff9f9c"/><path d="M604.25,118.13c-.28-.02-.5-.24-.52-.52-.42-6.61,4.24-11.23,4.44-11.42.22-.21.57-.21.78,0,.21.22.21.57,0,.78h0s-4.49,4.47-4.1,10.56c.02.31-.21.57-.52.59-.02,0-.05,0-.07,0Z" fill="#ff746e"/><path d="M618.23,118.86c-.22-.01-.42-.16-.49-.38-2.09-6.29-7.27-6.79-7.32-6.79-.31-.03-.53-.29-.51-.6.02-.3.29-.53.59-.51,0,0,0,0,.01,0,.24.02,5.96.57,8.28,7.55.1.29-.06.61-.35.7-.07.02-.14.03-.21.03Z" fill="#ff746e"/><rect x="566.37" y="85.18" width="51.07" height="70.92" rx="3.75" ry="3.75" transform="translate(20.19 315.71) rotate(-30.36)" fill="#e8b066"/><rect x="569.44" y="90.16" width="41.27" height="54.69" rx=".74" ry=".74" transform="translate(21.52 314.35) rotate(-30.36)" fill="#ffd395"/><path d="M588.36,142.58c-.21,0-.42-.11-.53-.31-.17-.29-.07-.67.22-.84l24.11-14.03c.29-.17.67-.07.84.22.17.29.07.67-.22.84l-24.11,14.03c-.1.06-.2.08-.31.08Z" fill="#e8b066"/><path d="M611.02,104.28c1.04.69,1.97,1.88,2.24,2.3,2.17-.17,3.07-2.17,4.63-3.88-3.67-2.07-10.8-6.01-12.91-4.82-1.88,1.07,4.56,5.42,6.03,6.4Z" fill="#ff9f9c"/><path d="M752.53,83.47c-1.07-.43-2.2-.75-3.39-.94-.91-.15-1.78-.31-2.62-.49h0c-3.55-.77-6.44-1.85-8.69-2.92-.34-.16-.66-.32-.97-.48-3.31-1.68-5.17-3.2-5.17-3.2l-21.91.75c-1.97,2.87-5.39,3.92-8.06,5.2-.29.14-.59.27-.89.41-.56.24-1.13.46-1.69.67-2.1.76-4.24,1.32-6.29,1.91-5.45,1.57-10.22,3.39-11.54,10.01-1.23,6.14,3.48,18.78,2.99,44.39-.04,1.88-.1,3.83-.2,5.85-.09,1.89-.21,3.84-.36,5.87-.03.39-.06.78-.09,1.17-.12,1.51-.26,3.06-.42,4.65-.17,1.75-.37,3.54-.59,5.38-.23,1.89-.48,3.82-.77,5.8-1.52,10.65-2.47,18.66-4.19,32.81-.85,6.94-2.56,18.06-1.55,18.86l80.41,8.91c.13-.68.31-1.03.5-2.61,2.69-7.34,6.23-29.02,8.53-42.7.56-3.34.83-6.31,1.03-8.22.2-1.94.28-4.12.41-6.06.62-9.35,1.48-18.85,1.03-28.71-.02-.53-.05-1.07-.08-1.61-.4-8.11,2.46-19.3,3.06-28.67,0,0,4.46-18.06-18.48-26.01Z" fill="#fd7166"/><path d="M684.44,144.36h-.01c-.34,0-.61-.29-.61-.63l.62-34.76c0-.34.28-.61.62-.61h.01c.34,0,.61.29.61.63l-.62,34.76c0,.34-.28.61-.62.61Z" fill="#fd7166"/><path d="M684.74,120.2c-.24,0-.47-.15-.57-.39l-2.3-5.69c-.13-.32.02-.68.34-.8.32-.13.68.02.8.34l2.3,5.69c.13.32-.02.68-.34.8-.08.03-.15.05-.23.05Z" fill="#fd7166"/><path d="M751.39,227.65c-.07,0-.14-.01-.21-.04-.32-.12-.48-.47-.37-.79,8.44-23.1,10.83-48.19,11.35-65.16.57-18.41-.89-31.51-.9-31.64-.04-.34.21-.64.54-.68.34-.04.64.21.68.54.01.13,1.48,13.31.91,31.8-.52,17.07-2.93,42.3-11.43,65.57-.09.25-.33.41-.58.41Z" fill="#fd7166"/><path d="M701.46,201.76c-4.86,0-10.12-.52-15.76-1.74-.33-.07-.54-.4-.47-.73s.4-.54.73-.47c21.31,4.62,37.01-.97,46.42-6.48,10.22-5.98,15.46-13.15,15.51-13.22.2-.28.58-.34.86-.14.28.2.34.58.14.86-.22.3-5.42,7.42-15.84,13.53-7.11,4.17-17.74,8.39-31.59,8.39Z" fill="#fd7166"/><path d="M705.09,191.16c-1.35,0-2.78-.12-4.26-.39-.34-.06-.56-.38-.5-.72.06-.33.38-.56.72-.5,16.58,2.97,24.93-13.08,25.01-13.24.15-.3.52-.43.83-.27.3.15.42.53.27.83-.09.17-2.21,4.31-6.52,8.12-3.34,2.96-8.57,6.16-15.55,6.16Z" fill="#fd7166"/><path d="M714.02,95.63c-3.66,0-7.13-1.23-10.32-3.68-.27-.21-.32-.59-.11-.86.21-.27.59-.32.86-.11,3.59,2.75,7.54,3.85,11.72,3.28,10.53-1.45,19.32-13.01,19.41-13.12.2-.27.59-.33.86-.12.27.2.33.59.12.86-.37.49-9.18,12.09-20.22,13.6-.78.11-1.55.16-2.32.16Z" fill="#fd7166"/><path d="M701.73,23.36s-3.11,3.19-3.06,6.94c0,0-2,3.95-1.49,7.35.52,3.41,2.23,7.83,2.23,7.83,0,0,2.87-16.12,6.56-16.94,3.69-.82,8.25-3.55,8.25-3.55,0,0-1.94-4.38-12.5-1.64Z" fill="#130b43"/><path d="M740.66,36.99s1.27,3.96-.53,5.91c-1.8,1.95.15,5.15-2.25,7.02-2.4,1.86-6.25.71-6.25.71,0,0-1.01-20.18-2.82-22.07,0,0,6.69.05,11.85,8.44Z" fill="#130b43"/><path d="M709.72,72.96v5.81c.68.55,1.37,1.03,2.06,1.44,10.09,6.06,20.97-1.44,20.97-1.44v-20.14l-20.28,12.62-2.75,1.71Z" fill="#ff9f9c"/><path d="M709.72,72.79v5.98c.68.55,1.37,1.03,2.06,1.44,8.59-3.4,14.84-12.41,14.84-12.41l-14.15,3.45-2.75,1.54Z" fill="#130b43"/><path d="M702.46,47.21s-3.3-3.9-5.16,0c-1.86,3.9-.43,11.79,4.59,10.5l.57-10.5Z" fill="#ff746e"/><path d="M698.94,60.88s-.02,12.01,12.47,11.98c12.41-.02,20.87-9.77,21.31-10.22,0,0,.01-.01.01-.01l.14-2.52.71-13.1.38-7s1.59-12.61-10.4-14.91c-8.75-1.68-16.96-.23-21.11,4.34-.13.15-.26.3-.39.45-1.3,1.61-2.13,3.56-2.36,5.87l-.39,12.58-.1,3.08-.29,9.46Z" fill="#ff9f9c"/><path d="M715.62,49.88c0,.87,1.8,1.58,4.02,1.58s4.02-.71,4.02-1.58-1.8-1.58-4.02-1.58-4.02.71-4.02,1.58Z" fill="#ff746e"/><path d="M699.23,51.42c.31.03.64.05.97.05,2.22,0,4.02-.71,4.02-1.58s-1.8-1.58-4.02-1.58c-.3,0-.59.01-.87.04l-.1,3.08Z" fill="#ff746e"/><path d="M728.48,46.1s-3.71,7.59-7.64,6.22c-3.93-1.38-8.65-1.52-12.34,0,0,0-5.83-3.86-9.57-1.53-2.51,1.57-1.87,18.23,6.58,21.01,8.45,2.78,20.11.3,23.26-7.65,3.15-7.94,3.28-14.82,3.28-14.82l-3.57-3.23Z" fill="#130b43"/><path d="M707.77,57.12c4.57.21,8.49-3.54,8.55-3.59.2-.2.21-.52,0-.73-.2-.2-.52-.21-.73,0-.26.25-6.33,6.04-11.81,1.75-.22-.18-.55-.14-.72.09-.18.22-.14.55.09.72,1.53,1.2,3.11,1.7,4.61,1.77Z" fill="#2c5383"/><path d="M722.34,38.89h0c-.63,1.4-2.27,2.04-3.69,1.43-.83-.36-1.8-.7-2.83-.93-1.46-.32-2.36-1.78-1.96-3.22h0s5.82-.53,8.48,2.71Z" fill="#130b43"/><path d="M699.75,38.89h0c.63,1.4,2.27,2.04,3.69,1.43.83-.36,1.8-.7,2.83-.93,1.46-.32,2.36-1.78,1.96-3.22h0s-5.82-.53-8.48,2.71Z" fill="#130b43"/><path d="M702.07,29.89c1.96-.69,3.38-.05,6.43,1.29,4.41,1.94,9.35.19,13.71-2.04,4.36-2.23,6.98.87,5.49,2.91-1.48,2.04-1.32,3.68.32,6.28,1.65,2.59-3.12,3.8-.48,5.84,1.11.86,1.04,2.14.59,3.33-.49,1.3.66,2.63,2.02,2.38h0c1.42-.36,3.42-2.88,3.42-2.88l.38-7s1.59-12.61-10.4-14.91c-8.75-1.68-16.96-.23-21.11,4.34-.13.15-.26.3-.39.45Z" fill="#130b43"/><path d="M715.84,45.07c0,1.2.54,2.17,1.22,2.17s1.22-.97,1.22-2.17-.54-2.17-1.22-2.17-1.22.97-1.22,2.17Z" fill="#130b43"/><path d="M703.78,45.07c0,1.2.54,2.17,1.22,2.17s1.22-.97,1.22-2.17-.54-2.17-1.22-2.17-1.22.97-1.22,2.17Z" fill="#130b43"/><path d="M728.82,57.77c.06.13,1.64,3.8,3.91,4.87,0,0,.01-.01.01-.01l.14-2.52s-1.97-.34-4.06-2.34Z" fill="#130b43"/><path d="M731.02,49.43s4.8-6.45,8.32-1.38c2.9,4.18-2.58,15.06-8.32,11.33v-9.95Z" fill="#ff9f9c"/><path d="M731.67,57.44c.25,0,.46-.19.49-.44.53-4.88,4.62-6.58,4.8-6.65.25-.1.38-.39.27-.64-.1-.25-.39-.38-.64-.28-.2.08-4.81,1.98-5.41,7.46-.03.27.17.52.44.54.02,0,.04,0,.05,0Z" fill="#130b43"/><path d="M736.28,54.44c.14,0,.29-.06.38-.18.17-.21.14-.52-.07-.69-.2-.16-1.97-1.56-3.45-1.18-.26.07-.42.34-.36.6.07.26.34.42.6.36.85-.22,2.15.64,2.58.99.09.07.2.11.31.11Z" fill="#130b43"/><path d="M709.98,51.12c.27,0,.49-.22.49-.49s-.22-.49-.49-.49c-1.82,0-2.67-.96-2.95-1.37,1.97-4.06,3.93-8.16,3.95-8.2.12-.25.01-.54-.23-.66-.25-.12-.54-.01-.66.23-.02.04-2.05,4.29-4.06,8.43-.06.13-.07.29,0,.42.04.09,1.03,2.13,3.96,2.13Z" fill="#130b43"/><path d="M741.18,38.84l-6.1-5.12-.79-.66-1.73-1.45c-12.22-6.2-27.92-6.05-27.92-6.05,0,0,3.61-11.3,18.36-11.14,5.34.06,9.61,1.51,12.78,3.72.55.38,1.06.78,1.54,1.21,2.85,2.51,4.55,5.7,5.06,8.9,1.1,6.85-1.21,10.59-1.21,10.59Z" fill="#fd7166"/><path d="M735.08,33.72l-.79-.66c2.55-2.47,3.51-5.85,2.86-10.07-.29-1.88-.86-3.59-1.37-4.85.55.38,1.06.78,1.54,1.21.34,1.03.65,2.22.84,3.49.69,4.48-.37,8.2-3.09,10.89Z" fill="#fd7166"/><path d="M716.17,17.05s5.48-1.63,12.57,2.12l-1.37,3.99s-6.81-2.7-11.75-2.85l.55-3.27Z" fill="#fd7166"/><path d="M698.67,30.3s-16.76-10.42-7.96-17.17c8.8-6.75,29.81,2.11,41.86,18.48,0,0-28.34-11.67-33.9-1.31Z" fill="#fd7166"/><path d="M662.86,82.25c.21.36.51.63.87.78.15.07.31.11.48.13l1.17-.22,27.67-15.71c.88-.5,1.19-1.63.69-2.51-.5-.88-1.63-1.19-2.51-.69l-27.67,15.71-.9,1.25h0c-.08.42-.02.87.21,1.26Z" fill="#130b43"/><path d="M660.61,83.85l3.6-.68,1.17-.22c-.38-2.24-1.82-3.2-1.82-3.2l-.9,1.25h0s-2.05,2.86-2.05,2.86Z" fill="#2c5383"/><path d="M747.16,101.1l-.45,1.59-.51,1.73c-.34,1.17-.7,2.34-1.06,3.5-.71,2.34-1.5,4.65-2.29,6.94-1.61,4.56-3.37,9.02-5.34,13.04-.98,2.01-2.01,3.91-3.08,5.58-1.06,1.67-2.14,3.13-3.08,4.13l-.18.2c-.06.06-.11.1-.16.15-.11.1-.21.2-.32.31-.11.12-.19.17-.28.24-.09.07-.17.14-.25.22-.07.05-.13.07-.19.12-.03.02-.06.05-.08.07,0,0-.04.04-.02.03.06-.03.12-.07.18-.1.12-.06.25-.11.38-.15.13-.04.27-.11.41-.15.14-.05.29-.06.43-.1.14-.04.29-.07.43-.09l.22-.02c.07-.01.13-.02.2-.03.13-.01.27-.02.4,0,.13,0,.23,0,.34,0,.1,0,.24.04.31.04.35.04.6.14.67.17.17.09-.14.03-.6-.23-.47-.26-1.09-.67-1.77-1.21-.68-.54-1.39-1.18-2.14-1.87-1.48-1.41-3.01-3.06-4.51-4.83-1.5-1.77-2.97-3.67-4.44-5.62-1.46-1.95-2.9-3.98-4.3-6.05-2.82-4.13-5.55-8.43-8.21-12.79-1.33-2.18-2.63-4.39-3.93-6.6l-1.92-3.32-1.84-3.26-.16-.29c-2.76-4.88-8.96-6.6-13.84-3.83-4.5,2.55-6.31,8.02-4.39,12.68l.81,1.98.8,1.91c.53,1.27,1.09,2.52,1.64,3.77,1.11,2.5,2.27,4.98,3.46,7.45,1.19,2.47,2.43,4.93,3.71,7.37,1.28,2.44,2.6,4.89,4,7.31,2.8,4.84,5.77,9.67,9.31,14.43,1.77,2.39,3.68,4.77,5.88,7.16,1.11,1.2,2.31,2.38,3.64,3.57,1.33,1.19,2.82,2.38,4.59,3.54,1.77,1.15,3.84,2.3,6.53,3.2,1.33.44,2.88.8,4.54.99.4.05.87.07,1.3.09.45.02.87.04,1.33.02.46-.02.93-.05,1.39-.09l.69-.07c.23-.03.47-.07.71-.11.47-.08.94-.18,1.41-.28.47-.1.92-.25,1.38-.39.45-.15.92-.3,1.35-.48.43-.18.86-.37,1.28-.57l.63-.31c.16-.09.27-.15.4-.23l.76-.45c.5-.3,1.02-.61,1.5-.92l1.34-.96c.44-.33.9-.66,1.28-.99l1.17-1.01c.19-.17.39-.34.58-.51l.52-.51c2.81-2.74,4.96-5.5,6.8-8.25,1.83-2.75,3.38-5.49,4.77-8.21,1.39-2.72,2.57-5.45,3.69-8.16,1.12-2.71,2.09-5.44,3-8.16.92-2.72,1.72-5.45,2.48-8.2.37-1.38.72-2.75,1.06-4.15.17-.7.33-1.4.48-2.11l.23-1.08.25-1.19c1.45-7.02-3.06-13.89-10.08-15.34-6.7-1.39-13.27,2.66-15.11,9.15l-.15.55Z" fill="#ff9f9c"/><path d="M760.63,87.32s10.73,1.97,12.14,16.38c1.61,16.44-9.8,36.82-9.8,36.82l-27.56-14.8s4.45-21.86,11.01-30.71c6.56-8.85,14.21-7.69,14.21-7.69Z" fill="#fd7166"/><path d="M762.8,141.4c-.1,0-.2-.02-.29-.07-.3-.16-.41-.53-.25-.83,1.69-3.17,4.92-11.31,4.96-11.4.12-.32.48-.47.8-.35.32.13.47.48.35.8-.13.34-3.29,8.29-5.01,11.52-.11.21-.32.33-.54.33Z" fill="#fd7166"/><path d="M736.07,125.73s-.06,0-.09,0c-.34-.05-.57-.36-.52-.7,2.26-15.66,10.35-30.17,10.43-30.31.17-.3.54-.4.84-.24.3.17.4.54.24.84-.08.14-8.05,14.46-10.28,29.88-.04.31-.31.53-.61.53Z" fill="#fd7166"/><path d="M743.88,100.72c-.29,0-.54-.2-.6-.49l-1.1-5.28c-.07-.33.14-.66.48-.73.33-.07.66.14.73.48l1.1,5.28c.07.33-.14.66-.48.73-.04,0-.08.01-.13.01Z" fill="#fd7166"/><path d="M698.67,90.6s-2.17-16.26-7.33-22.39c-5.17-6.14-6.74-5.93-7.85-4.41-1.09,1.5-.09,1.57.07,3.82,0,0-3.75-4.54-5.59-1.64-1.59,2.51,1.9,5.02,1.9,5.02,0,0-3.28-3.39-4.88-1.43-1.26,1.54,1.62,5.19,1.62,5.19,0,0-2.63-1.29-3.06,1.03-.33,1.79.56,2.8.56,2.8,0,0-3.18-.39-2.78,3.26.25,2.27,5.41,12.08,9.81,15.82,4.4,3.75,17.33,1.64,17.55-7.07Z" fill="#ff9f9c"/><path d="M703.97,99.34s-10.23,9.06-18.03,10.34c-1.12-.72-2.66-3.23-2.85-4.6,0,0,11.29-3.77,18.95-10.16,1.11,1.09,1.93,2.91,1.93,4.42Z" fill="#130b43"/><path d="M691.88,97.57c-2.67,1.31-3.78,4.55-2.46,7.22,1.31,2.67,4.55,3.78,7.22,2.46,2.67-1.31,3.78-4.55,2.46-7.22-1.31-2.67-4.55-3.78-7.22-2.46Z" fill="#130b43"/><path d="M690.77,104.12c.94,1.92,3.28,2.72,5.2,1.77,1.92-.94,2.72-3.28,1.77-5.2-.94-1.92-3.28-2.72-5.2-1.77-1.92.94-2.72,3.28-1.77,5.2Z" fill="#fff"/><path d="M741.03,147.59c.12,0,.24-.03.35-.11.29-.19.37-.58.18-.87-.16-.24-3.57-5.34-7.39-8.58,1.46.02,3.02.27,4.73.74.33.09.68-.1.77-.44.09-.33-.1-.68-.44-.77-2.52-.7-4.77-.93-6.86-.7-.26.03-.48.21-.54.47-.06.25.03.52.25.67,4.15,2.9,8.39,9.25,8.44,9.31.12.18.32.28.52.28Z" fill="#ff746e"/><path d="M516.56,89.23c2.92,10.44,5.57,20.96,8.15,31.48l.97,3.94.95,3.95,1.9,7.87c.63,2.6,1.24,5.26,1.86,7.74l.23.93.2.74c.13.48.28.97.45,1.49.33,1.02.71,2.1,1.12,3.19.84,2.19,1.79,4.47,2.82,6.75,1.03,2.29,2.12,4.61,3.27,6.92,2.27,4.64,4.72,9.29,7.21,13.95,1.26,2.32,2.52,4.66,3.8,6.98,1.27,2.33,2.57,4.66,3.87,6.98,1.29,2.33,2.61,4.65,3.92,6.97l3.9,6.91.06.11c2.84,5.04,1.07,11.42-3.97,14.27-4.58,2.59-10.28,1.35-13.41-2.69-.46-.59-.87-1.13-1.3-1.69l-1.26-1.66-2.47-3.35c-1.63-2.24-3.22-4.5-4.81-6.77-1.57-2.28-3.12-4.57-4.66-6.88-1.53-2.32-3.04-4.65-4.53-7.01-2.97-4.72-5.84-9.54-8.59-14.52-1.36-2.5-2.72-5.03-4-7.65-1.29-2.62-2.54-5.3-3.71-8.16-.58-1.43-1.15-2.9-1.69-4.45-.27-.77-.53-1.57-.78-2.39l-.36-1.22-.3-1.04c-.78-2.76-1.5-5.36-2.21-8.02l-2.07-7.92-1.02-3.95-.99-3.96c-2.65-10.55-5.17-21.11-7.41-31.76-1.46-6.92,2.97-13.71,9.89-15.16,6.63-1.4,13.14,2.62,14.95,9.04v.05Z" fill="#bc4a49"/><path d="M521.81,154.69c-.32,0-.61-.2-.73-.51-.14-.4.07-.84.47-.98,3.97-1.41,9.83-3.53,9.89-3.55.4-.14.84.06.99.46.14.4-.06.84-.46.99-.06.02-5.92,2.14-9.89,3.55-.09.03-.17.04-.26.04Z" fill="#7c1b2e"/><path d="M530.81,151.46c-.11,0-.22-.02-.33-.07-1.06-.5-4.93-.83-5.35-.84-.42,0-.76-.36-.76-.78,0-.42.34-.76.77-.76h0s4.49.28,6,.99c.38.18.55.64.36,1.03-.13.28-.41.44-.7.44Z" fill="#7c1b2e"/><path d="M503.93,78.34s11.02-.26,15.48,13.05c4.32,12.93,6.79,31,6.79,31l-29.71,6.05s-8.93-29.86-7.56-39.32c1.56-10.8,15-10.79,15-10.79Z" fill="#0065d7"/><path d="M527.42,237.96c-7.02,4.65-22.98,8.38-39.14,10.12-20.82,2.24-41.96,1.17-44.67-5.53-.3-.76-.58-1.55-.83-2.37,0-.02-.01-.05-.02-.07-.19-.61-.35-1.23-.51-1.87-.28-1.14-.51-2.32-.71-3.53-.12-.71-.22-1.42-.31-2.14-1.42-11.09-.09-23.27-.09-23.27l79.04-16.25s7.7,22.57,8.88,35.85c.07.73.11,1.43.13,2.1.12,3.47-.36,6.05-1.76,6.98Z" fill="#130b43"/><polygon points="525.42 447.86 529.19 465.76 546.06 462.85 542.92 445.94 525.42 447.86" fill="#bc4a49"/><path d="M590.82,478.19l-59.34,14.47c-.64-.69-1.15-1.77-1.58-3.11-1.59-4.93-1.95-13.33-2.39-18.57-.05-.61-.1-1.18-.16-1.7-.1-.87-.2-1.59-.33-2.11-1-4.12,2.82-4.31,2.82-4.31,7.44,4.42,12.09-6.06,16.76-4.14,0,0,2.01.81,7.75,3.9,5.74,3.09,14.44,3.93,21.95,5.13,9.7,1.53,13.1,4.6,14.2,7.02.87,1.91.32,3.41.32,3.41Z" fill="#fd7166"/><path d="M590.82,478.19l-59.34,14.47c-.64-.69-1.15-1.77-1.58-3.11l60.61-14.78c.87,1.91.32,3.41.32,3.41Z" fill="#fd7166"/><path d="M537.53,491.18l-1.76.43c1.27-2.44,2.16-5.92.87-10.28-1.72-5.79-6.2-8.89-9.14-10.35-.05-.61-.1-1.18-.16-1.7,3.13,1.37,8.64,4.7,10.7,11.63,1.23,4.16.62,7.64-.51,10.26Z" fill="#fd7166"/><path d="M554.19,466.38c-.44.11-.91-.09-1.13-.51-.26-.49-.07-1.1.42-1.36l3.48-1.82c.49-.26,1.1-.07,1.36.42.26.49.07,1.1-.42,1.36l-3.48,1.82c-.07.04-.15.07-.23.09Z" fill="#fd7166"/><path d="M549.68,464.05c-.44.11-.91-.09-1.13-.51-.26-.49-.07-1.1.42-1.36l3.48-1.82c.49-.26,1.1-.07,1.36.42.26.49.07,1.1-.42,1.36l-3.48,1.82c-.07.04-.15.07-.23.09Z" fill="#fd7166"/><path d="M558.43,467.63c-.44.11-.91-.09-1.13-.51-.26-.49-.07-1.1.42-1.36l3.48-1.82c.49-.26,1.1-.07,1.36.42.26.49.07,1.1-.42,1.36l-3.48,1.82c-.07.04-.15.07-.23.09Z" fill="#fd7166"/><path d="M562.64,468.8c-.44.11-.91-.09-1.13-.51-.26-.49-.07-1.1.42-1.36l3.48-1.82c.49-.26,1.1-.07,1.36.42.26.49.07,1.1-.42,1.36l-3.48,1.82c-.07.04-.15.07-.23.09Z" fill="#fd7166"/><path d="M567.15,469.73c-.44.11-.91-.09-1.13-.51-.26-.49-.07-1.1.42-1.36l3.48-1.82c.49-.26,1.1-.07,1.36.42.26.49.07,1.1-.42,1.36l-3.48,1.82c-.07.04-.15.07-.23.09Z" fill="#fd7166"/><path d="M571.93,470.3c-.44.11-.91-.09-1.13-.51-.26-.49-.07-1.1.42-1.36l3.48-1.82c.49-.26,1.1-.07,1.36.42.26.49.07,1.1-.42,1.36l-3.48,1.82c-.07.04-.15.07-.23.09Z" fill="#fd7166"/><path d="M546.28,450.8l-23.14,2.44s-14.29-79.03-12.73-98l-21.26-110.39-3.06-15.89,31.3-2.65,1.79-1,1.06-.58,1.76-.97,4.51-2.5c.11.61.22,1.21.33,1.81.26,1.43.52,2.85.78,4.27.13.74.26,1.47.4,2.2.02.1.04.2.05.3.13.68.24,1.35.37,2.03,7.9,44.03,14.05,84.47,16.41,113.89v.35s.03,2.07.03,2.07l1.4,102.62Z" fill="#130b43"/><path d="M522.16,443.64c-.46,0-.85-.36-.89-.82-.04-.49.33-.92.82-.96l23.14-1.84c.49-.04.92.33.96.82.04.49-.33.92-.82.96l-23.14,1.84s-.05,0-.08,0Z" fill="#2c5383"/><path d="M544.88,348.18c-4.49,1.39-9.94,1.4-10.48,1.4h-.03c-.55,0-.99-.45-.99-1,0-.55.45-.99,1-.99h0c.18,0,6.16,0,10.47-1.48l.03,2.07Z" fill="#2c5383"/><path d="M524.89,442.72h1.98c-12.74-64.71-9.54-92.03-9.51-92.3.01-.11,0-.21-.01-.32l-20.36-97.86c-.1-.49-.57-.82-1.06-.76,0,0-.01,0-.02,0-.55.07-.93.6-.82,1.15l20.33,97.71c-.25,2.4-2.73,30.19,9.47,92.37Z" fill="#2c5383"/><path d="M529.18,230.99c-.08-.02-.16-.04-.22-.06-1.44-.49-2.81-1.17-4.11-2.02-.35-.23-.69-.46-1.02-.71-1.26-.93-2.39-1.98-3.41-3.11-6.36-7.04-8.23-16.94-8.32-17.44-.1-.53.25-1.03.78-1.13.53-.1,1.03.25,1.13.78.02.12,1.93,10.25,8.28,16.94.93.99,1.97,1.9,3.11,2.7.17.11.33.23.5.34,1.01.65,2.06,1.19,3.15,1.6.07.73.11,1.43.13,2.1Z" fill="#2c5383"/><path d="M496.15,243.92c.02.43-.32.79-.77.81t0,0c-.45.02-.82-.31-.84-.74-.13-2.92-.29-5.91-.47-8.9-.03-.53-.06-1.05-.1-1.58-.6-9.76-1.36-19.35-1.94-26.12-.05-.55-.09-1.08-.14-1.59-.13-1.49-.25-2.8-.35-3.92.54-.08,1.07-.17,1.6-.25.1,1.12.22,2.44.35,3.95.05.51.09,1.04.14,1.59.57,6.71,1.34,16.21,1.93,25.91.03.54.07,1.07.1,1.61.18,3.1.35,6.2.48,9.22Z" fill="#2c5383"/><path d="M498.49,233.63c-.25.12-1.39.64-2.83,1.07-.5.15-1.04.29-1.6.4-.51.1-1.02.17-1.53.19-.98.05-1.92-.06-2.71-.44-.98-.47-1.61-1.33-1.83-2.47-.57-3.01-1.76-15.45-2.55-24.25-.05-.54-.1-1.07-.14-1.58-.13-1.41-.24-2.69-.33-3.77.53-.06,1.07-.12,1.61-.19.1,1.09.21,2.39.34,3.81.05.51.09,1.04.14,1.58.8,8.78,1.97,21.2,2.53,24.12.13.67.43,1.11.97,1.37.85.41,2.14.33,3.41.06.54-.12,1.09-.27,1.59-.43.93-.29,1.73-.63,2.22-.86.4-.19.88-.03,1.08.36.19.39.03.85-.37,1.04Z" fill="#2c5383"/><polygon points="465.12 450.47 468.24 468.94 485.36 469.12 485.3 451.91 465.12 450.47" fill="#bc4a49"/><path d="M487.36,239.69l-.86,213.75-.24,3.39-23.58-.1c-1.22-7.63-9.96-38.51-11.08-64.22-1.21-27.67-.7-63.53-.7-63.53-2.48-19.57-6.26-60.84-8.35-84.45,0-.02,0-.05,0-.07-.06-.62-.11-1.24-.17-1.84-.84-9.48-1.36-15.65-1.36-15.65,3.66-1.51,10.17-.53,17.17,1.42.62.17,1.24.35,1.86.54,13.16,3.92,27.32,10.75,27.32,10.75Z" fill="#130b43"/><path d="M485.44,449.03l-23.61-.1c-.49,0-.89-.4-.89-.9,0-.49.4-.89.9-.89l23.61.1c.49,0,.89.4.89.9,0,.49-.4.89-.9.89Z" fill="#2c5383"/><path d="M486.94,343.35v2.07c-2.81.7-6.01.91-9,.9-5.53-.02-10.37-.83-10.71-.89-.54-.09-.91-.61-.82-1.16.09-.55.61-.92,1.15-.82.13.02,11.81,1.97,19.38-.11Z" fill="#2c5383"/><path d="M442.03,242.63c.15.63.32,1.24.5,1.84,0,.02,0,.05,0,.07,0,0,0,0,.01,0,3.44-.05,6.53-1.06,9.2-3.02,4.19-3.07,6.74-7.98,8.29-12.57,1.97-5.87,2.31-11.23,2.34-11.62.03-.53-.37-.98-.9-1.01-.53-.03-.98.37-1.01.9,0,.09-.34,5.43-2.29,11.19-1.45,4.29-3.79,8.82-7.56,11.58-2.38,1.74-5.14,2.63-8.25,2.65-.11,0-.22,0-.34,0Z" fill="#2c5383"/><path d="M464.95,447.91c-1.99-10.8-5.88-32.3-7.86-46.1-2.71-18.9-1.12-72.02-1.1-72.56,0-.05,0-.09,0-.14-2.02-17.78-6.05-79.16-6.09-79.77-.03-.53-.49-.92-1.01-.89-.53.03-.92.49-.89,1.01.04.62,4.06,61.88,6.09,79.8-.07,2.21-1.56,54.07,1.12,72.82,1.96,13.69,5.79,34.9,7.8,45.83h1.94Z" fill="#2c5383"/><path d="M489.79,490.57c0,.14,0,.28,0,.42-.02.64-.05,1.21-.07,1.7-.07,1.08-.15,1.74-.15,1.74l-35.78-.14s-.17-1.38-.03-3.44c.25-3.66,1.49-9.43,6.44-13.22,6.79-5.2,4.17-4.12,5.57-6.5.16-.26,1.39-4.31,1.52-4.59,1.17-2.47,2.25-3.64,8.66-3.61,8.5.03,9.23,4.16,10.13,6.34.37.9.88,2.8,1.39,5.06.21.91.42,1.87.63,2.86.51,2.47.99,5.04,1.32,7.1.34,2.2.41,4.47.38,6.3Z" fill="#fd7166"/><path d="M489.79,490.57c0,.14,0,.28,0,.42-.02.64-.05,1.21-.07,1.7-1.74-1.23-2.98-2.85-3.7-4.83-2.19-6.04,1.24-13.26,1.39-13.57l.07.03c.21.91.42,1.87.63,2.86-.82,2.46-1.76,6.59-.49,10.1.46,1.28,1.19,2.38,2.18,3.29Z" fill="#fd7166"/><path d="M489.78,490.98c-.06,2.04-.22,3.44-.22,3.44l-35.78-.14s-.17-1.38-.03-3.44l36.03.15Z" fill="#fd7166"/><path d="M477.08,473.81c-.08,0-.17-.01-.26-.03-4.55-1.2-8.26-.21-8.29-.2-.54.15-1.1-.17-1.25-.72-.15-.54.17-1.1.72-1.25.17-.05,4.28-1.13,9.35.2.55.14.87.7.73,1.25-.12.46-.54.76-.99.76Z" fill="#fd7166"/><path d="M477.96,469.91c-.08,0-.17-.01-.26-.03-4.55-1.2-8.26-.21-8.29-.2-.54.15-1.1-.17-1.25-.72-.15-.54.17-1.1.72-1.25.17-.05,4.28-1.13,9.35.2.55.14.87.7.73,1.25-.12.46-.54.76-.99.76Z" fill="#fd7166"/><path d="M475.53,477.3c-.08,0-.17-.01-.26-.03-4.52-1.19-8.26-.21-8.3-.2-.54.15-1.1-.18-1.25-.72-.15-.54.17-1.1.72-1.25.17-.05,4.28-1.13,9.35.2.55.14.87.7.73,1.25-.12.46-.54.76-.99.76Z" fill="#fd7166"/><path d="M473.72,480.97c-.08,0-.17-.01-.26-.03-4.52-1.19-8.26-.21-8.3-.2-.54.15-1.1-.18-1.25-.72-.15-.54.17-1.1.72-1.25.17-.05,4.28-1.13,9.35.2.54.14.87.7.73,1.25-.12.46-.54.76-.99.76Z" fill="#fd7166"/><path d="M429.6,165.9c.49,5.04,2,30.77,10.99,49.48l83.15-10.88c-2.39-12.48-7.68-37.64-8.69-44.95-.28-1.98-.52-3.91-.74-5.78-.22-1.84-.41-3.63-.57-5.37-.19-1.99-.35-3.93-.48-5.81-.07-1.01-.13-2-.19-2.98h0c-.06-.98-.11-1.94-.15-2.88-.02-.46-.04-.92-.05-1.38-.06-1.53-.1-3.01-.12-4.46-.35-23.25,3.54-35.76,3.35-42.44-.02-.66-.08-1.27-.19-1.82-.19-.99-.46-1.87-.8-2.66-.34-.79-.75-1.49-1.21-2.11-3.06-4.09-8.67-4.87-14.19-6.65,0,0-.02,0-.03,0-.76-.25-1.51-.51-2.25-.81-.31-.12-.63-.25-.94-.39-.3-.13-.6-.27-.89-.41-.38-.18-.76-.38-1.13-.59-1.97-1.09-3.8-2.54-5.36-4.56-.01-.01-.02-.03-.04-.05-.18-.24-.36-.49-.54-.75l-22.79-.09s-1.87,1.5-5.18,3.17c-.2.1-.4.2-.61.3-.12.05-.24.11-.36.17-.78.36-1.62.73-2.55,1.08-.8.3-1.65.6-2.56.87-.29.09-.57.18-.88.26-1.61.45-3.37.85-5.31,1.15-3.15.49-5.9,1.86-8.22,4.04-1.05.98-2.01,2.13-2.88,3.43-3.47,5.17-5.57,12.83-6.23,22.57-.4,6.05-.82,11.86-1.19,17.49-.17,2.66-.33,5.28-.46,7.87-.03.5-.05.99-.08,1.48,0,.04,0,.08,0,.12-.02.54-.05,1.08-.07,1.63-.17,3.71-.3,7.36-.35,10.97-.08,5.38.01,10.68.34,15.96.12,1.94.27,3.87.46,5.81Z" fill="#0065d7"/><polygon points="491.42 105.31 491.42 111.12 509.1 111.12 509.1 105.63 491.42 105.31" fill="#2b1f96"/><path d="M482.07,83.86c0,1.02-.84,1.85-1.86,1.84-1.02,0-1.85-.84-1.84-1.86,0-1.02.84-1.85,1.86-1.84,1.02,0,1.85.84,1.84,1.86Z" fill="#2b1f96"/><path d="M482.62,93.76c0,1.02-.84,1.85-1.86,1.84-1.02,0-1.85-.84-1.84-1.86,0-1.02.84-1.85,1.86-1.84,1.02,0,1.85.84,1.84,1.86Z" fill="#2b1f96"/><path d="M482.85,102.33c0,1.02-.84,1.85-1.86,1.84-1.02,0-1.85-.84-1.84-1.86,0-1.02.84-1.85,1.86-1.84,1.02,0,1.85.84,1.84,1.86Z" fill="#2b1f96"/><path d="M443.6,206.97c-.26,0-.5-.16-.58-.42-10.09-30.34-6.77-70.03-6.73-70.43.03-.34.32-.59.67-.56.34.03.59.33.56.67-.03.4-3.33,39.84,6.68,69.93.11.32-.07.67-.39.78-.06.02-.13.03-.19.03Z" fill="#2b1f96"/><path d="M512.31,125.08c-.31,0-.58-.23-.61-.55-.03-.3-.74-7.49,2-25.46.05-.34.37-.57.7-.52.34.05.57.37.52.7-2.71,17.77-2,25.08-1.99,25.15.04.34-.21.64-.55.68-.02,0-.04,0-.07,0Z" fill="#2b1f96"/><path d="M512.34,117.1c-.06,0-.13,0-.19-.03-.32-.11-.5-.45-.4-.78,1.26-3.87,3.83-6.89,3.94-7.02.22-.26.61-.29.87-.07.26.22.29.61.07.87-.02.03-2.52,2.97-3.7,6.6-.08.26-.33.43-.59.43Z" fill="#2b1f96"/><path d="M503.11,183.45c-8.43,0-16.45-1.21-23.92-3.6-7.74-2.48-14.91-6.23-21.33-11.15-10.93-8.38-15.94-17.4-15.99-17.49-.16-.3-.05-.67.24-.84.3-.16.67-.05.84.24.05.09,4.96,8.91,15.71,17.14,9.9,7.58,26.93,16.19,51.84,14.16.34-.03.64.23.66.56.03.34-.22.64-.56.66-2.52.21-5.02.31-7.48.31Z" fill="#2b1f96"/><path d="M497.38,155.4c-17.37,0-27.37-8.11-32.77-15.13-6.17-8.01-7.77-16.13-7.83-16.47-.06-.33.16-.66.49-.72.34-.06.66.16.72.49.02.08,1.62,8.21,7.63,15.99,8.03,10.41,19.68,15.3,34.64,14.54.35-.02.63.24.65.58.02.34-.24.63-.58.65-1,.05-1.98.08-2.94.08Z" fill="#2b1f96"/><path d="M469.07,57.64s.63,9.66-4.79,6.15c-3.99-2.58-1.63-5.47-5.76-8.3-1.69-1.15-6.53-2.98-5.89-8.06.64-5.07,3.72-5.9,1.32-7.85-2.4-1.95-6.72-6.93-.74-12.8,5.99-5.87-1.5-10.7,6.58-14.46,8.08-3.76,12.12-.8,18.61-5.19,6.5-4.39,12.87-6.35,17.76-4.06,6.7,3.13,1.97,17.23-3.11,18.22s-23.98,36.35-23.98,36.35Z" fill="#1d1612"/><path d="M488.37,63.05l.5,5.68c-.62.6-1.25,1.12-1.89,1.59-9.35,6.79-20.64.38-20.64.38l-1.72-19.71,20.92,10.62,2.83,1.44Z" fill="#bc4a49"/><path d="M465.83,64.83s-6.12.31-8.79,7.42l14.96,12.76,7.03-11.67s-7.89.15-13.19-8.51Z" fill="#2b1f96"/><path d="M488.37,63.05l.5,5.68c-.62.6-1.25,1.12-1.89,1.59-8.69-2.59-15.58-10.87-15.58-10.87l14.14,2.17,2.83,1.44Z" fill="#1d1612"/><path d="M488.59,65.54s6.21,1.71,8.82,8.85l-11.44,10.2-7.14-11.24s4.38.81,9.76-7.81Z" fill="#2b1f96"/><path d="M493.28,37.24s2.89-4.1,5.05-.44c2.16,3.65,1.43,11.5-3.59,10.66l-1.46-10.22Z" fill="#7c1b2e"/><path d="M494.63,19.22s3.86,1,2.62,5.41c-1.24,4.41-1,5.26-.19,7.81.81,2.55-1.09,4.86-1.87,4.67-.78-.19-9.68-18.91-.56-17.89Z" fill="#1d1612"/><path d="M497.89,50.32s1.04,11.75-11.18,12.79c-12.15,1.04-21.26-7.78-21.73-8.18,0,0-.01-.01-.01-.01l-.35-2.46-1.81-12.76-.97-6.82s-2.63-12.2,8.9-15.48c8.42-2.39,16.58-1.67,21.02,2.44.14.13.28.27.42.41,1.41,1.46,2.39,3.3,2.81,5.54l1.45,12.27.36,3.01,1.1,9.23Z" fill="#bc4a49"/><path d="M473.11,30.8h0c.74,1.32,2.4,1.8,3.73,1.09.78-.42,1.7-.84,2.69-1.15,1.4-.43,2.15-1.94,1.65-3.32h0s-5.74-.02-8.07,3.38Z" fill="#1d1612"/><path d="M495.21,28.87h0c-.5,1.43-2.05,2.19-3.49,1.72-.84-.28-1.82-.54-2.85-.67-1.45-.19-2.46-1.54-2.2-2.98h0s5.64-1.02,8.53,1.93Z" fill="#1d1612"/><path d="M492.17,20.26c-1.98-.51-3.31.24-6.18,1.81-4.15,2.27-9.13.99-13.59-.82-4.46-1.81-6.75,1.45-5.12,3.31,1.63,1.86,1.61,3.49.22,6.17-1.39,2.68,3.37,3.45.97,5.67-1.01.93-.84,2.18-.3,3.31.59,1.23-.42,2.63-1.78,2.5h0c-1.42-.23-3.6-2.52-3.6-2.52l-.97-6.82s-2.63-12.2,8.9-15.48c8.42-2.39,16.58-1.67,21.02,2.44.14.13.28.27.42.41Z" fill="#1d1612"/><path d="M480.63,40.98c.07.86-1.63,1.7-3.8,1.89-2.17.19-4-.35-4.07-1.21-.07-.86,1.63-1.7,3.8-1.89,2.17-.19,4,.35,4.07,1.21Z" fill="#7c1b2e"/><path d="M496.79,41.08c-.3.06-.62.1-.94.13-2.17.19-3.99-.35-4.07-1.21-.07-.86,1.63-1.7,3.8-1.89.29-.03.58-.04.86-.04l.36,3.01Z" fill="#7c1b2e"/><path d="M480.36,36.62c.1,1.18-.35,2.17-1,2.23-.66.06-1.27-.85-1.38-2.02-.1-1.18.35-2.17,1-2.23.66-.06,1.27.85,1.38,2.02Z" fill="#1d1612"/><path d="M491.99,35.6c.1,1.17-.35,2.17-1,2.23-.66.06-1.27-.85-1.38-2.02-.1-1.18.35-2.17,1-2.23s1.27.85,1.38,2.02Z" fill="#1d1612"/><path d="M486.25,41.71c2.86-.25,3.66-2.34,3.69-2.42.05-.14.04-.29-.04-.42-2.32-3.88-4.67-7.86-4.7-7.9-.14-.23-.43-.31-.66-.17-.23.14-.31.43-.17.66.02.04,2.29,3.88,4.57,7.68-.24.43-.99,1.44-2.77,1.6-.27.02-.46.26-.44.53.02.27.26.46.53.44Z" fill="#1d1612"/><path d="M488.7,47.24c1.42-.12,2.88-.65,4.27-1.85.2-.17.23-.48.05-.68-.17-.2-.48-.23-.68-.05-4.99,4.26-11.12-1.13-11.18-1.19-.2-.18-.51-.16-.69.04-.18.2-.16.51.04.69.05.05,3.89,3.42,8.18,3.05Z" fill="#1d1612"/><path d="M468.39,49.83c-.04.14-1.28,3.86-3.41,5.1,0,0-.01-.01-.01-.01l-.35-2.46s1.9-.5,3.77-2.63Z" fill="#1d1612"/><path d="M465.52,41.85s-5.25-5.9-8.26-.64c-2.48,4.33,3.81,14.52,9.11,10.38l-.85-9.74Z" fill="#bc4a49"/><path d="M465.56,49.74s.04,0,.05,0c.26-.05.43-.31.38-.57-1.06-5.32-5.74-6.78-5.93-6.84-.26-.08-.53.07-.6.33-.08.26.07.53.32.6h0c.18.05,4.32,1.37,5.26,6.1.05.25.27.41.52.39Z" fill="#1d1612"/><path d="M460.8,47.21c.11,0,.21-.05.29-.13.39-.38,1.59-1.33,2.44-1.19.26.04.51-.14.56-.4.04-.26-.14-.51-.4-.56-1.48-.24-3.1,1.27-3.28,1.45-.19.19-.2.49-.01.69.11.11.25.16.39.15Z" fill="#1d1612"/><path d="M456.09,95.84l-11.62,32.21c-1.93,5.37-3.82,10.73-5.69,16.08-1.84,5.35-3.68,10.7-5.3,15.94-.4,1.3-.79,2.6-1.15,3.86-.19.65-.35,1.24-.52,1.85l-.12.45-.11.43-.22.86v.03s-.03.12,0-.07c.06-.32.11-.65.14-.98.02-.16.03-.34.04-.48v-.32c.02-.22.02-.43,0-.65v-.26s-.03-.21-.03-.21c-.01-.14-.03-.28-.04-.42l-.04-.31-.05-.27-.04-.22-.04-.18-.07-.28-.06-.21-.05-.14-.03-.09-.03-.07s-.03-.06-.03-.05c0-.01,0,.02.02.06.07.2.29.66.54,1.13.5.96,1.14,2.08,1.81,3.19,1.35,2.25,2.84,4.59,4.35,6.92,1.52,2.34,3.08,4.68,4.67,7.02,3.16,4.69,6.44,9.34,9.69,14.03l4.92,7,4.94,6.97.04.05c3.24,4.57,2.17,10.91-2.41,14.15-4.37,3.1-10.38,2.22-13.73-1.85-1.86-2.27-3.68-4.51-5.48-6.78l-5.41-6.82c-1.8-2.28-3.58-4.57-5.35-6.88-1.77-2.31-3.54-4.63-5.29-6.97-1.76-2.34-3.5-4.7-5.24-7.11-1.74-2.41-3.46-4.84-5.18-7.46-.86-1.32-1.72-2.66-2.62-4.21-.45-.79-.91-1.61-1.43-2.71-.13-.28-.27-.58-.41-.92l-.22-.56-.12-.32-.12-.35-.13-.39c-.04-.13-.09-.31-.14-.47l-.07-.24-.07-.3-.07-.31-.03-.15-.04-.2-.07-.41-.03-.2-.03-.24c-.02-.18-.04-.37-.06-.55l-.02-.28c0-.08-.01-.18-.02-.33,0-.26,0-.52,0-.78v-.39c.02-.16.04-.36.06-.54.04-.37.09-.74.16-1.11l.03-.18.24-1.25.12-.63.13-.59c.17-.78.34-1.59.52-2.33.36-1.53.73-3,1.11-4.46,1.52-5.83,3.16-11.44,4.86-17.03,1.69-5.59,3.46-11.12,5.26-16.64,1.81-5.51,3.64-11,5.53-16.47.93-2.74,1.91-5.46,2.87-8.19l1.45-4.09,1.49-4.1c2.42-6.64,9.76-10.06,16.4-7.64,6.64,2.42,10.06,9.76,7.64,16.4h0Z" fill="#bc4a49"/><path d="M448.51,78.4s-8.8-5.34-17.8,9.66c-6.67,11.11-11.76,26.14-11.76,26.14l28.12,12.43s9.82-26.11,10.93-35.13c1.27-10.3-9.5-13.1-9.5-13.1Z" fill="#0065d7"/><path d="M448.32,127.72c-.07,0-.15-.01-.22-.04-.32-.12-.47-.48-.35-.8l11.05-28.24c.12-.32.48-.47.8-.35.32.12.47.48.35.8l-11.05,28.24c-.1.24-.33.39-.57.39Z" fill="#2b1f96"/><path d="M457.33,104.69c-.26,0-.5-.16-.58-.42-.11-.32.06-.67.38-.78l4.18-1.43c.32-.11.67.06.78.38.11.32-.06.67-.38.78l-4.18,1.43c-.07.02-.13.03-.2.03Z" fill="#2b1f96"/><path d="M422.24,166.99c-.33,0-.64-.22-.74-.55-.12-.41.11-.84.52-.96.29-.09,7.05-2.11,9.34-2.2.42-.01.78.32.8.74.02.43-.32.78-.74.8-1.74.06-7.06,1.56-8.96,2.13-.07.02-.15.03-.22.03Z" fill="#7c1b2e"/><path d="M430.41,164.93c-.11,0-.22-.02-.32-.07-1.42-.66-4.88-1.92-4.91-1.93-.4-.14-.61-.59-.46-.99.15-.4.59-.61.99-.46.14.05,3.56,1.29,5.04,1.98.39.18.55.64.37,1.02-.13.28-.41.45-.7.45Z" fill="#7c1b2e"/><rect x="456.48" y="170.32" width="103.88" height="79.03" transform="translate(-23.65 70.47) rotate(-7.75)" fill="#e8b066"/><rect x="532.93" y="165.92" width="15.74" height="79.03" transform="translate(-22.76 74.79) rotate(-7.75)" fill="#ffd395"/><path d="M566.48,198.04s-1.74-5.2-3.91-10.12c-1.81-4.1-5.65-5.22-5.65-5.22.43,4.27.79,5.92,1.14,8.36,0,0-1.09.96-3.37,1.8-2.29.84-10.15,3.81-9.97,5.71.42,4.33,10.3.72,10.3.72,0,0-10.59,3.73-9.85,6.7.6,2.4,10.54,1.35,10.54,1.35,0,0-9.5,1.55-7.84,4.79,1.77,3.44,10.25-.2,10.25-.2,0,0-5.89,4.03-5.08,5.22,1.17,1.71,5.02,1.65,10.88-.77,6-2.48,2.56-18.33,2.56-18.33Z" fill="#bc4a49"/><polygon points="462.28 256 452.83 249.13 442.12 170.43 451.62 177.66 462.28 256" fill="#d38b4a"/><path d="M441.35,211.15s.46-5.46,1.41-10.75c.79-4.41,3.66-6.26,3.66-6.26.59,4.25.97,5.67,1.2,8.12,0,0,1.55.8,3.97,1.08,2.42.28,10.77,1.31,11.03,3.2.61,4.31-9.84,3.13-9.84,3.13,0,0,11.17,1.13,11.15,4.19-.01,2.47-9.93,3.79-9.93,3.79,0,0,9.6-.73,8.75,2.81-.91,3.76-10.01,2.22-10.01,2.22,0,0,6.67,2.53,6.17,3.87-.73,1.94-4.49,2.79-10.76,1.81-6.42-.99-6.81-17.21-6.81-17.21Z" fill="#bc4a49"/><polygon points="442.12 170.43 451.67 177.68 554.56 163.68 545.41 156.37 442.12 170.43" fill="#d38b4a"/><polygon points="517.57 160.16 527.67 167.34 543.28 165.22 533.18 158.04 517.57 160.16" fill="#e8b066"/><rect x="466.4" y="174.97" width="15.74" height="79.03" transform="translate(-24.59 65.91) rotate(-7.75)" fill="#ffd395"/><polygon points="451.05 169.21 461.15 176.39 476.75 174.27 466.65 167.09 451.05 169.21" fill="#e8b066"/></svg>