<?xml version="1.0" encoding="UTF-8"?><svg id="Layer_1" xmlns="http://www.w3.org/2000/svg" viewBox="0 0 152.99 149.14"><path d="M102.22,132.54c0,8.3-6.12,12.15-11.75,12.15l.1-.1c-5.63,0-11.75-3.75-11.75-12.15v-57.98h-4.44l-.1,58.07c0,10.86,8.2,16.59,16.2,16.59s16.2-5.73,16.2-16.59h-4.44Z"/><path d="M152.99,73.48c-.56-.28-1.12-.53-1.69-.78.5.25,1,.51,1.49.78h.2Z"/><path d="M151.3,72.7c-6.61-3.26-14.37-4.46-21.62-3.27-7.8,1.19-15.01,5.14-20.54,10.67.3-6.02-.49-12.05-1.78-17.98-3.26-14.72-10.47-28.54-20.35-39.9-.89-.99-2.27-2.57-3.16-3.56-1.28-1.38-2.67-2.77-4.05-4.05,34.07,1.19,64.4,25.68,72.99,58.77-7.51-33.98-38.42-59.36-73.19-60.54l-1.38-12.05v-.79h-3.65v.79l-1.38,12.05c-25.58.89-50.17,15.21-63.51,37.04-4.44,7.31-7.8,15.31-9.68,23.6,2.17-8.2,5.73-16.1,10.37-23.21C24.1,29.33,48,15.6,73.09,14.72c-1.38,1.28-2.77,2.67-4.05,4.05-.4.4-1.28,1.28-1.58,1.78-10.67,11.75-18.47,26.17-21.93,41.68-1.28,5.83-2.07,11.75-1.78,17.68-11.46-11.46-29.43-14.32-43.65-6.22,14.42-7.21,32.2-3.95,43.16,8l.49.49.59-.4c19.26-12.44,45.43-12.44,64.59,0l.59.4.49-.49c3.95-4.25,8.89-7.6,14.42-9.68,8.6-3.24,18.42-2.92,26.85.7ZM43.95,80.1v-.1c.49-15.31,5.53-30.42,13.14-43.65,4.54-7.8,10.07-15.01,16.2-21.53h1.68v-.79s1.19-10.57,1.38-11.95h.2l1.38,11.95v.79h1.78c6.12,6.62,11.75,13.73,16.2,21.53,7.6,13.23,12.74,28.35,13.14,43.75-19.36-12.74-45.73-12.74-65.09,0Z"/></svg>